<svg xmlns="http://www.w3.org/2000/svg" xmlns:xlink="http://www.w3.org/1999/xlink" width="500" zoomAndPan="magnify" viewBox="0 0 375 374.999991" height="500" preserveAspectRatio="xMidYMid meet" version="1.0"><defs><g/><clipPath id="86841d70c3"><path d="M 111 35.246094 L 272 35.246094 L 272 217 L 111 217 Z M 111 35.246094 " clip-rule="nonzero"/></clipPath><clipPath id="e05f6dd4a8"><path d="M 157 227 L 226 227 L 226 232.414062 L 157 232.414062 Z M 157 227 " clip-rule="nonzero"/></clipPath><clipPath id="119cdc5ccf"><path d="M 63.027344 212 L 319.527344 212 L 319.527344 218 L 63.027344 218 Z M 63.027344 212 " clip-rule="nonzero"/></clipPath></defs><rect x="-37.5" width="450" fill="#ffffff" y="-37.499999" height="449.999989" fill-opacity="1"/><rect x="-37.5" width="450" fill="#000000" y="-37.499999" height="449.999989" fill-opacity="1"/><g clip-path="url(#86841d70c3)"><path fill="#ffffff" d="M 210.144531 117.613281 C 210.144531 117.613281 213.316406 122 219.753906 122.109375 C 219.753906 122.109375 219.53125 124.066406 219.957031 124.667969 C 220.382812 125.273438 221.332031 126.378906 221.160156 127.074219 C 220.984375 127.769531 221.140625 128.535156 221.269531 128.835938 C 221.398438 129.136719 220.496094 129.691406 220.617188 130.6875 C 220.742188 131.683594 220.199219 132.640625 219.695312 133 C 219.191406 133.359375 218.1875 134.011719 218.039062 135.40625 C 217.890625 136.800781 218.105469 138.261719 217.296875 139.414062 C 216.484375 140.566406 215.511719 141.621094 215.5 142.550781 C 215.488281 143.480469 214.527344 143.367188 213.222656 144.183594 C 211.917969 144.996094 202.660156 152.960938 198.15625 157.621094 C 193.652344 162.285156 186.402344 168.90625 184.867188 169.6875 C 183.328125 170.46875 177.859375 172.394531 177.859375 172.394531 C 177.859375 172.394531 184.109375 166.09375 187.933594 162.617188 C 191.761719 159.140625 201.242188 149.15625 203.214844 145.128906 C 205.191406 141.101562 208.3125 129.648438 208.324219 128.351562 C 208.34375 127.054688 210.277344 120.539062 210.144531 117.613281 M 145.164062 44.203125 C 145.164062 44.203125 145.664062 43.941406 146.90625 44.304688 C 148.144531 44.667969 149.210938 44.414062 150.246094 43.929688 C 151.28125 43.441406 151.5625 42.152344 152.625 42.332031 C 153.683594 42.507812 162.671875 46.363281 172.964844 52 C 183.261719 57.628906 185.484375 57.558594 187.789062 59.441406 C 190.09375 61.328125 194.109375 64.199219 198.972656 65.75 C 203.835938 67.300781 207.066406 69.296875 208.699219 71.839844 C 210.328125 74.382812 213.664062 78.707031 214.128906 78.910156 C 214.128906 78.910156 213.234375 78.699219 212.796875 79.160156 C 212.359375 79.621094 211.925781 79.945312 211.300781 79.574219 C 210.671875 79.203125 209.449219 78.488281 208.339844 76.917969 C 207.230469 75.34375 204.871094 72.625 203.75 71.816406 C 202.632812 71.003906 201.296875 68.464844 199.113281 68.042969 C 196.925781 67.617188 196.070312 67.144531 193.71875 66.1875 C 191.375 65.226562 190.03125 63.75 187.242188 63.71875 C 184.453125 63.6875 179.816406 65.359375 176.125 71.558594 C 172.433594 77.757812 176.710938 86.976562 181.328125 89.484375 C 185.949219 91.996094 189.832031 92.242188 192.523438 92.007812 C 195.214844 91.773438 197.195312 90.035156 197.195312 90.035156 C 197.195312 90.035156 203.460938 91.039062 204.714844 91.785156 C 204.714844 91.785156 203.757812 96.988281 201.179688 98.75 C 198.601562 100.511719 194.652344 103.15625 194.835938 110.296875 C 195.015625 117.441406 197.308594 123.144531 196.730469 127.386719 C 196.148438 131.632812 195.679688 137.671875 194.792969 139.386719 C 193.914062 141.101562 190.183594 144.878906 188.183594 148.375 C 186.179688 151.871094 181.9375 158.546875 178.9375 162.296875 C 175.9375 166.046875 172.398438 170.457031 171.363281 171.175781 C 170.324219 171.894531 166.113281 174.367188 165.171875 175.121094 C 164.234375 175.875 157.847656 179.785156 157.277344 180.277344 C 156.707031 180.765625 157.0625 181.566406 157.0625 181.566406 L 160.796875 180.21875 C 160.796875 180.21875 153.3125 184.046875 151.914062 184.566406 C 150.511719 185.078125 145.394531 188.40625 145.386719 189.039062 C 145.378906 189.667969 146.210938 192.402344 147.3125 194.671875 C 147.3125 194.671875 145.453125 191.792969 145.007812 190.195312 C 145.007812 190.195312 135.652344 195.199219 133.410156 196.535156 C 131.171875 197.871094 125.019531 201.320312 123.308594 202.992188 C 121.59375 204.664062 119.207031 207.292969 117.867188 208.078125 C 116.53125 208.859375 110.871094 212.941406 111.195312 213.445312 C 111.523438 213.945312 112.183594 214.21875 112.183594 214.21875 C 112.183594 214.21875 112.078125 214.882812 112.671875 215.085938 C 112.671875 215.085938 113.691406 216.03125 114.789062 215.679688 C 114.789062 215.679688 115.972656 216.820312 117.808594 215.945312 C 117.808594 215.945312 119.398438 216.394531 121.460938 216.023438 C 123.523438 215.648438 123.132812 215.042969 124 214.855469 C 124.867188 214.667969 126.300781 213.953125 126.542969 213.160156 C 126.785156 212.363281 127.066406 211.007812 128.539062 210.125 C 130.007812 209.246094 131.539062 208.933594 132.601562 206.023438 C 132.601562 206.023438 134.589844 203.621094 138.828125 201.746094 C 143.066406 199.867188 149.59375 198.253906 149.59375 198.253906 C 149.59375 198.253906 151.042969 199.496094 151.308594 199.398438 C 151.578125 199.304688 155.457031 196.726562 158.953125 196.101562 C 162.445312 195.476562 168.644531 193.625 172.550781 191.875 C 176.453125 190.128906 179.300781 188.171875 182.828125 187.613281 C 186.351562 187.058594 190.082031 186.335938 196.695312 183.058594 C 203.308594 179.785156 208.527344 176.222656 218.167969 172.75 C 227.804688 169.273438 229.378906 167.898438 230.984375 167.089844 C 232.585938 166.277344 235.519531 165.648438 237.335938 166.464844 C 239.148438 167.285156 241.976562 169.738281 243.125 173.972656 C 244.269531 178.203125 248.238281 188.042969 248.605469 190.835938 C 248.972656 193.632812 250.339844 207.460938 252.5 210.078125 C 254.660156 212.691406 258.558594 214.695312 261.472656 215.03125 C 264.394531 215.363281 268.984375 211.929688 270.628906 207.53125 C 272.273438 203.136719 271.394531 198.707031 270.589844 196.570312 C 269.785156 194.4375 269.476562 192.476562 269.261719 190.910156 C 269.046875 189.347656 270.761719 167.453125 266.851562 155.386719 C 266.851562 155.386719 267.867188 153.707031 267.648438 152.421875 C 267.433594 151.140625 265.902344 150.09375 265.535156 148.894531 C 265.164062 147.695312 264.777344 145.515625 264.777344 145.515625 C 264.777344 145.515625 264.082031 128.105469 255.671875 109.144531 C 247.257812 90.1875 240.449219 81.472656 235.585938 77.167969 C 230.722656 72.859375 227.203125 67.039062 222.519531 64.464844 C 217.832031 61.886719 198.207031 53.355469 193.445312 51.703125 C 188.683594 50.054688 186.886719 47.574219 181.066406 45.382812 C 175.246094 43.1875 164.957031 40.148438 162.113281 39.019531 C 159.269531 37.890625 155.535156 36.417969 154.472656 36.339844 C 153.410156 36.261719 140.761719 36.046875 138.375 35.820312 C 135.984375 35.59375 133.761719 35.601562 132.632812 35.753906 C 131.5 35.90625 127.820312 35.167969 127.554688 35.296875 C 127.285156 35.425781 126.476562 36.511719 126.839844 36.78125 C 127.199219 37.050781 130.085938 37.550781 131.804688 38.265625 C 133.523438 38.984375 136 39.941406 138.589844 40.238281 C 141.175781 40.535156 143.453125 41.390625 143.71875 41.628906 C 143.980469 41.863281 141.878906 42.800781 141.871094 43.5 C 141.863281 44.195312 141.5625 46.914062 145.164062 44.203125 Z M 145.164062 44.203125 " fill-opacity="1" fill-rule="evenodd"/></g><path fill="#ffffff" d="M 147.253906 220.046875 L 235.492188 220.046875 C 252.40625 220.046875 266.234375 221.097656 266.234375 222.386719 C 266.234375 223.675781 252.410156 224.730469 235.492188 224.730469 L 147.253906 224.730469 C 130.335938 224.730469 116.511719 223.675781 116.511719 222.386719 C 116.511719 221.097656 130.335938 220.046875 147.253906 220.046875 " fill-opacity="1" fill-rule="evenodd"/><g clip-path="url(#e05f6dd4a8)"><path fill="#ffffff" d="M 188.03125 227.585938 L 194.714844 227.585938 C 211.628906 227.585938 225.460938 228.640625 225.460938 229.929688 C 225.460938 231.21875 211.628906 232.273438 194.714844 232.273438 L 188.03125 232.273438 C 171.117188 232.273438 157.285156 231.21875 157.285156 229.929688 C 157.285156 228.640625 171.117188 227.585938 188.03125 227.585938 " fill-opacity="1" fill-rule="evenodd"/></g><g clip-path="url(#119cdc5ccf)"><path fill="#ffffff" d="M 93.777344 212.503906 L 288.96875 212.503906 C 305.886719 212.503906 319.714844 213.558594 319.714844 214.847656 C 319.714844 216.136719 305.886719 217.191406 288.96875 217.191406 L 93.777344 217.191406 C 76.859375 217.191406 63.027344 216.136719 63.027344 214.847656 C 63.027344 213.554688 76.859375 212.503906 93.777344 212.503906 " fill-opacity="1" fill-rule="evenodd"/></g><g fill="#ffffff" fill-opacity="1"><g transform="translate(17.460638, 280.151986)"><g><path d="M 13.40625 -14.5 L 26.28125 0 L 19.25 0 L 9.796875 -10.875 L 7.5 -8.546875 L 7.5 0 L 1.765625 0 L 1.765625 -26.703125 L 7.5 -26.703125 L 7.5 -15.890625 L 18.21875 -26.703125 L 25.53125 -26.703125 Z M 13.40625 -14.5 "/></g></g></g><g fill="#ffffff" fill-opacity="1"><g transform="translate(45.4062, 280.151986)"><g><path d="M 20.96875 -18.75 C 20.96875 -17.894531 20.847656 -17.082031 20.609375 -16.3125 C 20.378906 -15.550781 20.050781 -14.847656 19.625 -14.203125 C 19.195312 -13.566406 18.679688 -13.003906 18.078125 -12.515625 C 17.472656 -12.023438 16.816406 -11.628906 16.109375 -11.328125 L 24.96875 0 L 18.296875 0 L 10.046875 -10.765625 L 7.5 -10.765625 L 7.5 0 L 1.765625 0 L 1.765625 -26.703125 L 13.296875 -26.703125 C 14.347656 -26.703125 15.34375 -26.492188 16.28125 -26.078125 C 17.226562 -25.660156 18.046875 -25.09375 18.734375 -24.375 C 19.421875 -23.664062 19.960938 -22.828125 20.359375 -21.859375 C 20.765625 -20.890625 20.96875 -19.851562 20.96875 -18.75 Z M 12.578125 -15.96875 C 13.304688 -15.96875 13.929688 -16.234375 14.453125 -16.765625 C 14.984375 -17.304688 15.25 -17.96875 15.25 -18.75 C 15.25 -19.5 14.984375 -20.144531 14.453125 -20.6875 C 13.929688 -21.226562 13.304688 -21.5 12.578125 -21.5 L 7.5 -21.5 L 7.5 -15.96875 Z M 12.578125 -15.96875 "/></g></g></g><g fill="#ffffff" fill-opacity="1"><g transform="translate(72.410207, 280.151986)"><g><path d="M 11.484375 -26.703125 L 11.484375 -21.875 L 9.484375 -21.875 L 9.484375 -4.78125 L 11.484375 -4.78125 L 11.484375 0 L 1.765625 0 L 1.765625 -4.78125 L 3.765625 -4.78125 L 3.765625 -21.875 L 1.765625 -21.875 L 1.765625 -26.703125 Z M 11.484375 -26.703125 "/></g></g></g><g fill="#ffffff" fill-opacity="1"><g transform="translate(86.759669, 280.151986)"><g><path d="M 18.75 -13.75 C 19.800781 -13.113281 20.601562 -12.304688 21.15625 -11.328125 C 21.707031 -10.347656 21.984375 -9.222656 21.984375 -7.953125 C 21.984375 -6.742188 21.695312 -5.617188 21.125 -4.578125 C 20.550781 -3.535156 19.734375 -2.613281 18.671875 -1.8125 C 17.722656 -1.082031 16.640625 -0.519531 15.421875 -0.125 C 14.203125 0.257812 12.914062 0.460938 11.5625 0.484375 C 10.207031 0.484375 8.914062 0.296875 7.6875 -0.078125 C 6.457031 -0.453125 5.363281 -1.015625 4.40625 -1.765625 C 2.976562 -2.847656 2 -4.15625 1.46875 -5.6875 L 6.734375 -8.140625 C 6.734375 -7.878906 6.820312 -7.5625 7 -7.1875 C 7.175781 -6.8125 7.453125 -6.445312 7.828125 -6.09375 C 8.203125 -5.75 8.691406 -5.445312 9.296875 -5.1875 C 9.898438 -4.9375 10.640625 -4.8125 11.515625 -4.8125 C 12.222656 -4.8125 12.847656 -4.898438 13.390625 -5.078125 C 13.929688 -5.253906 14.378906 -5.472656 14.734375 -5.734375 C 15.097656 -6.003906 15.375 -6.304688 15.5625 -6.640625 C 15.757812 -6.984375 15.859375 -7.332031 15.859375 -7.6875 C 15.859375 -8.082031 15.722656 -8.457031 15.453125 -8.8125 C 15.191406 -9.164062 14.785156 -9.441406 14.234375 -9.640625 C 13.234375 -9.992188 12.171875 -10.285156 11.046875 -10.515625 C 9.929688 -10.753906 8.847656 -11.054688 7.796875 -11.421875 C 6.742188 -11.785156 5.765625 -12.269531 4.859375 -12.875 C 3.953125 -13.476562 3.238281 -14.320312 2.71875 -15.40625 C 2.238281 -16.351562 2 -17.367188 2 -18.453125 C 2 -19.660156 2.28125 -20.828125 2.84375 -21.953125 C 3.40625 -23.078125 4.175781 -24.03125 5.15625 -24.8125 C 6.082031 -25.539062 7.125 -26.097656 8.28125 -26.484375 C 9.4375 -26.878906 10.65625 -27.078125 11.9375 -27.078125 C 13.21875 -27.078125 14.441406 -26.882812 15.609375 -26.5 C 16.773438 -26.125 17.820312 -25.578125 18.75 -24.859375 C 19.65625 -24.179688 20.375 -23.390625 20.90625 -22.484375 L 16.609375 -19.546875 C 16.078125 -20.273438 15.414062 -20.859375 14.625 -21.296875 C 13.832031 -21.734375 12.945312 -21.953125 11.96875 -21.953125 C 10.613281 -21.953125 9.566406 -21.648438 8.828125 -21.046875 C 8.085938 -20.441406 7.71875 -19.648438 7.71875 -18.671875 C 7.71875 -18.222656 7.925781 -17.820312 8.34375 -17.46875 C 8.757812 -17.125 9.296875 -16.8125 9.953125 -16.53125 C 10.617188 -16.25 11.363281 -16.003906 12.1875 -15.796875 C 13.019531 -15.585938 13.84375 -15.375 14.65625 -15.15625 C 15.476562 -14.945312 16.253906 -14.726562 16.984375 -14.5 C 17.710938 -14.269531 18.300781 -14.019531 18.75 -13.75 Z M 18.75 -13.75 "/></g></g></g><g fill="#ffffff" fill-opacity="1"><g transform="translate(111.089654, 280.151986)"><g><path d="M 19.6875 -26.703125 L 25.421875 -26.703125 L 25.421875 0 L 19.6875 0 L 19.6875 -11.484375 L 7.453125 -11.484375 L 7.453125 0 L 1.765625 0 L 1.765625 -26.703125 L 7.453125 -26.703125 L 7.453125 -16.6875 L 19.6875 -16.6875 Z M 19.6875 -26.703125 "/></g></g></g><g fill="#ffffff" fill-opacity="1"><g transform="translate(139.411842, 280.151986)"><g><path d="M 18.1875 -26.703125 L 29.328125 0 L 23.15625 0 L 20.75 -5.71875 L 9.421875 -5.71875 L 7.046875 0 L 0.828125 0 L 11.96875 -26.703125 Z M 18.609375 -10.921875 L 15.09375 -19.3125 L 11.59375 -10.921875 Z M 18.609375 -10.921875 "/></g></g></g><g fill="#ffffff" fill-opacity="1"><g transform="translate(170.709361, 280.151986)"><g><path d="M 7.5 -5.15625 L 18.453125 -5.15625 L 18.453125 0 L 1.765625 0 L 1.765625 -26.703125 L 7.5 -26.703125 Z M 7.5 -5.15625 "/></g></g></g><g fill="#ffffff" fill-opacity="1"><g transform="translate(190.670514, 280.151986)"><g><path d="M 11.484375 -26.703125 L 11.484375 -21.875 L 9.484375 -21.875 L 9.484375 -4.78125 L 11.484375 -4.78125 L 11.484375 0 L 1.765625 0 L 1.765625 -4.78125 L 3.765625 -4.78125 L 3.765625 -21.875 L 1.765625 -21.875 L 1.765625 -26.703125 Z M 11.484375 -26.703125 "/></g></g></g><g fill="#ffffff" fill-opacity="1"><g transform="translate(205.019976, 280.151986)"><g/></g></g><g fill="#ffffff" fill-opacity="1"><g transform="translate(216.507101, 280.151986)"><g><path d="M 1.765625 -26.703125 L 18.453125 -26.703125 L 18.453125 -21.5 L 7.5 -21.5 L 7.5 -16.6875 L 17.140625 -16.6875 L 17.140625 -11.484375 L 7.5 -11.484375 L 7.5 0 L 1.765625 0 Z M 1.765625 -26.703125 "/></g></g></g><g fill="#ffffff" fill-opacity="1"><g transform="translate(236.581234, 280.151986)"><g><path d="M 11.484375 -26.703125 L 11.484375 -21.875 L 9.484375 -21.875 L 9.484375 -4.78125 L 11.484375 -4.78125 L 11.484375 0 L 1.765625 0 L 1.765625 -4.78125 L 3.765625 -4.78125 L 3.765625 -21.875 L 1.765625 -21.875 L 1.765625 -26.703125 Z M 11.484375 -26.703125 "/></g></g></g><g fill="#ffffff" fill-opacity="1"><g transform="translate(250.930696, 280.151986)"><g><path d="M 0.859375 -26.703125 L 20.1875 -26.703125 L 20.1875 -21.5 L 13.375 -21.5 L 13.375 0 L 7.6875 0 L 7.6875 -21.5 L 0.859375 -21.5 Z M 0.859375 -26.703125 "/></g></g></g><g fill="#ffffff" fill-opacity="1"><g transform="translate(273.113938, 280.151986)"><g><path d="M 20.03125 -26.703125 L 25.71875 -26.703125 L 25.71875 0 L 20.296875 0 L 7.453125 -17.4375 L 7.453125 0 L 1.765625 0 L 1.765625 -26.703125 L 7.109375 -26.703125 L 20.03125 -9.15625 Z M 20.03125 -26.703125 "/></g></g></g><g fill="#ffffff" fill-opacity="1"><g transform="translate(301.737407, 280.151986)"><g><path d="M 1.8125 -26.703125 L 18.484375 -26.703125 L 18.484375 -21.5 L 7.53125 -21.5 L 7.53125 -16.6875 L 17.171875 -16.6875 L 17.171875 -11.484375 L 7.53125 -11.484375 L 7.53125 -5.15625 L 18.484375 -5.15625 L 18.484375 0 L 1.8125 0 Z M 1.8125 -26.703125 "/></g></g></g><g fill="#ffffff" fill-opacity="1"><g transform="translate(323.167395, 280.151986)"><g><path d="M 18.75 -13.75 C 19.800781 -13.113281 20.601562 -12.304688 21.15625 -11.328125 C 21.707031 -10.347656 21.984375 -9.222656 21.984375 -7.953125 C 21.984375 -6.742188 21.695312 -5.617188 21.125 -4.578125 C 20.550781 -3.535156 19.734375 -2.613281 18.671875 -1.8125 C 17.722656 -1.082031 16.640625 -0.519531 15.421875 -0.125 C 14.203125 0.257812 12.914062 0.460938 11.5625 0.484375 C 10.207031 0.484375 8.914062 0.296875 7.6875 -0.078125 C 6.457031 -0.453125 5.363281 -1.015625 4.40625 -1.765625 C 2.976562 -2.847656 2 -4.15625 1.46875 -5.6875 L 6.734375 -8.140625 C 6.734375 -7.878906 6.820312 -7.5625 7 -7.1875 C 7.175781 -6.8125 7.453125 -6.445312 7.828125 -6.09375 C 8.203125 -5.75 8.691406 -5.445312 9.296875 -5.1875 C 9.898438 -4.9375 10.640625 -4.8125 11.515625 -4.8125 C 12.222656 -4.8125 12.847656 -4.898438 13.390625 -5.078125 C 13.929688 -5.253906 14.378906 -5.472656 14.734375 -5.734375 C 15.097656 -6.003906 15.375 -6.304688 15.5625 -6.640625 C 15.757812 -6.984375 15.859375 -7.332031 15.859375 -7.6875 C 15.859375 -8.082031 15.722656 -8.457031 15.453125 -8.8125 C 15.191406 -9.164062 14.785156 -9.441406 14.234375 -9.640625 C 13.234375 -9.992188 12.171875 -10.285156 11.046875 -10.515625 C 9.929688 -10.753906 8.847656 -11.054688 7.796875 -11.421875 C 6.742188 -11.785156 5.765625 -12.269531 4.859375 -12.875 C 3.953125 -13.476562 3.238281 -14.320312 2.71875 -15.40625 C 2.238281 -16.351562 2 -17.367188 2 -18.453125 C 2 -19.660156 2.28125 -20.828125 2.84375 -21.953125 C 3.40625 -23.078125 4.175781 -24.03125 5.15625 -24.8125 C 6.082031 -25.539062 7.125 -26.097656 8.28125 -26.484375 C 9.4375 -26.878906 10.65625 -27.078125 11.9375 -27.078125 C 13.21875 -27.078125 14.441406 -26.882812 15.609375 -26.5 C 16.773438 -26.125 17.820312 -25.578125 18.75 -24.859375 C 19.65625 -24.179688 20.375 -23.390625 20.90625 -22.484375 L 16.609375 -19.546875 C 16.078125 -20.273438 15.414062 -20.859375 14.625 -21.296875 C 13.832031 -21.734375 12.945312 -21.953125 11.96875 -21.953125 C 10.613281 -21.953125 9.566406 -21.648438 8.828125 -21.046875 C 8.085938 -20.441406 7.71875 -19.648438 7.71875 -18.671875 C 7.71875 -18.222656 7.925781 -17.820312 8.34375 -17.46875 C 8.757812 -17.125 9.296875 -16.8125 9.953125 -16.53125 C 10.617188 -16.25 11.363281 -16.003906 12.1875 -15.796875 C 13.019531 -15.585938 13.84375 -15.375 14.65625 -15.15625 C 15.476562 -14.945312 16.253906 -14.726562 16.984375 -14.5 C 17.710938 -14.269531 18.300781 -14.019531 18.75 -13.75 Z M 18.75 -13.75 "/></g></g></g><g fill="#ffffff" fill-opacity="1"><g transform="translate(347.49738, 280.151986)"><g><path d="M 18.75 -13.75 C 19.800781 -13.113281 20.601562 -12.304688 21.15625 -11.328125 C 21.707031 -10.347656 21.984375 -9.222656 21.984375 -7.953125 C 21.984375 -6.742188 21.695312 -5.617188 21.125 -4.578125 C 20.550781 -3.535156 19.734375 -2.613281 18.671875 -1.8125 C 17.722656 -1.082031 16.640625 -0.519531 15.421875 -0.125 C 14.203125 0.257812 12.914062 0.460938 11.5625 0.484375 C 10.207031 0.484375 8.914062 0.296875 7.6875 -0.078125 C 6.457031 -0.453125 5.363281 -1.015625 4.40625 -1.765625 C 2.976562 -2.847656 2 -4.15625 1.46875 -5.6875 L 6.734375 -8.140625 C 6.734375 -7.878906 6.820312 -7.5625 7 -7.1875 C 7.175781 -6.8125 7.453125 -6.445312 7.828125 -6.09375 C 8.203125 -5.75 8.691406 -5.445312 9.296875 -5.1875 C 9.898438 -4.9375 10.640625 -4.8125 11.515625 -4.8125 C 12.222656 -4.8125 12.847656 -4.898438 13.390625 -5.078125 C 13.929688 -5.253906 14.378906 -5.472656 14.734375 -5.734375 C 15.097656 -6.003906 15.375 -6.304688 15.5625 -6.640625 C 15.757812 -6.984375 15.859375 -7.332031 15.859375 -7.6875 C 15.859375 -8.082031 15.722656 -8.457031 15.453125 -8.8125 C 15.191406 -9.164062 14.785156 -9.441406 14.234375 -9.640625 C 13.234375 -9.992188 12.171875 -10.285156 11.046875 -10.515625 C 9.929688 -10.753906 8.847656 -11.054688 7.796875 -11.421875 C 6.742188 -11.785156 5.765625 -12.269531 4.859375 -12.875 C 3.953125 -13.476562 3.238281 -14.320312 2.71875 -15.40625 C 2.238281 -16.351562 2 -17.367188 2 -18.453125 C 2 -19.660156 2.28125 -20.828125 2.84375 -21.953125 C 3.40625 -23.078125 4.175781 -24.03125 5.15625 -24.8125 C 6.082031 -25.539062 7.125 -26.097656 8.28125 -26.484375 C 9.4375 -26.878906 10.65625 -27.078125 11.9375 -27.078125 C 13.21875 -27.078125 14.441406 -26.882812 15.609375 -26.5 C 16.773438 -26.125 17.820312 -25.578125 18.75 -24.859375 C 19.65625 -24.179688 20.375 -23.390625 20.90625 -22.484375 L 16.609375 -19.546875 C 16.078125 -20.273438 15.414062 -20.859375 14.625 -21.296875 C 13.832031 -21.734375 12.945312 -21.953125 11.96875 -21.953125 C 10.613281 -21.953125 9.566406 -21.648438 8.828125 -21.046875 C 8.085938 -20.441406 7.71875 -19.648438 7.71875 -18.671875 C 7.71875 -18.222656 7.925781 -17.820312 8.34375 -17.46875 C 8.757812 -17.125 9.296875 -16.8125 9.953125 -16.53125 C 10.617188 -16.25 11.363281 -16.003906 12.1875 -15.796875 C 13.019531 -15.585938 13.84375 -15.375 14.65625 -15.15625 C 15.476562 -14.945312 16.253906 -14.726562 16.984375 -14.5 C 17.710938 -14.269531 18.300781 -14.019531 18.75 -13.75 Z M 18.75 -13.75 "/></g></g></g><g fill="#d9d9d9" fill-opacity="1"><g transform="translate(91.549255, 299.322387)"><g><path d="M 2.34375 -2.53125 C 1.695312 -2.71875 1.226562 -2.945312 0.9375 -3.21875 C 0.644531 -3.488281 0.5 -3.820312 0.5 -4.21875 C 0.5 -4.664062 0.675781 -5.035156 1.03125 -5.328125 C 1.382812 -5.617188 1.847656 -5.765625 2.421875 -5.765625 C 2.816406 -5.765625 3.164062 -5.6875 3.46875 -5.53125 C 3.78125 -5.382812 4.019531 -5.175781 4.1875 -4.90625 C 4.351562 -4.644531 4.4375 -4.359375 4.4375 -4.046875 L 3.6875 -4.046875 C 3.6875 -4.390625 3.578125 -4.660156 3.359375 -4.859375 C 3.140625 -5.054688 2.828125 -5.15625 2.421875 -5.15625 C 2.054688 -5.15625 1.769531 -5.070312 1.5625 -4.90625 C 1.351562 -4.738281 1.25 -4.515625 1.25 -4.234375 C 1.25 -3.992188 1.347656 -3.796875 1.546875 -3.640625 C 1.742188 -3.484375 2.078125 -3.335938 2.546875 -3.203125 C 3.023438 -3.066406 3.394531 -2.914062 3.65625 -2.75 C 3.925781 -2.59375 4.125 -2.40625 4.25 -2.1875 C 4.382812 -1.976562 4.453125 -1.734375 4.453125 -1.453125 C 4.453125 -0.984375 4.269531 -0.609375 3.90625 -0.328125 C 3.550781 -0.0546875 3.070312 0.078125 2.46875 0.078125 C 2.070312 0.078125 1.703125 0.00390625 1.359375 -0.140625 C 1.023438 -0.296875 0.765625 -0.503906 0.578125 -0.765625 C 0.398438 -1.023438 0.3125 -1.320312 0.3125 -1.65625 L 1.0625 -1.65625 C 1.0625 -1.3125 1.1875 -1.035156 1.4375 -0.828125 C 1.695312 -0.628906 2.039062 -0.53125 2.46875 -0.53125 C 2.863281 -0.53125 3.164062 -0.609375 3.375 -0.765625 C 3.582031 -0.929688 3.6875 -1.15625 3.6875 -1.4375 C 3.6875 -1.71875 3.585938 -1.929688 3.390625 -2.078125 C 3.203125 -2.234375 2.851562 -2.382812 2.34375 -2.53125 Z M 2.34375 -2.53125 "/></g></g></g><g fill="#d9d9d9" fill-opacity="1"><g transform="translate(102.695377, 299.322387)"><g><path d="M 1.40625 -2.234375 L 1.40625 0 L 0.65625 0 L 0.65625 -5.6875 L 2.765625 -5.6875 C 3.378906 -5.6875 3.863281 -5.523438 4.21875 -5.203125 C 4.570312 -4.890625 4.75 -4.472656 4.75 -3.953125 C 4.75 -3.398438 4.578125 -2.972656 4.234375 -2.671875 C 3.890625 -2.378906 3.394531 -2.234375 2.75 -2.234375 Z M 1.40625 -2.84375 L 2.765625 -2.84375 C 3.160156 -2.84375 3.460938 -2.9375 3.671875 -3.125 C 3.890625 -3.3125 4 -3.582031 4 -3.9375 C 4 -4.28125 3.890625 -4.550781 3.671875 -4.75 C 3.460938 -4.957031 3.171875 -5.066406 2.796875 -5.078125 L 1.40625 -5.078125 Z M 1.40625 -2.84375 "/></g></g></g><g fill="#d9d9d9" fill-opacity="1"><g transform="translate(114.14228, 299.322387)"><g><path d="M 5.03125 -2.65625 C 5.03125 -2.101562 4.9375 -1.617188 4.75 -1.203125 C 4.5625 -0.785156 4.296875 -0.46875 3.953125 -0.25 C 3.609375 -0.03125 3.207031 0.078125 2.75 0.078125 C 2.300781 0.078125 1.90625 -0.03125 1.5625 -0.25 C 1.21875 -0.46875 0.945312 -0.78125 0.75 -1.1875 C 0.5625 -1.601562 0.46875 -2.078125 0.46875 -2.609375 L 0.46875 -3.015625 C 0.46875 -3.566406 0.5625 -4.050781 0.75 -4.46875 C 0.9375 -4.882812 1.203125 -5.203125 1.546875 -5.421875 C 1.898438 -5.648438 2.300781 -5.765625 2.75 -5.765625 C 3.207031 -5.765625 3.609375 -5.65625 3.953125 -5.4375 C 4.296875 -5.21875 4.5625 -4.898438 4.75 -4.484375 C 4.9375 -4.066406 5.03125 -3.578125 5.03125 -3.015625 Z M 4.296875 -3.03125 C 4.296875 -3.707031 4.160156 -4.222656 3.890625 -4.578125 C 3.617188 -4.941406 3.238281 -5.125 2.75 -5.125 C 2.269531 -5.125 1.894531 -4.941406 1.625 -4.578125 C 1.351562 -4.222656 1.210938 -3.722656 1.203125 -3.078125 L 1.203125 -2.65625 C 1.203125 -2.007812 1.335938 -1.5 1.609375 -1.125 C 1.890625 -0.75 2.269531 -0.5625 2.75 -0.5625 C 3.238281 -0.5625 3.613281 -0.738281 3.875 -1.09375 C 4.144531 -1.445312 4.285156 -1.953125 4.296875 -2.609375 Z M 4.296875 -3.03125 "/></g></g></g><g fill="#d9d9d9" fill-opacity="1"><g transform="translate(126.042309, 299.322387)"><g><path d="M 2.75 -2.296875 L 1.40625 -2.296875 L 1.40625 0 L 0.65625 0 L 0.65625 -5.6875 L 2.546875 -5.6875 C 3.179688 -5.6875 3.671875 -5.539062 4.015625 -5.25 C 4.359375 -4.957031 4.53125 -4.535156 4.53125 -3.984375 C 4.53125 -3.628906 4.4375 -3.316406 4.25 -3.046875 C 4.0625 -2.785156 3.796875 -2.59375 3.453125 -2.46875 L 4.78125 -0.046875 L 4.78125 0 L 3.984375 0 Z M 1.40625 -2.921875 L 2.5625 -2.921875 C 2.9375 -2.921875 3.234375 -3.015625 3.453125 -3.203125 C 3.671875 -3.398438 3.78125 -3.660156 3.78125 -3.984375 C 3.78125 -4.328125 3.675781 -4.59375 3.46875 -4.78125 C 3.257812 -4.96875 2.957031 -5.066406 2.5625 -5.078125 L 1.40625 -5.078125 Z M 1.40625 -2.921875 "/></g></g></g><g fill="#d9d9d9" fill-opacity="1"><g transform="translate(137.368119, 299.322387)"><g><path d="M 4.59375 -5.078125 L 2.765625 -5.078125 L 2.765625 0 L 2.015625 0 L 2.015625 -5.078125 L 0.1875 -5.078125 L 0.1875 -5.6875 L 4.59375 -5.6875 Z M 4.59375 -5.078125 "/></g></g></g><g fill="#d9d9d9" fill-opacity="1"><g transform="translate(148.541584, 299.322387)"><g><path d="M 2.34375 -2.53125 C 1.695312 -2.71875 1.226562 -2.945312 0.9375 -3.21875 C 0.644531 -3.488281 0.5 -3.820312 0.5 -4.21875 C 0.5 -4.664062 0.675781 -5.035156 1.03125 -5.328125 C 1.382812 -5.617188 1.847656 -5.765625 2.421875 -5.765625 C 2.816406 -5.765625 3.164062 -5.6875 3.46875 -5.53125 C 3.78125 -5.382812 4.019531 -5.175781 4.1875 -4.90625 C 4.351562 -4.644531 4.4375 -4.359375 4.4375 -4.046875 L 3.6875 -4.046875 C 3.6875 -4.390625 3.578125 -4.660156 3.359375 -4.859375 C 3.140625 -5.054688 2.828125 -5.15625 2.421875 -5.15625 C 2.054688 -5.15625 1.769531 -5.070312 1.5625 -4.90625 C 1.351562 -4.738281 1.25 -4.515625 1.25 -4.234375 C 1.25 -3.992188 1.347656 -3.796875 1.546875 -3.640625 C 1.742188 -3.484375 2.078125 -3.335938 2.546875 -3.203125 C 3.023438 -3.066406 3.394531 -2.914062 3.65625 -2.75 C 3.925781 -2.59375 4.125 -2.40625 4.25 -2.1875 C 4.382812 -1.976562 4.453125 -1.734375 4.453125 -1.453125 C 4.453125 -0.984375 4.269531 -0.609375 3.90625 -0.328125 C 3.550781 -0.0546875 3.070312 0.078125 2.46875 0.078125 C 2.070312 0.078125 1.703125 0.00390625 1.359375 -0.140625 C 1.023438 -0.296875 0.765625 -0.503906 0.578125 -0.765625 C 0.398438 -1.023438 0.3125 -1.320312 0.3125 -1.65625 L 1.0625 -1.65625 C 1.0625 -1.3125 1.1875 -1.035156 1.4375 -0.828125 C 1.695312 -0.628906 2.039062 -0.53125 2.46875 -0.53125 C 2.863281 -0.53125 3.164062 -0.609375 3.375 -0.765625 C 3.582031 -0.929688 3.6875 -1.15625 3.6875 -1.4375 C 3.6875 -1.71875 3.585938 -1.929688 3.390625 -2.078125 C 3.203125 -2.234375 2.851562 -2.382812 2.34375 -2.53125 Z M 2.34375 -2.53125 "/></g></g></g><g fill="#d9d9d9" fill-opacity="1"><g transform="translate(159.687705, 299.322387)"><g/></g></g><g fill="#d9d9d9" fill-opacity="1"><g transform="translate(168.068193, 299.322387)"><g><path d="M 3.796875 -1.484375 L 1.421875 -1.484375 L 0.890625 0 L 0.109375 0 L 2.28125 -5.6875 L 2.9375 -5.6875 L 5.109375 0 L 4.34375 0 Z M 1.640625 -2.109375 L 3.578125 -2.109375 L 2.609375 -4.765625 Z M 1.640625 -2.109375 "/></g></g></g><g fill="#d9d9d9" fill-opacity="1"><g transform="translate(179.686971, 299.322387)"><g><path d="M 5.03125 0 L 4.28125 0 L 1.421875 -4.390625 L 1.421875 0 L 0.65625 0 L 0.65625 -5.6875 L 1.421875 -5.6875 L 4.28125 -1.28125 L 4.28125 -5.6875 L 5.03125 -5.6875 Z M 5.03125 0 "/></g></g></g><g fill="#d9d9d9" fill-opacity="1"><g transform="translate(191.790126, 299.322387)"><g><path d="M 0.65625 0 L 0.65625 -5.6875 L 2.265625 -5.6875 C 2.765625 -5.6875 3.203125 -5.578125 3.578125 -5.359375 C 3.960938 -5.140625 4.253906 -4.828125 4.453125 -4.421875 C 4.660156 -4.023438 4.769531 -3.5625 4.78125 -3.03125 L 4.78125 -2.671875 C 4.78125 -2.140625 4.675781 -1.671875 4.46875 -1.265625 C 4.257812 -0.859375 3.960938 -0.546875 3.578125 -0.328125 C 3.191406 -0.117188 2.742188 -0.0078125 2.234375 0 Z M 1.40625 -5.078125 L 1.40625 -0.609375 L 2.203125 -0.609375 C 2.773438 -0.609375 3.222656 -0.785156 3.546875 -1.140625 C 3.867188 -1.503906 4.03125 -2.019531 4.03125 -2.6875 L 4.03125 -3.015625 C 4.03125 -3.660156 3.878906 -4.160156 3.578125 -4.515625 C 3.273438 -4.878906 2.84375 -5.066406 2.28125 -5.078125 Z M 1.40625 -5.078125 "/></g></g></g><g fill="#d9d9d9" fill-opacity="1"><g transform="translate(203.436249, 299.322387)"><g/></g></g><g fill="#d9d9d9" fill-opacity="1"><g transform="translate(211.816737, 299.322387)"><g><path d="M 1.890625 -1.796875 L 2 -1.046875 L 2.15625 -1.71875 L 3.28125 -5.6875 L 3.921875 -5.6875 L 5.015625 -1.71875 L 5.171875 -1.03125 L 5.296875 -1.796875 L 6.171875 -5.6875 L 6.921875 -5.6875 L 5.546875 0 L 4.859375 0 L 3.6875 -4.140625 L 3.609375 -4.578125 L 3.515625 -4.140625 L 2.296875 0 L 1.609375 0 L 0.234375 -5.6875 L 0.984375 -5.6875 Z M 1.890625 -1.796875 "/></g></g></g><g fill="#d9d9d9" fill-opacity="1"><g transform="translate(225.314427, 299.322387)"><g><path d="M 3.875 -2.625 L 1.40625 -2.625 L 1.40625 -0.609375 L 4.28125 -0.609375 L 4.28125 0 L 0.65625 0 L 0.65625 -5.6875 L 4.234375 -5.6875 L 4.234375 -5.078125 L 1.40625 -5.078125 L 1.40625 -3.25 L 3.875 -3.25 Z M 3.875 -2.625 "/></g></g></g><g fill="#d9d9d9" fill-opacity="1"><g transform="translate(236.261329, 299.322387)"><g><path d="M 1.421875 -0.609375 L 4.109375 -0.609375 L 4.109375 0 L 0.65625 0 L 0.65625 -5.6875 L 1.421875 -5.6875 Z M 1.421875 -0.609375 "/></g></g></g><g fill="#d9d9d9" fill-opacity="1"><g transform="translate(246.966042, 299.322387)"><g><path d="M 1.421875 -0.609375 L 4.109375 -0.609375 L 4.109375 0 L 0.65625 0 L 0.65625 -5.6875 L 1.421875 -5.6875 Z M 1.421875 -0.609375 "/></g></g></g><g fill="#d9d9d9" fill-opacity="1"><g transform="translate(257.670756, 299.322387)"><g><path d="M 5.03125 0 L 4.28125 0 L 1.421875 -4.390625 L 1.421875 0 L 0.65625 0 L 0.65625 -5.6875 L 1.421875 -5.6875 L 4.28125 -1.28125 L 4.28125 -5.6875 L 5.03125 -5.6875 Z M 5.03125 0 "/></g></g></g><g fill="#d9d9d9" fill-opacity="1"><g transform="translate(269.773911, 299.322387)"><g><path d="M 3.875 -2.625 L 1.40625 -2.625 L 1.40625 -0.609375 L 4.28125 -0.609375 L 4.28125 0 L 0.65625 0 L 0.65625 -5.6875 L 4.234375 -5.6875 L 4.234375 -5.078125 L 1.40625 -5.078125 L 1.40625 -3.25 L 3.875 -3.25 Z M 3.875 -2.625 "/></g></g></g><g fill="#d9d9d9" fill-opacity="1"><g transform="translate(280.720802, 299.322387)"><g><path d="M 2.34375 -2.53125 C 1.695312 -2.71875 1.226562 -2.945312 0.9375 -3.21875 C 0.644531 -3.488281 0.5 -3.820312 0.5 -4.21875 C 0.5 -4.664062 0.675781 -5.035156 1.03125 -5.328125 C 1.382812 -5.617188 1.847656 -5.765625 2.421875 -5.765625 C 2.816406 -5.765625 3.164062 -5.6875 3.46875 -5.53125 C 3.78125 -5.382812 4.019531 -5.175781 4.1875 -4.90625 C 4.351562 -4.644531 4.4375 -4.359375 4.4375 -4.046875 L 3.6875 -4.046875 C 3.6875 -4.390625 3.578125 -4.660156 3.359375 -4.859375 C 3.140625 -5.054688 2.828125 -5.15625 2.421875 -5.15625 C 2.054688 -5.15625 1.769531 -5.070312 1.5625 -4.90625 C 1.351562 -4.738281 1.25 -4.515625 1.25 -4.234375 C 1.25 -3.992188 1.347656 -3.796875 1.546875 -3.640625 C 1.742188 -3.484375 2.078125 -3.335938 2.546875 -3.203125 C 3.023438 -3.066406 3.394531 -2.914062 3.65625 -2.75 C 3.925781 -2.59375 4.125 -2.40625 4.25 -2.1875 C 4.382812 -1.976562 4.453125 -1.734375 4.453125 -1.453125 C 4.453125 -0.984375 4.269531 -0.609375 3.90625 -0.328125 C 3.550781 -0.0546875 3.070312 0.078125 2.46875 0.078125 C 2.070312 0.078125 1.703125 0.00390625 1.359375 -0.140625 C 1.023438 -0.296875 0.765625 -0.503906 0.578125 -0.765625 C 0.398438 -1.023438 0.3125 -1.320312 0.3125 -1.65625 L 1.0625 -1.65625 C 1.0625 -1.3125 1.1875 -1.035156 1.4375 -0.828125 C 1.695312 -0.628906 2.039062 -0.53125 2.46875 -0.53125 C 2.863281 -0.53125 3.164062 -0.609375 3.375 -0.765625 C 3.582031 -0.929688 3.6875 -1.15625 3.6875 -1.4375 C 3.6875 -1.71875 3.585938 -1.929688 3.390625 -2.078125 C 3.203125 -2.234375 2.851562 -2.382812 2.34375 -2.53125 Z M 2.34375 -2.53125 "/></g></g></g><g fill="#d9d9d9" fill-opacity="1"><g transform="translate(291.866934, 299.322387)"><g><path d="M 2.34375 -2.53125 C 1.695312 -2.71875 1.226562 -2.945312 0.9375 -3.21875 C 0.644531 -3.488281 0.5 -3.820312 0.5 -4.21875 C 0.5 -4.664062 0.675781 -5.035156 1.03125 -5.328125 C 1.382812 -5.617188 1.847656 -5.765625 2.421875 -5.765625 C 2.816406 -5.765625 3.164062 -5.6875 3.46875 -5.53125 C 3.78125 -5.382812 4.019531 -5.175781 4.1875 -4.90625 C 4.351562 -4.644531 4.4375 -4.359375 4.4375 -4.046875 L 3.6875 -4.046875 C 3.6875 -4.390625 3.578125 -4.660156 3.359375 -4.859375 C 3.140625 -5.054688 2.828125 -5.15625 2.421875 -5.15625 C 2.054688 -5.15625 1.769531 -5.070312 1.5625 -4.90625 C 1.351562 -4.738281 1.25 -4.515625 1.25 -4.234375 C 1.25 -3.992188 1.347656 -3.796875 1.546875 -3.640625 C 1.742188 -3.484375 2.078125 -3.335938 2.546875 -3.203125 C 3.023438 -3.066406 3.394531 -2.914062 3.65625 -2.75 C 3.925781 -2.59375 4.125 -2.40625 4.25 -2.1875 C 4.382812 -1.976562 4.453125 -1.734375 4.453125 -1.453125 C 4.453125 -0.984375 4.269531 -0.609375 3.90625 -0.328125 C 3.550781 -0.0546875 3.070312 0.078125 2.46875 0.078125 C 2.070312 0.078125 1.703125 0.00390625 1.359375 -0.140625 C 1.023438 -0.296875 0.765625 -0.503906 0.578125 -0.765625 C 0.398438 -1.023438 0.3125 -1.320312 0.3125 -1.65625 L 1.0625 -1.65625 C 1.0625 -1.3125 1.1875 -1.035156 1.4375 -0.828125 C 1.695312 -0.628906 2.039062 -0.53125 2.46875 -0.53125 C 2.863281 -0.53125 3.164062 -0.609375 3.375 -0.765625 C 3.582031 -0.929688 3.6875 -1.15625 3.6875 -1.4375 C 3.6875 -1.71875 3.585938 -1.929688 3.390625 -2.078125 C 3.203125 -2.234375 2.851562 -2.382812 2.34375 -2.53125 Z M 2.34375 -2.53125 "/></g></g></g></svg>