<svg xmlns="http://www.w3.org/2000/svg" xmlns:xlink="http://www.w3.org/1999/xlink" width="500" zoomAndPan="magnify" viewBox="0 0 375 374.999991" height="500" preserveAspectRatio="xMidYMid meet" version="1.0"><defs><g/><clipPath id="616fc806cb"><path d="M 144 106.121094 L 231 106.121094 L 231 204 L 144 204 Z M 144 106.121094 " clip-rule="nonzero"/></clipPath><clipPath id="441122a704"><path d="M 169 209 L 206 209 L 206 212.578125 L 169 212.578125 Z M 169 209 " clip-rule="nonzero"/></clipPath><clipPath id="a557081de4"><path d="M 118.308594 201 L 257 201 L 257 205 L 118.308594 205 Z M 118.308594 201 " clip-rule="nonzero"/></clipPath></defs><rect x="-37.5" width="450" fill="#ffffff" y="-37.499999" height="449.999989" fill-opacity="1"/><rect x="-37.5" width="450" fill="#000000" y="-37.499999" height="449.999989" fill-opacity="1"/><g clip-path="url(#616fc806cb)"><path fill="#ffffff" d="M 197.617188 150.523438 C 197.617188 150.523438 199.324219 152.886719 202.796875 152.945312 C 202.796875 152.945312 202.675781 154 202.90625 154.324219 C 203.136719 154.648438 203.648438 155.246094 203.554688 155.621094 C 203.460938 155.996094 203.546875 156.410156 203.613281 156.570312 C 203.683594 156.734375 203.199219 157.03125 203.261719 157.570312 C 203.328125 158.105469 203.035156 158.625 202.765625 158.816406 C 202.496094 159.011719 201.953125 159.363281 201.871094 160.113281 C 201.792969 160.863281 201.910156 161.652344 201.472656 162.273438 C 201.035156 162.894531 200.507812 163.460938 200.503906 163.964844 C 200.496094 164.464844 199.980469 164.402344 199.277344 164.84375 C 198.574219 165.28125 193.582031 169.574219 191.15625 172.089844 C 188.726562 174.601562 184.816406 178.171875 183.988281 178.59375 C 183.160156 179.015625 180.214844 180.054688 180.214844 180.054688 C 180.214844 180.054688 183.582031 176.65625 185.644531 174.78125 C 187.707031 172.910156 192.816406 167.523438 193.882812 165.355469 C 194.945312 163.183594 196.628906 157.007812 196.636719 156.3125 C 196.644531 155.613281 197.6875 152.097656 197.617188 150.523438 M 162.585938 110.945312 C 162.585938 110.945312 162.855469 110.804688 163.527344 111.003906 C 164.195312 111.199219 164.769531 111.0625 165.328125 110.800781 C 165.886719 110.539062 166.035156 109.839844 166.609375 109.9375 C 167.179688 110.035156 172.023438 112.113281 177.574219 115.148438 C 183.125 118.1875 184.324219 118.144531 185.566406 119.164062 C 186.808594 120.179688 188.972656 121.726562 191.59375 122.5625 C 194.214844 123.398438 195.957031 124.476562 196.835938 125.84375 C 197.714844 127.214844 199.515625 129.546875 199.765625 129.65625 C 199.765625 129.65625 199.28125 129.542969 199.046875 129.792969 C 198.8125 130.039062 198.578125 130.214844 198.238281 130.015625 C 197.902344 129.816406 197.242188 129.429688 196.644531 128.582031 C 196.046875 127.734375 194.773438 126.269531 194.167969 125.832031 C 193.566406 125.394531 192.847656 124.027344 191.671875 123.796875 C 190.492188 123.570312 190.027344 123.3125 188.761719 122.796875 C 187.5 122.28125 186.773438 121.484375 185.269531 121.46875 C 183.765625 121.449219 181.269531 122.351562 179.277344 125.695312 C 177.285156 129.035156 179.59375 134.003906 182.082031 135.359375 C 184.574219 136.710938 186.667969 136.84375 188.117188 136.71875 C 189.570312 136.589844 190.636719 135.65625 190.636719 135.65625 C 190.636719 135.65625 194.015625 136.195312 194.6875 136.597656 C 194.6875 136.597656 194.171875 139.402344 192.78125 140.351562 C 191.394531 141.304688 189.265625 142.726562 189.363281 146.578125 C 189.460938 150.429688 190.695312 153.503906 190.382812 155.789062 C 190.070312 158.078125 189.816406 161.332031 189.339844 162.257812 C 188.867188 163.183594 186.855469 165.21875 185.777344 167.105469 C 184.699219 168.988281 182.410156 172.589844 180.792969 174.609375 C 179.175781 176.632812 177.269531 179.007812 176.710938 179.394531 C 176.152344 179.78125 173.878906 181.117188 173.375 181.523438 C 172.867188 181.929688 169.425781 184.035156 169.117188 184.300781 C 168.808594 184.566406 169 184.996094 169 184.996094 L 171.015625 184.269531 C 171.015625 184.269531 166.980469 186.335938 166.226562 186.613281 C 165.472656 186.890625 162.710938 188.683594 162.707031 189.023438 C 162.703125 189.363281 163.152344 190.835938 163.746094 192.0625 C 163.746094 192.0625 162.742188 190.511719 162.503906 189.648438 C 162.503906 189.648438 157.460938 192.347656 156.25 193.066406 C 155.042969 193.785156 151.726562 195.644531 150.804688 196.546875 C 149.882812 197.449219 148.59375 198.867188 147.871094 199.289062 C 147.152344 199.710938 144.101562 201.910156 144.277344 202.183594 C 144.453125 202.453125 144.808594 202.597656 144.808594 202.597656 C 144.808594 202.597656 144.75 202.957031 145.070312 203.066406 C 145.070312 203.066406 145.621094 203.574219 146.214844 203.386719 C 146.214844 203.386719 146.851562 204 147.839844 203.53125 C 147.839844 203.53125 148.699219 203.773438 149.808594 203.570312 C 150.921875 203.371094 150.710938 203.042969 151.175781 202.941406 C 151.644531 202.839844 152.417969 202.457031 152.550781 202.027344 C 152.679688 201.597656 152.832031 200.867188 153.625 200.394531 C 154.417969 199.917969 155.242188 199.75 155.816406 198.179688 C 155.816406 198.179688 156.886719 196.886719 159.171875 195.875 C 161.457031 194.863281 164.976562 193.992188 164.976562 193.992188 C 164.976562 193.992188 165.757812 194.664062 165.898438 194.609375 C 166.042969 194.558594 168.136719 193.167969 170.019531 192.832031 C 171.902344 192.496094 175.246094 191.496094 177.351562 190.554688 C 179.453125 189.613281 180.988281 188.558594 182.890625 188.257812 C 184.792969 187.957031 186.800781 187.570312 190.367188 185.800781 C 193.929688 184.035156 196.746094 182.117188 201.941406 180.246094 C 207.136719 178.371094 207.988281 177.628906 208.851562 177.191406 C 209.714844 176.753906 211.292969 176.414062 212.273438 176.855469 C 213.253906 177.296875 214.777344 178.621094 215.394531 180.902344 C 216.011719 183.183594 218.152344 188.488281 218.351562 189.996094 C 218.546875 191.5 219.285156 198.957031 220.449219 200.367188 C 221.613281 201.777344 223.714844 202.855469 225.289062 203.035156 C 226.863281 203.214844 229.335938 201.367188 230.222656 198.996094 C 231.109375 196.625 230.636719 194.238281 230.199219 193.085938 C 229.765625 191.9375 229.601562 190.878906 229.484375 190.035156 C 229.367188 189.191406 230.296875 177.390625 228.1875 170.882812 C 228.1875 170.882812 228.734375 169.976562 228.617188 169.285156 C 228.5 168.597656 227.675781 168.03125 227.476562 167.382812 C 227.277344 166.738281 227.066406 165.5625 227.066406 165.5625 C 227.066406 165.5625 226.691406 156.179688 222.160156 145.957031 C 217.621094 135.738281 213.953125 131.039062 211.332031 128.71875 C 208.710938 126.394531 206.8125 123.257812 204.289062 121.867188 C 201.761719 120.480469 191.179688 115.878906 188.613281 114.992188 C 186.046875 114.101562 185.078125 112.765625 181.941406 111.582031 C 178.804688 110.402344 173.257812 108.761719 171.722656 108.152344 C 170.191406 107.542969 168.175781 106.75 167.605469 106.707031 C 167.03125 106.664062 160.214844 106.550781 158.925781 106.429688 C 157.640625 106.304688 156.4375 106.308594 155.832031 106.390625 C 155.222656 106.476562 153.238281 106.074219 153.09375 106.144531 C 152.949219 106.214844 152.511719 106.800781 152.707031 106.945312 C 152.902344 107.089844 154.457031 107.359375 155.382812 107.746094 C 156.3125 108.132812 157.648438 108.652344 159.042969 108.808594 C 160.4375 108.96875 161.664062 109.429688 161.808594 109.558594 C 161.949219 109.6875 160.816406 110.191406 160.8125 110.566406 C 160.808594 110.941406 160.648438 112.410156 162.585938 110.945312 Z M 162.585938 110.945312 " fill-opacity="1" fill-rule="evenodd"/></g><path fill="#ffffff" d="M 163.714844 205.738281 L 211.28125 205.738281 C 220.398438 205.738281 227.851562 206.308594 227.851562 207.003906 C 227.851562 207.699219 220.398438 208.265625 211.28125 208.265625 L 163.714844 208.265625 C 154.59375 208.265625 147.140625 207.699219 147.140625 207.003906 C 147.140625 206.308594 154.59375 205.738281 163.714844 205.738281 " fill-opacity="1" fill-rule="evenodd"/><g clip-path="url(#441122a704)"><path fill="#ffffff" d="M 185.695312 209.804688 L 189.296875 209.804688 C 198.417969 209.804688 205.875 210.375 205.875 211.070312 C 205.875 211.765625 198.417969 212.332031 189.296875 212.332031 L 185.695312 212.332031 C 176.578125 212.332031 169.121094 211.765625 169.121094 211.070312 C 169.121094 210.375 176.578125 209.804688 185.695312 209.804688 " fill-opacity="1" fill-rule="evenodd"/></g><g clip-path="url(#a557081de4)"><path fill="#ffffff" d="M 134.886719 201.675781 L 240.109375 201.675781 C 249.230469 201.675781 256.683594 202.242188 256.683594 202.9375 C 256.683594 203.632812 249.230469 204.199219 240.109375 204.199219 L 134.886719 204.199219 C 125.765625 204.203125 118.308594 203.632812 118.308594 202.9375 C 118.308594 202.242188 125.765625 201.675781 134.886719 201.675781 " fill-opacity="1" fill-rule="evenodd"/></g><g fill="#ffffff" fill-opacity="1"><g transform="translate(35.98213, 249.543104)"><g><path d="M 11.5 -12.4375 L 22.546875 0 L 16.515625 0 L 8.40625 -9.34375 L 6.4375 -7.328125 L 6.4375 0 L 1.515625 0 L 1.515625 -22.90625 L 6.4375 -22.90625 L 6.4375 -13.640625 L 15.640625 -22.90625 L 21.90625 -22.90625 Z M 11.5 -12.4375 "/></g></g></g><g fill="#ffffff" fill-opacity="1"><g transform="translate(59.955235, 249.543104)"><g><path d="M 18 -16.09375 C 18 -15.363281 17.894531 -14.664062 17.6875 -14 C 17.488281 -13.34375 17.203125 -12.738281 16.828125 -12.1875 C 16.460938 -11.644531 16.019531 -11.160156 15.5 -10.734375 C 14.988281 -10.316406 14.429688 -9.976562 13.828125 -9.71875 L 21.421875 0 L 15.703125 0 L 8.625 -9.234375 L 6.4375 -9.234375 L 6.4375 0 L 1.515625 0 L 1.515625 -22.90625 L 11.40625 -22.90625 C 12.3125 -22.90625 13.164062 -22.726562 13.96875 -22.375 C 14.78125 -22.019531 15.484375 -21.535156 16.078125 -20.921875 C 16.671875 -20.304688 17.140625 -19.582031 17.484375 -18.75 C 17.828125 -17.925781 18 -17.039062 18 -16.09375 Z M 10.796875 -13.703125 C 11.421875 -13.703125 11.957031 -13.929688 12.40625 -14.390625 C 12.863281 -14.859375 13.09375 -15.425781 13.09375 -16.09375 C 13.09375 -16.738281 12.863281 -17.289062 12.40625 -17.75 C 11.957031 -18.21875 11.421875 -18.453125 10.796875 -18.453125 L 6.4375 -18.453125 L 6.4375 -13.703125 Z M 10.796875 -13.703125 "/></g></g></g><g fill="#ffffff" fill-opacity="1"><g transform="translate(83.120628, 249.543104)"><g><path d="M 9.859375 -22.90625 L 9.859375 -18.78125 L 8.140625 -18.78125 L 8.140625 -4.109375 L 9.859375 -4.109375 L 9.859375 0 L 1.515625 0 L 1.515625 -4.109375 L 3.234375 -4.109375 L 3.234375 -18.78125 L 1.515625 -18.78125 L 1.515625 -22.90625 Z M 9.859375 -22.90625 "/></g></g></g><g fill="#ffffff" fill-opacity="1"><g transform="translate(95.430316, 249.543104)"><g><path d="M 16.09375 -11.796875 C 17 -11.253906 17.6875 -10.5625 18.15625 -9.71875 C 18.632812 -8.882812 18.875 -7.914062 18.875 -6.8125 C 18.875 -5.78125 18.625 -4.816406 18.125 -3.921875 C 17.632812 -3.023438 16.9375 -2.234375 16.03125 -1.546875 C 15.207031 -0.921875 14.273438 -0.441406 13.234375 -0.109375 C 12.191406 0.222656 11.085938 0.398438 9.921875 0.421875 C 8.753906 0.421875 7.644531 0.257812 6.59375 -0.0625 C 5.539062 -0.382812 4.601562 -0.867188 3.78125 -1.515625 C 2.550781 -2.441406 1.710938 -3.5625 1.265625 -4.875 L 5.78125 -6.984375 C 5.78125 -6.765625 5.851562 -6.492188 6 -6.171875 C 6.15625 -5.847656 6.394531 -5.535156 6.71875 -5.234375 C 7.039062 -4.929688 7.457031 -4.671875 7.96875 -4.453125 C 8.488281 -4.242188 9.128906 -4.140625 9.890625 -4.140625 C 10.492188 -4.140625 11.023438 -4.210938 11.484375 -4.359375 C 11.953125 -4.515625 12.34375 -4.703125 12.65625 -4.921875 C 12.96875 -5.148438 13.203125 -5.410156 13.359375 -5.703125 C 13.523438 -5.992188 13.609375 -6.289062 13.609375 -6.59375 C 13.609375 -6.9375 13.492188 -7.257812 13.265625 -7.5625 C 13.035156 -7.863281 12.6875 -8.097656 12.21875 -8.265625 C 11.351562 -8.566406 10.441406 -8.820312 9.484375 -9.03125 C 8.523438 -9.238281 7.59375 -9.5 6.6875 -9.8125 C 5.78125 -10.125 4.9375 -10.535156 4.15625 -11.046875 C 3.382812 -11.566406 2.773438 -12.289062 2.328125 -13.21875 C 1.921875 -14.03125 1.71875 -14.898438 1.71875 -15.828125 C 1.71875 -16.867188 1.957031 -17.875 2.4375 -18.84375 C 2.925781 -19.8125 3.585938 -20.628906 4.421875 -21.296875 C 5.222656 -21.921875 6.117188 -22.398438 7.109375 -22.734375 C 8.097656 -23.066406 9.144531 -23.234375 10.25 -23.234375 C 11.34375 -23.234375 12.390625 -23.070312 13.390625 -22.75 C 14.390625 -22.425781 15.289062 -21.953125 16.09375 -21.328125 C 16.863281 -20.742188 17.476562 -20.066406 17.9375 -19.296875 L 14.25 -16.765625 C 13.800781 -17.390625 13.234375 -17.890625 12.546875 -18.265625 C 11.867188 -18.648438 11.113281 -18.84375 10.28125 -18.84375 C 9.113281 -18.84375 8.210938 -18.582031 7.578125 -18.0625 C 6.941406 -17.539062 6.625 -16.863281 6.625 -16.03125 C 6.625 -15.644531 6.800781 -15.300781 7.15625 -15 C 7.507812 -14.695312 7.972656 -14.425781 8.546875 -14.1875 C 9.117188 -13.945312 9.757812 -13.734375 10.46875 -13.546875 C 11.175781 -13.367188 11.878906 -13.1875 12.578125 -13 C 13.285156 -12.820312 13.953125 -12.632812 14.578125 -12.4375 C 15.203125 -12.25 15.707031 -12.035156 16.09375 -11.796875 Z M 16.09375 -11.796875 "/></g></g></g><g fill="#ffffff" fill-opacity="1"><g transform="translate(116.301797, 249.543104)"><g><path d="M 16.90625 -22.90625 L 21.8125 -22.90625 L 21.8125 0 L 16.90625 0 L 16.90625 -9.859375 L 6.390625 -9.859375 L 6.390625 0 L 1.515625 0 L 1.515625 -22.90625 L 6.390625 -22.90625 L 6.390625 -14.3125 L 16.90625 -14.3125 Z M 16.90625 -22.90625 "/></g></g></g><g fill="#ffffff" fill-opacity="1"><g transform="translate(140.597992, 249.543104)"><g><path d="M 15.609375 -22.90625 L 25.171875 0 L 19.875 0 L 17.796875 -4.90625 L 8.078125 -4.90625 L 6.046875 0 L 0.703125 0 L 10.28125 -22.90625 Z M 15.96875 -9.375 L 12.953125 -16.578125 L 9.953125 -9.375 Z M 15.96875 -9.375 "/></g></g></g><g fill="#ffffff" fill-opacity="1"><g transform="translate(167.446573, 249.543104)"><g><path d="M 6.4375 -4.421875 L 15.828125 -4.421875 L 15.828125 0 L 1.515625 0 L 1.515625 -22.90625 L 6.4375 -22.90625 Z M 6.4375 -4.421875 "/></g></g></g><g fill="#ffffff" fill-opacity="1"><g transform="translate(184.570252, 249.543104)"><g><path d="M 9.859375 -22.90625 L 9.859375 -18.78125 L 8.140625 -18.78125 L 8.140625 -4.109375 L 9.859375 -4.109375 L 9.859375 0 L 1.515625 0 L 1.515625 -4.109375 L 3.234375 -4.109375 L 3.234375 -18.78125 L 1.515625 -18.78125 L 1.515625 -22.90625 Z M 9.859375 -22.90625 "/></g></g></g><g fill="#ffffff" fill-opacity="1"><g transform="translate(196.87994, 249.543104)"><g/></g></g><g fill="#ffffff" fill-opacity="1"><g transform="translate(206.734172, 249.543104)"><g><path d="M 1.515625 -22.90625 L 15.828125 -22.90625 L 15.828125 -18.453125 L 6.4375 -18.453125 L 6.4375 -14.3125 L 14.703125 -14.3125 L 14.703125 -9.859375 L 6.4375 -9.859375 L 6.4375 0 L 1.515625 0 Z M 1.515625 -22.90625 "/></g></g></g><g fill="#ffffff" fill-opacity="1"><g transform="translate(223.954771, 249.543104)"><g><path d="M 9.859375 -22.90625 L 9.859375 -18.78125 L 8.140625 -18.78125 L 8.140625 -4.109375 L 9.859375 -4.109375 L 9.859375 0 L 1.515625 0 L 1.515625 -4.109375 L 3.234375 -4.109375 L 3.234375 -18.78125 L 1.515625 -18.78125 L 1.515625 -22.90625 Z M 9.859375 -22.90625 "/></g></g></g><g fill="#ffffff" fill-opacity="1"><g transform="translate(236.264458, 249.543104)"><g><path d="M 0.75 -22.90625 L 17.3125 -22.90625 L 17.3125 -18.453125 L 11.46875 -18.453125 L 11.46875 0 L 6.59375 0 L 6.59375 -18.453125 L 0.75 -18.453125 Z M 0.75 -22.90625 "/></g></g></g><g fill="#ffffff" fill-opacity="1"><g transform="translate(255.294356, 249.543104)"><g><path d="M 17.1875 -22.90625 L 22.0625 -22.90625 L 22.0625 0 L 17.421875 0 L 6.390625 -14.953125 L 6.390625 0 L 1.515625 0 L 1.515625 -22.90625 L 6.109375 -22.90625 L 17.1875 -7.859375 Z M 17.1875 -22.90625 "/></g></g></g><g fill="#ffffff" fill-opacity="1"><g transform="translate(279.849004, 249.543104)"><g><path d="M 1.546875 -22.90625 L 15.859375 -22.90625 L 15.859375 -18.453125 L 6.46875 -18.453125 L 6.46875 -14.3125 L 14.734375 -14.3125 L 14.734375 -9.859375 L 6.46875 -9.859375 L 6.46875 -4.421875 L 15.859375 -4.421875 L 15.859375 0 L 1.546875 0 Z M 1.546875 -22.90625 "/></g></g></g><g fill="#ffffff" fill-opacity="1"><g transform="translate(298.232723, 249.543104)"><g><path d="M 16.09375 -11.796875 C 17 -11.253906 17.6875 -10.5625 18.15625 -9.71875 C 18.632812 -8.882812 18.875 -7.914062 18.875 -6.8125 C 18.875 -5.78125 18.625 -4.816406 18.125 -3.921875 C 17.632812 -3.023438 16.9375 -2.234375 16.03125 -1.546875 C 15.207031 -0.921875 14.273438 -0.441406 13.234375 -0.109375 C 12.191406 0.222656 11.085938 0.398438 9.921875 0.421875 C 8.753906 0.421875 7.644531 0.257812 6.59375 -0.0625 C 5.539062 -0.382812 4.601562 -0.867188 3.78125 -1.515625 C 2.550781 -2.441406 1.710938 -3.5625 1.265625 -4.875 L 5.78125 -6.984375 C 5.78125 -6.765625 5.851562 -6.492188 6 -6.171875 C 6.15625 -5.847656 6.394531 -5.535156 6.71875 -5.234375 C 7.039062 -4.929688 7.457031 -4.671875 7.96875 -4.453125 C 8.488281 -4.242188 9.128906 -4.140625 9.890625 -4.140625 C 10.492188 -4.140625 11.023438 -4.210938 11.484375 -4.359375 C 11.953125 -4.515625 12.34375 -4.703125 12.65625 -4.921875 C 12.96875 -5.148438 13.203125 -5.410156 13.359375 -5.703125 C 13.523438 -5.992188 13.609375 -6.289062 13.609375 -6.59375 C 13.609375 -6.9375 13.492188 -7.257812 13.265625 -7.5625 C 13.035156 -7.863281 12.6875 -8.097656 12.21875 -8.265625 C 11.351562 -8.566406 10.441406 -8.820312 9.484375 -9.03125 C 8.523438 -9.238281 7.59375 -9.5 6.6875 -9.8125 C 5.78125 -10.125 4.9375 -10.535156 4.15625 -11.046875 C 3.382812 -11.566406 2.773438 -12.289062 2.328125 -13.21875 C 1.921875 -14.03125 1.71875 -14.898438 1.71875 -15.828125 C 1.71875 -16.867188 1.957031 -17.875 2.4375 -18.84375 C 2.925781 -19.8125 3.585938 -20.628906 4.421875 -21.296875 C 5.222656 -21.921875 6.117188 -22.398438 7.109375 -22.734375 C 8.097656 -23.066406 9.144531 -23.234375 10.25 -23.234375 C 11.34375 -23.234375 12.390625 -23.070312 13.390625 -22.75 C 14.390625 -22.425781 15.289062 -21.953125 16.09375 -21.328125 C 16.863281 -20.742188 17.476562 -20.066406 17.9375 -19.296875 L 14.25 -16.765625 C 13.800781 -17.390625 13.234375 -17.890625 12.546875 -18.265625 C 11.867188 -18.648438 11.113281 -18.84375 10.28125 -18.84375 C 9.113281 -18.84375 8.210938 -18.582031 7.578125 -18.0625 C 6.941406 -17.539062 6.625 -16.863281 6.625 -16.03125 C 6.625 -15.644531 6.800781 -15.300781 7.15625 -15 C 7.507812 -14.695312 7.972656 -14.425781 8.546875 -14.1875 C 9.117188 -13.945312 9.757812 -13.734375 10.46875 -13.546875 C 11.175781 -13.367188 11.878906 -13.1875 12.578125 -13 C 13.285156 -12.820312 13.953125 -12.632812 14.578125 -12.4375 C 15.203125 -12.25 15.707031 -12.035156 16.09375 -11.796875 Z M 16.09375 -11.796875 "/></g></g></g><g fill="#ffffff" fill-opacity="1"><g transform="translate(319.104204, 249.543104)"><g><path d="M 16.09375 -11.796875 C 17 -11.253906 17.6875 -10.5625 18.15625 -9.71875 C 18.632812 -8.882812 18.875 -7.914062 18.875 -6.8125 C 18.875 -5.78125 18.625 -4.816406 18.125 -3.921875 C 17.632812 -3.023438 16.9375 -2.234375 16.03125 -1.546875 C 15.207031 -0.921875 14.273438 -0.441406 13.234375 -0.109375 C 12.191406 0.222656 11.085938 0.398438 9.921875 0.421875 C 8.753906 0.421875 7.644531 0.257812 6.59375 -0.0625 C 5.539062 -0.382812 4.601562 -0.867188 3.78125 -1.515625 C 2.550781 -2.441406 1.710938 -3.5625 1.265625 -4.875 L 5.78125 -6.984375 C 5.78125 -6.765625 5.851562 -6.492188 6 -6.171875 C 6.15625 -5.847656 6.394531 -5.535156 6.71875 -5.234375 C 7.039062 -4.929688 7.457031 -4.671875 7.96875 -4.453125 C 8.488281 -4.242188 9.128906 -4.140625 9.890625 -4.140625 C 10.492188 -4.140625 11.023438 -4.210938 11.484375 -4.359375 C 11.953125 -4.515625 12.34375 -4.703125 12.65625 -4.921875 C 12.96875 -5.148438 13.203125 -5.410156 13.359375 -5.703125 C 13.523438 -5.992188 13.609375 -6.289062 13.609375 -6.59375 C 13.609375 -6.9375 13.492188 -7.257812 13.265625 -7.5625 C 13.035156 -7.863281 12.6875 -8.097656 12.21875 -8.265625 C 11.351562 -8.566406 10.441406 -8.820312 9.484375 -9.03125 C 8.523438 -9.238281 7.59375 -9.5 6.6875 -9.8125 C 5.78125 -10.125 4.9375 -10.535156 4.15625 -11.046875 C 3.382812 -11.566406 2.773438 -12.289062 2.328125 -13.21875 C 1.921875 -14.03125 1.71875 -14.898438 1.71875 -15.828125 C 1.71875 -16.867188 1.957031 -17.875 2.4375 -18.84375 C 2.925781 -19.8125 3.585938 -20.628906 4.421875 -21.296875 C 5.222656 -21.921875 6.117188 -22.398438 7.109375 -22.734375 C 8.097656 -23.066406 9.144531 -23.234375 10.25 -23.234375 C 11.34375 -23.234375 12.390625 -23.070312 13.390625 -22.75 C 14.390625 -22.425781 15.289062 -21.953125 16.09375 -21.328125 C 16.863281 -20.742188 17.476562 -20.066406 17.9375 -19.296875 L 14.25 -16.765625 C 13.800781 -17.390625 13.234375 -17.890625 12.546875 -18.265625 C 11.867188 -18.648438 11.113281 -18.84375 10.28125 -18.84375 C 9.113281 -18.84375 8.210938 -18.582031 7.578125 -18.0625 C 6.941406 -17.539062 6.625 -16.863281 6.625 -16.03125 C 6.625 -15.644531 6.800781 -15.300781 7.15625 -15 C 7.507812 -14.695312 7.972656 -14.425781 8.546875 -14.1875 C 9.117188 -13.945312 9.757812 -13.734375 10.46875 -13.546875 C 11.175781 -13.367188 11.878906 -13.1875 12.578125 -13 C 13.285156 -12.820312 13.953125 -12.632812 14.578125 -12.4375 C 15.203125 -12.25 15.707031 -12.035156 16.09375 -11.796875 Z M 16.09375 -11.796875 "/></g></g></g><g fill="#d9d9d9" fill-opacity="1"><g transform="translate(84.963509, 267.011893)"><g><path d="M 2.34375 -2.53125 C 1.695312 -2.71875 1.226562 -2.945312 0.9375 -3.21875 C 0.644531 -3.488281 0.5 -3.820312 0.5 -4.21875 C 0.5 -4.664062 0.675781 -5.035156 1.03125 -5.328125 C 1.382812 -5.617188 1.847656 -5.765625 2.421875 -5.765625 C 2.816406 -5.765625 3.164062 -5.6875 3.46875 -5.53125 C 3.78125 -5.382812 4.019531 -5.175781 4.1875 -4.90625 C 4.351562 -4.644531 4.4375 -4.359375 4.4375 -4.046875 L 3.6875 -4.046875 C 3.6875 -4.390625 3.578125 -4.660156 3.359375 -4.859375 C 3.140625 -5.054688 2.828125 -5.15625 2.421875 -5.15625 C 2.054688 -5.15625 1.769531 -5.070312 1.5625 -4.90625 C 1.351562 -4.738281 1.25 -4.515625 1.25 -4.234375 C 1.25 -3.992188 1.347656 -3.796875 1.546875 -3.640625 C 1.742188 -3.484375 2.078125 -3.335938 2.546875 -3.203125 C 3.023438 -3.066406 3.394531 -2.914062 3.65625 -2.75 C 3.925781 -2.59375 4.125 -2.40625 4.25 -2.1875 C 4.382812 -1.976562 4.453125 -1.734375 4.453125 -1.453125 C 4.453125 -0.984375 4.269531 -0.609375 3.90625 -0.328125 C 3.550781 -0.0546875 3.070312 0.078125 2.46875 0.078125 C 2.070312 0.078125 1.703125 0.00390625 1.359375 -0.140625 C 1.023438 -0.296875 0.765625 -0.503906 0.578125 -0.765625 C 0.398438 -1.023438 0.3125 -1.320312 0.3125 -1.65625 L 1.0625 -1.65625 C 1.0625 -1.3125 1.1875 -1.035156 1.4375 -0.828125 C 1.695312 -0.628906 2.039062 -0.53125 2.46875 -0.53125 C 2.863281 -0.53125 3.164062 -0.609375 3.375 -0.765625 C 3.582031 -0.929688 3.6875 -1.15625 3.6875 -1.4375 C 3.6875 -1.71875 3.585938 -1.929688 3.390625 -2.078125 C 3.203125 -2.234375 2.851562 -2.382812 2.34375 -2.53125 Z M 2.34375 -2.53125 "/></g></g></g><g fill="#d9d9d9" fill-opacity="1"><g transform="translate(96.109631, 267.011893)"><g><path d="M 1.40625 -2.234375 L 1.40625 0 L 0.65625 0 L 0.65625 -5.6875 L 2.765625 -5.6875 C 3.378906 -5.6875 3.863281 -5.523438 4.21875 -5.203125 C 4.570312 -4.890625 4.75 -4.472656 4.75 -3.953125 C 4.75 -3.398438 4.578125 -2.972656 4.234375 -2.671875 C 3.890625 -2.378906 3.394531 -2.234375 2.75 -2.234375 Z M 1.40625 -2.84375 L 2.765625 -2.84375 C 3.160156 -2.84375 3.460938 -2.9375 3.671875 -3.125 C 3.890625 -3.3125 4 -3.582031 4 -3.9375 C 4 -4.28125 3.890625 -4.550781 3.671875 -4.75 C 3.460938 -4.957031 3.171875 -5.066406 2.796875 -5.078125 L 1.40625 -5.078125 Z M 1.40625 -2.84375 "/></g></g></g><g fill="#d9d9d9" fill-opacity="1"><g transform="translate(107.556534, 267.011893)"><g><path d="M 5.03125 -2.65625 C 5.03125 -2.101562 4.9375 -1.617188 4.75 -1.203125 C 4.5625 -0.785156 4.296875 -0.46875 3.953125 -0.25 C 3.609375 -0.03125 3.207031 0.078125 2.75 0.078125 C 2.300781 0.078125 1.90625 -0.03125 1.5625 -0.25 C 1.21875 -0.46875 0.945312 -0.78125 0.75 -1.1875 C 0.5625 -1.601562 0.46875 -2.078125 0.46875 -2.609375 L 0.46875 -3.015625 C 0.46875 -3.566406 0.5625 -4.050781 0.75 -4.46875 C 0.9375 -4.882812 1.203125 -5.203125 1.546875 -5.421875 C 1.898438 -5.648438 2.300781 -5.765625 2.75 -5.765625 C 3.207031 -5.765625 3.609375 -5.65625 3.953125 -5.4375 C 4.296875 -5.21875 4.5625 -4.898438 4.75 -4.484375 C 4.9375 -4.066406 5.03125 -3.578125 5.03125 -3.015625 Z M 4.296875 -3.03125 C 4.296875 -3.707031 4.160156 -4.222656 3.890625 -4.578125 C 3.617188 -4.941406 3.238281 -5.125 2.75 -5.125 C 2.269531 -5.125 1.894531 -4.941406 1.625 -4.578125 C 1.351562 -4.222656 1.210938 -3.722656 1.203125 -3.078125 L 1.203125 -2.65625 C 1.203125 -2.007812 1.335938 -1.5 1.609375 -1.125 C 1.890625 -0.75 2.269531 -0.5625 2.75 -0.5625 C 3.238281 -0.5625 3.613281 -0.738281 3.875 -1.09375 C 4.144531 -1.445312 4.285156 -1.953125 4.296875 -2.609375 Z M 4.296875 -3.03125 "/></g></g></g><g fill="#d9d9d9" fill-opacity="1"><g transform="translate(119.456563, 267.011893)"><g><path d="M 2.75 -2.296875 L 1.40625 -2.296875 L 1.40625 0 L 0.65625 0 L 0.65625 -5.6875 L 2.546875 -5.6875 C 3.179688 -5.6875 3.671875 -5.539062 4.015625 -5.25 C 4.359375 -4.957031 4.53125 -4.535156 4.53125 -3.984375 C 4.53125 -3.628906 4.4375 -3.316406 4.25 -3.046875 C 4.0625 -2.785156 3.796875 -2.59375 3.453125 -2.46875 L 4.78125 -0.046875 L 4.78125 0 L 3.984375 0 Z M 1.40625 -2.921875 L 2.5625 -2.921875 C 2.9375 -2.921875 3.234375 -3.015625 3.453125 -3.203125 C 3.671875 -3.398438 3.78125 -3.660156 3.78125 -3.984375 C 3.78125 -4.328125 3.675781 -4.59375 3.46875 -4.78125 C 3.257812 -4.96875 2.957031 -5.066406 2.5625 -5.078125 L 1.40625 -5.078125 Z M 1.40625 -2.921875 "/></g></g></g><g fill="#d9d9d9" fill-opacity="1"><g transform="translate(130.782373, 267.011893)"><g><path d="M 4.59375 -5.078125 L 2.765625 -5.078125 L 2.765625 0 L 2.015625 0 L 2.015625 -5.078125 L 0.1875 -5.078125 L 0.1875 -5.6875 L 4.59375 -5.6875 Z M 4.59375 -5.078125 "/></g></g></g><g fill="#d9d9d9" fill-opacity="1"><g transform="translate(141.955838, 267.011893)"><g><path d="M 2.34375 -2.53125 C 1.695312 -2.71875 1.226562 -2.945312 0.9375 -3.21875 C 0.644531 -3.488281 0.5 -3.820312 0.5 -4.21875 C 0.5 -4.664062 0.675781 -5.035156 1.03125 -5.328125 C 1.382812 -5.617188 1.847656 -5.765625 2.421875 -5.765625 C 2.816406 -5.765625 3.164062 -5.6875 3.46875 -5.53125 C 3.78125 -5.382812 4.019531 -5.175781 4.1875 -4.90625 C 4.351562 -4.644531 4.4375 -4.359375 4.4375 -4.046875 L 3.6875 -4.046875 C 3.6875 -4.390625 3.578125 -4.660156 3.359375 -4.859375 C 3.140625 -5.054688 2.828125 -5.15625 2.421875 -5.15625 C 2.054688 -5.15625 1.769531 -5.070312 1.5625 -4.90625 C 1.351562 -4.738281 1.25 -4.515625 1.25 -4.234375 C 1.25 -3.992188 1.347656 -3.796875 1.546875 -3.640625 C 1.742188 -3.484375 2.078125 -3.335938 2.546875 -3.203125 C 3.023438 -3.066406 3.394531 -2.914062 3.65625 -2.75 C 3.925781 -2.59375 4.125 -2.40625 4.25 -2.1875 C 4.382812 -1.976562 4.453125 -1.734375 4.453125 -1.453125 C 4.453125 -0.984375 4.269531 -0.609375 3.90625 -0.328125 C 3.550781 -0.0546875 3.070312 0.078125 2.46875 0.078125 C 2.070312 0.078125 1.703125 0.00390625 1.359375 -0.140625 C 1.023438 -0.296875 0.765625 -0.503906 0.578125 -0.765625 C 0.398438 -1.023438 0.3125 -1.320312 0.3125 -1.65625 L 1.0625 -1.65625 C 1.0625 -1.3125 1.1875 -1.035156 1.4375 -0.828125 C 1.695312 -0.628906 2.039062 -0.53125 2.46875 -0.53125 C 2.863281 -0.53125 3.164062 -0.609375 3.375 -0.765625 C 3.582031 -0.929688 3.6875 -1.15625 3.6875 -1.4375 C 3.6875 -1.71875 3.585938 -1.929688 3.390625 -2.078125 C 3.203125 -2.234375 2.851562 -2.382812 2.34375 -2.53125 Z M 2.34375 -2.53125 "/></g></g></g><g fill="#d9d9d9" fill-opacity="1"><g transform="translate(153.101959, 267.011893)"><g/></g></g><g fill="#d9d9d9" fill-opacity="1"><g transform="translate(161.482447, 267.011893)"><g><path d="M 3.796875 -1.484375 L 1.421875 -1.484375 L 0.890625 0 L 0.109375 0 L 2.28125 -5.6875 L 2.9375 -5.6875 L 5.109375 0 L 4.34375 0 Z M 1.640625 -2.109375 L 3.578125 -2.109375 L 2.609375 -4.765625 Z M 1.640625 -2.109375 "/></g></g></g><g fill="#d9d9d9" fill-opacity="1"><g transform="translate(173.101225, 267.011893)"><g><path d="M 5.03125 0 L 4.28125 0 L 1.421875 -4.390625 L 1.421875 0 L 0.65625 0 L 0.65625 -5.6875 L 1.421875 -5.6875 L 4.28125 -1.28125 L 4.28125 -5.6875 L 5.03125 -5.6875 Z M 5.03125 0 "/></g></g></g><g fill="#d9d9d9" fill-opacity="1"><g transform="translate(185.20438, 267.011893)"><g><path d="M 0.65625 0 L 0.65625 -5.6875 L 2.265625 -5.6875 C 2.765625 -5.6875 3.203125 -5.578125 3.578125 -5.359375 C 3.960938 -5.140625 4.253906 -4.828125 4.453125 -4.421875 C 4.660156 -4.023438 4.769531 -3.5625 4.78125 -3.03125 L 4.78125 -2.671875 C 4.78125 -2.140625 4.675781 -1.671875 4.46875 -1.265625 C 4.257812 -0.859375 3.960938 -0.546875 3.578125 -0.328125 C 3.191406 -0.117188 2.742188 -0.0078125 2.234375 0 Z M 1.40625 -5.078125 L 1.40625 -0.609375 L 2.203125 -0.609375 C 2.773438 -0.609375 3.222656 -0.785156 3.546875 -1.140625 C 3.867188 -1.503906 4.03125 -2.019531 4.03125 -2.6875 L 4.03125 -3.015625 C 4.03125 -3.660156 3.878906 -4.160156 3.578125 -4.515625 C 3.273438 -4.878906 2.84375 -5.066406 2.28125 -5.078125 Z M 1.40625 -5.078125 "/></g></g></g><g fill="#d9d9d9" fill-opacity="1"><g transform="translate(196.850503, 267.011893)"><g/></g></g><g fill="#d9d9d9" fill-opacity="1"><g transform="translate(205.230991, 267.011893)"><g><path d="M 1.890625 -1.796875 L 2 -1.046875 L 2.15625 -1.71875 L 3.28125 -5.6875 L 3.921875 -5.6875 L 5.015625 -1.71875 L 5.171875 -1.03125 L 5.296875 -1.796875 L 6.171875 -5.6875 L 6.921875 -5.6875 L 5.546875 0 L 4.859375 0 L 3.6875 -4.140625 L 3.609375 -4.578125 L 3.515625 -4.140625 L 2.296875 0 L 1.609375 0 L 0.234375 -5.6875 L 0.984375 -5.6875 Z M 1.890625 -1.796875 "/></g></g></g><g fill="#d9d9d9" fill-opacity="1"><g transform="translate(218.728681, 267.011893)"><g><path d="M 3.875 -2.625 L 1.40625 -2.625 L 1.40625 -0.609375 L 4.28125 -0.609375 L 4.28125 0 L 0.65625 0 L 0.65625 -5.6875 L 4.234375 -5.6875 L 4.234375 -5.078125 L 1.40625 -5.078125 L 1.40625 -3.25 L 3.875 -3.25 Z M 3.875 -2.625 "/></g></g></g><g fill="#d9d9d9" fill-opacity="1"><g transform="translate(229.675583, 267.011893)"><g><path d="M 1.421875 -0.609375 L 4.109375 -0.609375 L 4.109375 0 L 0.65625 0 L 0.65625 -5.6875 L 1.421875 -5.6875 Z M 1.421875 -0.609375 "/></g></g></g><g fill="#d9d9d9" fill-opacity="1"><g transform="translate(240.380296, 267.011893)"><g><path d="M 1.421875 -0.609375 L 4.109375 -0.609375 L 4.109375 0 L 0.65625 0 L 0.65625 -5.6875 L 1.421875 -5.6875 Z M 1.421875 -0.609375 "/></g></g></g><g fill="#d9d9d9" fill-opacity="1"><g transform="translate(251.08501, 267.011893)"><g><path d="M 5.03125 0 L 4.28125 0 L 1.421875 -4.390625 L 1.421875 0 L 0.65625 0 L 0.65625 -5.6875 L 1.421875 -5.6875 L 4.28125 -1.28125 L 4.28125 -5.6875 L 5.03125 -5.6875 Z M 5.03125 0 "/></g></g></g><g fill="#d9d9d9" fill-opacity="1"><g transform="translate(263.188165, 267.011893)"><g><path d="M 3.875 -2.625 L 1.40625 -2.625 L 1.40625 -0.609375 L 4.28125 -0.609375 L 4.28125 0 L 0.65625 0 L 0.65625 -5.6875 L 4.234375 -5.6875 L 4.234375 -5.078125 L 1.40625 -5.078125 L 1.40625 -3.25 L 3.875 -3.25 Z M 3.875 -2.625 "/></g></g></g><g fill="#d9d9d9" fill-opacity="1"><g transform="translate(274.135057, 267.011893)"><g><path d="M 2.34375 -2.53125 C 1.695312 -2.71875 1.226562 -2.945312 0.9375 -3.21875 C 0.644531 -3.488281 0.5 -3.820312 0.5 -4.21875 C 0.5 -4.664062 0.675781 -5.035156 1.03125 -5.328125 C 1.382812 -5.617188 1.847656 -5.765625 2.421875 -5.765625 C 2.816406 -5.765625 3.164062 -5.6875 3.46875 -5.53125 C 3.78125 -5.382812 4.019531 -5.175781 4.1875 -4.90625 C 4.351562 -4.644531 4.4375 -4.359375 4.4375 -4.046875 L 3.6875 -4.046875 C 3.6875 -4.390625 3.578125 -4.660156 3.359375 -4.859375 C 3.140625 -5.054688 2.828125 -5.15625 2.421875 -5.15625 C 2.054688 -5.15625 1.769531 -5.070312 1.5625 -4.90625 C 1.351562 -4.738281 1.25 -4.515625 1.25 -4.234375 C 1.25 -3.992188 1.347656 -3.796875 1.546875 -3.640625 C 1.742188 -3.484375 2.078125 -3.335938 2.546875 -3.203125 C 3.023438 -3.066406 3.394531 -2.914062 3.65625 -2.75 C 3.925781 -2.59375 4.125 -2.40625 4.25 -2.1875 C 4.382812 -1.976562 4.453125 -1.734375 4.453125 -1.453125 C 4.453125 -0.984375 4.269531 -0.609375 3.90625 -0.328125 C 3.550781 -0.0546875 3.070312 0.078125 2.46875 0.078125 C 2.070312 0.078125 1.703125 0.00390625 1.359375 -0.140625 C 1.023438 -0.296875 0.765625 -0.503906 0.578125 -0.765625 C 0.398438 -1.023438 0.3125 -1.320312 0.3125 -1.65625 L 1.0625 -1.65625 C 1.0625 -1.3125 1.1875 -1.035156 1.4375 -0.828125 C 1.695312 -0.628906 2.039062 -0.53125 2.46875 -0.53125 C 2.863281 -0.53125 3.164062 -0.609375 3.375 -0.765625 C 3.582031 -0.929688 3.6875 -1.15625 3.6875 -1.4375 C 3.6875 -1.71875 3.585938 -1.929688 3.390625 -2.078125 C 3.203125 -2.234375 2.851562 -2.382812 2.34375 -2.53125 Z M 2.34375 -2.53125 "/></g></g></g><g fill="#d9d9d9" fill-opacity="1"><g transform="translate(285.281188, 267.011893)"><g><path d="M 2.34375 -2.53125 C 1.695312 -2.71875 1.226562 -2.945312 0.9375 -3.21875 C 0.644531 -3.488281 0.5 -3.820312 0.5 -4.21875 C 0.5 -4.664062 0.675781 -5.035156 1.03125 -5.328125 C 1.382812 -5.617188 1.847656 -5.765625 2.421875 -5.765625 C 2.816406 -5.765625 3.164062 -5.6875 3.46875 -5.53125 C 3.78125 -5.382812 4.019531 -5.175781 4.1875 -4.90625 C 4.351562 -4.644531 4.4375 -4.359375 4.4375 -4.046875 L 3.6875 -4.046875 C 3.6875 -4.390625 3.578125 -4.660156 3.359375 -4.859375 C 3.140625 -5.054688 2.828125 -5.15625 2.421875 -5.15625 C 2.054688 -5.15625 1.769531 -5.070312 1.5625 -4.90625 C 1.351562 -4.738281 1.25 -4.515625 1.25 -4.234375 C 1.25 -3.992188 1.347656 -3.796875 1.546875 -3.640625 C 1.742188 -3.484375 2.078125 -3.335938 2.546875 -3.203125 C 3.023438 -3.066406 3.394531 -2.914062 3.65625 -2.75 C 3.925781 -2.59375 4.125 -2.40625 4.25 -2.1875 C 4.382812 -1.976562 4.453125 -1.734375 4.453125 -1.453125 C 4.453125 -0.984375 4.269531 -0.609375 3.90625 -0.328125 C 3.550781 -0.0546875 3.070312 0.078125 2.46875 0.078125 C 2.070312 0.078125 1.703125 0.00390625 1.359375 -0.140625 C 1.023438 -0.296875 0.765625 -0.503906 0.578125 -0.765625 C 0.398438 -1.023438 0.3125 -1.320312 0.3125 -1.65625 L 1.0625 -1.65625 C 1.0625 -1.3125 1.1875 -1.035156 1.4375 -0.828125 C 1.695312 -0.628906 2.039062 -0.53125 2.46875 -0.53125 C 2.863281 -0.53125 3.164062 -0.609375 3.375 -0.765625 C 3.582031 -0.929688 3.6875 -1.15625 3.6875 -1.4375 C 3.6875 -1.71875 3.585938 -1.929688 3.390625 -2.078125 C 3.203125 -2.234375 2.851562 -2.382812 2.34375 -2.53125 Z M 2.34375 -2.53125 "/></g></g></g></svg>