<?xml version="1.0" encoding="UTF-8"?>
<svg xmlns="http://www.w3.org/2000/svg" xmlns:xlink="http://www.w3.org/1999/xlink" version="1.1" viewBox="0 0 841.89 595.28">
  <defs>
    <style>
      .cls-1 {
        fill: url(#linear-gradient-8);
      }

      .cls-2 {
        fill: url(#linear-gradient-7);
      }

      .cls-3 {
        fill: url(#linear-gradient-5);
      }

      .cls-4 {
        fill: url(#linear-gradient-6);
      }

      .cls-5 {
        fill: url(#linear-gradient-4);
      }

      .cls-6 {
        fill: url(#linear-gradient-3);
      }

      .cls-7 {
        fill: url(#linear-gradient-2);
      }

      .cls-8 {
        fill: url(#linear-gradient);
      }

      .cls-9 {
        fill: #fff;
        stroke: #000;
        stroke-miterlimit: 10;
      }

      .cls-10 {
        fill: #5bbba0;
      }

      .cls-11 {
        fill: #012022;
      }
    </style>
    <linearGradient id="linear-gradient" x1="386.31" y1="406.89" x2="531.24" y2="406.89" gradientUnits="userSpaceOnUse">
      <stop offset="0" stop-color="#014c37"/>
      <stop offset=".07" stop-color="#075940"/>
      <stop offset=".22" stop-color="#187d58"/>
      <stop offset=".4" stop-color="#34b67f"/>
      <stop offset=".49" stop-color="#42d292"/>
      <stop offset="1" stop-color="#159f5c"/>
    </linearGradient>
    <linearGradient id="linear-gradient-2" x1="437.36" y1="319.28" x2="582.28" y2="319.28" gradientTransform="translate(239.5 750.17) rotate(-89.31)" xlink:href="#linear-gradient"/>
    <linearGradient id="linear-gradient-3" x1="495.2" y1="277.24" x2="640.12" y2="277.24" gradientTransform="translate(982.01 380.8) rotate(176.66)" xlink:href="#linear-gradient"/>
    <linearGradient id="linear-gradient-4" x1="680.14" y1="27.23" x2="825.06" y2="27.23" gradientTransform="translate(343.44 -448.29) rotate(91.77)" xlink:href="#linear-gradient"/>
    <linearGradient id="linear-gradient-5" x1="363.25" y1="389.52" x2="390.51" y2="389.52" xlink:href="#linear-gradient"/>
    <linearGradient id="linear-gradient-6" x1="230.26" y1="177.2" x2="257.52" y2="177.2" gradientTransform="translate(486.59 -23.78) rotate(90)" xlink:href="#linear-gradient"/>
    <linearGradient id="linear-gradient-7" x1="123.87" y1="-54.33" x2="151.12" y2="-54.33" gradientTransform="translate(623.31 96.89) rotate(-180)" xlink:href="#linear-gradient"/>
    <linearGradient id="linear-gradient-8" x1="21.54" y1="-245.04" x2="48.8" y2="-245.04" gradientTransform="translate(788.62 363.26) rotate(-90)" xlink:href="#linear-gradient"/>
  </defs>
  <!-- Generator: Adobe Illustrator 28.6.0, SVG Export Plug-In . SVG Version: 1.2.0 Build 709)  -->
  <g>
    <g id="Layer_1">
      <rect class="cls-11" x="-.51" y=".39" width="841.41" height="594.07"/>
      <path class="cls-8" d="M470.97,340.91c64.71,22.64,35.62,83.35,35.62,83.35,10.16-59.29-45.74-74.54-45.74-74.54,61.84,34.73,28.8,121.98,28.8,121.98-3.39-13.55.85-31.91.85-31.91,13.55-61.84-44.89-84.99-44.89-84.99,48.28,32.19,35.58,95.72,35.58,95.72-1.69,37.27,16.94,47.44,16.94,47.44-5.08-17.79,10.16-41.51,10.16-41.51,22.87-33.04,22.87-64.09,22.87-64.09,2.82-66.84-70.88-67.29-114.07-67.76-17.38-.19-30.78-8.75-30.78-8.75,2.88,14.57,14.71,28.38,24.19,37.45,5.67,5.43,12.07,10.02,18.84,14,21.22,12.47,25.02,29.87,25.02,29.87-1.73-3.46-6.39-7.78-10.93-11.46-5.04-4.07-10.57-7.47-16.32-10.46-17.83-9.28-27.72-22.88-27.72-22.88,4.14,15.44,34.64,35.01,34.64,35.01,25.6,15.06,26.73,32,26.73,32-4.89-12.8-29.55-25.6-29.55-25.6-33.88-16.94-40.66-44.05-40.66-44.05,1.69,45.74,46.59,61.84,46.59,61.84,18.64,5.08,30.49,28.8,30.49,28.8,5.47-34.46-6.02-55.5-14.84-66.08-3.69-4.42-8.24-8.02-13.25-10.85-24.01-13.56-34.59-26.4-34.59-26.4h0c21.37-3.72,43.31-2.56,64.17,3.37l1.85.53Z"/>
      <path class="cls-7" d="M499.11,231.26c23.42-64.43,83.77-34.61,83.77-34.61-59.17-10.88-75.09,44.83-75.09,44.83,35.48-61.41,122.32-27.32,122.32-27.32-13.59,3.22-31.89-1.23-31.89-1.23-61.67-14.3-85.53,43.86-85.53,43.86,32.77-47.89,96.14-34.41,96.14-34.41,37.25,2.15,47.64-16.36,47.64-16.36-17.85,4.87-41.38-10.67-41.38-10.67-32.76-23.27-63.81-23.65-63.81-23.65-66.8-3.63-68.14,70.06-69.14,113.24-.4,17.38-9.13,30.67-9.13,30.67,14.6-2.7,28.56-14.36,37.74-23.73,5.5-5.61,10.16-11.95,14.22-18.67,12.73-21.07,30.17-24.65,30.17-24.65-3.48,1.69-7.86,6.29-11.59,10.79-4.14,4.99-7.6,10.48-10.66,16.19-9.49,17.71-23.21,27.44-23.21,27.44,15.48-3.95,35.43-34.21,35.43-34.21,15.37-25.42,32.32-26.34,32.32-26.34-12.86,4.74-25.96,29.24-25.96,29.24-17.35,33.67-44.54,40.12-44.54,40.12,45.76-1.14,62.4-45.84,62.4-45.84,5.31-18.57,29.17-30.14,29.17-30.14-34.4-5.89-55.57,5.34-66.26,14.04-4.46,3.63-8.12,8.14-11.01,13.12-13.85,23.84-26.82,34.27-26.82,34.27h0c-3.46-21.41-2.04-43.33,4.15-64.12l.55-1.85Z"/>
      <path class="cls-6" d="M390.84,203.67c-65.92-18.83-40.42-81.13-40.42-81.13-6.69,59.79,50,71.75,50,71.75-63.75-31.07-35.85-120.09-35.85-120.09,4.17,13.33,1.01,31.9,1.01,31.9-9.93,62.52,49.77,82.23,49.77,82.23-50.07-29.32-41.09-93.48-41.09-93.48-.48-37.31-19.67-46.37-19.67-46.37,6.11,17.46-7.73,42.03-7.73,42.03-20.91,34.31-19.1,65.32-19.1,65.32,1.08,66.89,74.68,63.04,117.82,61.01,17.36-.82,31.23,6.95,31.23,6.95-3.72-14.37-16.34-27.48-26.33-35.98-5.98-5.09-12.63-9.3-19.63-12.88-21.91-11.21-26.71-28.36-26.71-28.36,1.93,3.35,6.83,7.4,11.58,10.8,5.27,3.77,10.99,6.85,16.9,9.5,18.34,8.22,29.01,21.23,29.01,21.23-5.03-15.17-36.62-32.94-36.62-32.94-26.43-13.54-28.55-30.39-28.55-30.39,5.63,12.49,30.99,23.84,30.99,23.84,34.81,14.94,43.15,41.6,43.15,41.6-4.35-45.56-50.11-59.02-50.11-59.02-18.9-3.99-32.12-26.98-32.12-26.98-3.45,34.72,9.24,55.06,18.66,65.11,3.94,4.2,8.69,7.53,13.86,10.06,24.76,12.14,36.07,24.34,36.07,24.34h0c-21.12,4.95-43.08,5.08-64.26.37l-1.88-.42Z"/>
      <path class="cls-5" d="M358.58,317.34c-24.62,63.98-84.4,33.04-84.4,33.04,58.95,11.99,75.92-43.42,75.92-43.42-36.62,60.73-122.81,25.02-122.81,25.02,13.65-2.97,31.86,1.83,31.86,1.83,61.39,15.45,86.33-42.25,86.33-42.25-33.66,47.27-96.77,32.61-96.77,32.61-37.2-2.84-47.94,15.47-47.94,15.47,17.94-4.53,41.17,11.44,41.17,11.44,32.31,23.88,63.36,24.84,63.36,24.84,66.72,4.88,69.44-68.77,71.25-111.93.73-17.37,9.7-30.49,9.7-30.49-14.65,2.43-28.82,13.83-38.18,23.02-5.6,5.5-10.39,11.76-14.57,18.4-13.12,20.83-30.63,24.08-30.63,24.08,3.51-1.62,7.98-6.15,11.79-10.57,4.23-4.91,7.8-10.33,10.96-15.98,9.82-17.53,23.72-27,23.72-27-15.56,3.66-36.06,33.54-36.06,33.54-15.84,25.12-32.81,25.73-32.81,25.73,12.94-4.5,26.5-28.75,26.5-28.75,17.98-33.34,45.28-39.28,45.28-39.28-45.77.28-63.24,44.66-63.24,44.66-5.65,18.47-29.73,29.59-29.73,29.59,34.28,6.53,55.66-4.3,66.51-12.8,4.53-3.55,8.28-7.99,11.26-12.91,14.29-23.58,27.46-33.76,27.46-33.76h0c3.06,21.48,1.23,43.36-5.35,64.03l-.58,1.84Z"/>
      <path class="cls-9" d="M410.88,239.77h11.4v28.91c3.57-5.88,11.82-20.54,17.01-28.91h13.31l-16.64,25.2,16.97,39.29h-12.83l-12.02-29.65-5.81,8.17v21.48h-11.4v-64.48Z"/>
      <path class="cls-3" d="M379.82,338.14s1.13,24.85-10.16,45.18c0,0-15.81,30.49,2.26,57.6,0,0,3.67-20.89,9.88-29.36,0,0,11.86-16.66,7.91-42.64,0,0-3.11,14.96-9.6,24.56s-8.75,27.67-8.75,27.67c0,0-3.39-19.76,6.49-40.09,0,0,9.6-21.74,1.98-42.92Z"/>
      <path class="cls-4" d="M360.79,223.05s-24.85,1.13-45.18-10.16c0,0-30.49-15.81-57.6,2.26,0,0,20.89,3.67,29.36,9.88,0,0,16.66,11.86,42.64,7.91,0,0-14.96-3.11-24.56-9.6s-27.67-8.75-27.67-8.75c0,0,19.76-3.39,40.09,6.49,0,0,21.74,9.6,42.92,1.98Z"/>
      <path class="cls-2" d="M482.88,202.61s-1.13-24.85,10.16-45.18c0,0,15.81-30.49-2.26-57.6,0,0-3.67,20.89-9.88,29.36,0,0-11.86,16.66-7.91,42.64,0,0,3.11-14.96,9.6-24.56,6.49-9.6,8.75-27.67,8.75-27.67,0,0,3.39,19.76-6.49,40.09,0,0-9.6,21.74-1.98,42.92Z"/>
      <path class="cls-1" d="M492.2,325.15s24.85-1.13,45.18,10.16c0,0,30.49,15.81,57.6-2.26,0,0-20.89-3.67-29.36-9.88,0,0-16.66-11.86-42.64-7.91,0,0,14.96,3.11,24.56,9.6,9.6,6.49,27.67,8.75,27.67,8.75,0,0-19.76,3.39-40.09-6.49,0,0-21.74-9.6-42.92-1.98Z"/>
      <g>
        <path class="cls-10" d="M140.51,524.27h12.82v1.34c-3.74.34-4.42.67-4.42,4.94v8.26c.96-.1,2.06-.86,3.46-2.21,2.69-2.54,5.9-5.81,8.11-8.3,1.44-1.63,1.3-2.26-.77-2.54l-1.34-.14v-1.34h11.67v1.34c-3.6.43-4.85.67-8.06,3.98-1.44,1.39-5.18,5.04-8.26,8.06,3.65,4.32,8.98,10.46,11.47,13.11,2.45,2.64,3.07,3.02,6.05,3.36v1.34h-7.68c-3.7-4.18-7.58-8.83-11.95-13.92-1.1-1.34-1.92-1.44-2.69-1.39v9.12c0,4.18.43,4.51,4.42,4.85v1.34h-12.82v-1.34c3.94-.34,4.32-.67,4.32-4.85v-18.72c0-4.32-.34-4.66-4.32-4.94v-1.34Z"/>
        <path class="cls-10" d="M197,555.48h-11.04v-1.34c3.02-.29,3.31-.53,3.31-3.65v-9.99c0-3.17-.19-3.31-2.98-3.65v-1.2c2.35-.38,4.51-.96,6.77-1.97v5.28c1.68-2.5,3.7-5.14,6.1-5.14,1.78,0,2.78,1.1,2.78,2.3,0,1.1-.77,2.16-1.63,2.64-.48.29-.86.24-1.25-.1-.72-.72-1.3-1.2-2.16-1.2-1.01,0-2.78,1.49-3.84,3.94v9.03c0,3.17.24,3.41,3.94,3.7v1.34Z"/>
        <path class="cls-10" d="M218.56,555.48v-1.34c3.02-.29,3.36-.53,3.36-3.79v-9.89c0-2.98-.14-3.17-3.02-3.65v-1.15c2.5-.43,4.75-1.06,6.82-1.92v16.61c0,3.26.34,3.5,3.46,3.79v1.34h-10.61ZM223.55,529.03c-1.34,0-2.54-1.2-2.54-2.54,0-1.54,1.2-2.64,2.59-2.64s2.45,1.1,2.45,2.64c0,1.34-1.1,2.54-2.5,2.54Z"/>
        <path class="cls-10" d="M258.25,540.12c-.86-2.78-2.11-4.7-5.04-4.7-1.68,0-2.98,1.2-2.98,3.12,0,2.06,1.39,3.02,4.08,4.27,4.13,1.97,6.19,3.41,6.19,6.58,0,4.42-4.03,6.67-7.82,6.67-2.5,0-4.7-.77-5.71-1.34-.24-1.39-.67-4.03-.86-5.62l1.39-.24c.86,3.07,2.54,5.57,5.9,5.57,1.82,0,3.36-1.25,3.36-3.26,0-2.16-1.3-3.26-3.84-4.51-3.36-1.63-6.1-3.17-6.1-6.62s2.98-6.19,7.49-6.19c2.02,0,3.65.48,4.61.62.14,1.15.48,4.18.72,5.33l-1.39.34Z"/>
        <path class="cls-10" d="M291.23,555.48v-1.34c2.78-.29,3.17-.53,3.17-3.7v-7.87c0-3.98-1.54-6-4.75-5.95-1.82,0-3.74.91-5.09,2.5v11.33c0,3.12.38,3.41,3.26,3.7v1.34h-10.46v-1.34c2.78-.24,3.41-.48,3.41-3.7v-23.14c0-2.54-.14-3.17-3.36-3.46v-1.25c2.54-.24,5.42-.96,7.15-1.63v16.37c1.73-1.73,4.37-3.5,6.96-3.5,3.94,0,6.67,2.45,6.67,8.21v8.45c0,3.17.38,3.41,3.17,3.65v1.34h-10.13Z"/>
        <path class="cls-10" d="M333.9,556.05c-.72,0-1.78-.38-2.26-.91-.62-.62-.91-1.3-1.15-2.16-1.92,1.3-4.27,3.07-5.76,3.07-3.41,0-5.86-2.83-5.86-5.9,0-2.35,1.3-3.89,3.94-4.8,2.93-1.01,6.53-2.26,7.58-3.12v-.96c0-3.41-1.73-5.38-4.22-5.38-1.1,0-1.78.53-2.26,1.1-.53.67-.86,1.73-1.3,3.12-.24.77-.67,1.1-1.39,1.1-.91,0-2.11-.96-2.11-2.11,0-.67.62-1.25,1.58-1.92,1.39-1.01,4.18-2.78,6.91-3.36,1.44,0,2.93.43,4.03,1.3,1.68,1.44,2.45,3.07,2.45,5.57v9.26c0,2.21.82,2.88,1.68,2.88.58,0,1.2-.24,1.73-.53l.48,1.34-4.08,2.4ZM330.4,543.91c-1.06.53-3.36,1.54-4.46,2.02-1.82.82-2.93,1.73-2.93,3.5,0,2.54,1.92,3.7,3.46,3.7,1.25,0,2.98-.77,3.94-1.73v-7.49Z"/>
        <path class="cls-10" d="M353.67,555.48v-1.34c3.07-.29,3.46-.53,3.46-3.7v-22.99c0-2.93-.24-3.22-3.31-3.6v-1.25c2.59-.29,5.57-1.06,7.1-1.63v29.47c0,3.17.29,3.41,3.41,3.7v1.34h-10.66Z"/>
        <path class="cls-10" d="M381.23,555.48v-1.34c3.02-.29,3.36-.53,3.36-3.79v-9.89c0-2.98-.14-3.17-3.02-3.65v-1.15c2.5-.43,4.75-1.06,6.82-1.92v16.61c0,3.26.34,3.5,3.46,3.79v1.34h-10.61ZM386.22,529.03c-1.34,0-2.54-1.2-2.54-2.54,0-1.54,1.2-2.64,2.59-2.64s2.45,1.1,2.45,2.64c0,1.34-1.1,2.54-2.5,2.54Z"/>
        <path class="cls-10" d="M477.9,525.62c-3.36.48-3.84.86-5.14,4.8-1.58,4.8-5.42,16.99-8.06,25.59h-1.63c-2.5-7.49-5.71-16.75-8.21-23.86-2.78,8.26-5.62,16.47-8.11,23.86h-1.58c-2.4-8.26-5.14-17.23-7.73-25.63-1.25-3.89-1.78-4.42-4.9-4.75v-1.34h11.86v1.34c-3.55.38-3.65.91-2.98,3.31,1.87,6.48,3.79,12.86,5.76,19.63,2.64-7.63,5.52-15.99,7.97-23.86h1.54c2.69,8.16,5.38,15.75,8.16,23.91,2.02-6.38,4.75-14.93,5.81-19.11.72-2.78.34-3.41-3.75-3.89v-1.34h10.99v1.34Z"/>
        <path class="cls-10" d="M507.47,551.4c-3.07,3.84-6.43,4.66-7.97,4.66-5.86,0-9.41-4.8-9.41-10.32,0-3.26,1.15-6.29,3.12-8.4,2.02-2.26,4.66-3.5,7.15-3.5,4.18,0,7.34,3.6,7.34,7.44-.05.96-.19,1.39-.96,1.58-.96.19-7.1.62-12.82.82-.14,6.43,3.79,9.07,7.2,9.07,1.97,0,3.79-.82,5.57-2.45l.77,1.1ZM499.21,535.65c-2.21,0-4.37,2.06-5.04,5.95,2.69,0,5.38,0,8.21-.14.86,0,1.15-.24,1.15-.96.05-2.54-1.63-4.85-4.32-4.85Z"/>
        <path class="cls-10" d="M524.26,555.48v-1.34c3.07-.29,3.46-.53,3.46-3.7v-22.99c0-2.93-.24-3.22-3.31-3.6v-1.25c2.59-.29,5.57-1.06,7.1-1.63v29.47c0,3.17.29,3.41,3.41,3.7v1.34h-10.66Z"/>
        <path class="cls-10" d="M551.43,555.48v-1.34c3.07-.29,3.46-.53,3.46-3.7v-22.99c0-2.93-.24-3.22-3.31-3.6v-1.25c2.59-.29,5.57-1.06,7.1-1.63v29.47c0,3.17.29,3.41,3.41,3.7v1.34h-10.66Z"/>
        <path class="cls-10" d="M592.81,555.48v-1.34c2.78-.29,3.07-.62,3.07-3.89v-7.92c0-3.36-1.2-5.62-4.37-5.62-1.97,0-3.84,1.15-5.33,2.5v11.23c0,3.31.29,3.41,3.12,3.7v1.34h-10.37v-1.34c3.17-.34,3.46-.53,3.46-3.7v-9.89c0-3.12-.34-3.26-2.93-3.7v-1.25c2.35-.38,4.7-1.01,6.72-1.92v3.79c.96-.67,2.02-1.39,3.26-2.21,1.34-.86,2.59-1.44,3.98-1.44,3.84,0,6.24,2.83,6.24,7.49v9.12c0,3.26.29,3.41,3.07,3.7v1.34h-9.94Z"/>
        <path class="cls-10" d="M637.4,551.4c-3.07,3.84-6.43,4.66-7.97,4.66-5.86,0-9.41-4.8-9.41-10.32,0-3.26,1.15-6.29,3.12-8.4,2.02-2.26,4.66-3.5,7.15-3.5,4.18,0,7.34,3.6,7.34,7.44-.05.96-.19,1.39-.96,1.58-.96.19-7.1.62-12.82.82-.14,6.43,3.79,9.07,7.2,9.07,1.97,0,3.79-.82,5.57-2.45l.77,1.1ZM629.15,535.65c-2.21,0-4.37,2.06-5.04,5.95,2.69,0,5.38,0,8.21-.14.86,0,1.15-.24,1.15-.96.05-2.54-1.63-4.85-4.32-4.85Z"/>
        <path class="cls-10" d="M667.45,540.12c-.86-2.78-2.11-4.7-5.04-4.7-1.68,0-2.98,1.2-2.98,3.12,0,2.06,1.39,3.02,4.08,4.27,4.13,1.97,6.19,3.41,6.19,6.58,0,4.42-4.03,6.67-7.82,6.67-2.5,0-4.71-.77-5.71-1.34-.24-1.39-.67-4.03-.86-5.62l1.39-.24c.86,3.07,2.54,5.57,5.9,5.57,1.82,0,3.36-1.25,3.36-3.26,0-2.16-1.3-3.26-3.84-4.51-3.36-1.63-6.1-3.17-6.1-6.62s2.98-6.19,7.49-6.19c2.02,0,3.65.48,4.61.62.14,1.15.48,4.18.72,5.33l-1.39.34Z"/>
        <path class="cls-10" d="M699.75,540.12c-.86-2.78-2.11-4.7-5.04-4.7-1.68,0-2.98,1.2-2.98,3.12,0,2.06,1.39,3.02,4.08,4.27,4.13,1.97,6.19,3.41,6.19,6.58,0,4.42-4.03,6.67-7.82,6.67-2.5,0-4.7-.77-5.71-1.34-.24-1.39-.67-4.03-.86-5.62l1.39-.24c.86,3.07,2.54,5.57,5.9,5.57,1.82,0,3.36-1.25,3.36-3.26,0-2.16-1.3-3.26-3.84-4.51-3.36-1.63-6.1-3.17-6.1-6.62s2.98-6.19,7.49-6.19c2.02,0,3.65.48,4.61.62.14,1.15.48,4.18.72,5.33l-1.39.34Z"/>
      </g>
    </g>
  </g>
</svg>