<svg version="1.1" id="Layer_1" xmlns="http://www.w3.org/2000/svg" xmlns:xlink="http://www.w3.org/1999/xlink" x="0px" y="0px"
	 width="100%" viewBox="0 0 1024 496" enable-background="new 0 0 1024 496" xml:space="preserve">
<path fill="#000000" opacity="1.000000" stroke="none" 
	d="
M450.114868,298.455383 
	C452.390869,295.777832 450.061127,294.600983 448.781403,293.316589 
	C439.697693,284.199799 439.560608,285.762726 449.114075,276.154205 
	C450.154846,275.107452 451.118103,273.983673 452.232330,272.770386 
	C450.782867,269.853638 448.260925,268.131500 446.251038,265.995667 
	C444.033691,263.639404 443.748199,261.403290 446.202026,259.070160 
	C446.805328,258.496521 447.363708,257.875854 447.947937,257.281921 
	C456.002350,249.093277 456.054871,249.029694 464.739105,256.145111 
	C466.646027,257.707611 467.889709,257.433990 469.397095,255.889420 
	C471.375153,253.862549 473.488098,251.963135 475.404480,249.881363 
	C477.977509,247.086258 480.499115,247.030136 483.087311,249.742630 
	C485.490112,252.260773 487.843292,254.826294 489.925690,257.057404 
	C491.049866,256.779388 491.441345,256.794312 491.672791,256.609131 
	C498.578735,251.084381 498.574951,251.082474 504.909454,257.387329 
	C516.556702,268.980286 515.634094,266.614807 505.022369,277.465393 
	C495.707642,286.989838 495.647583,286.953186 505.003448,296.328949 
	C516.655579,308.005920 528.316406,319.674347 540.008362,331.311371 
	C541.400940,332.697418 542.584900,334.382965 545.868042,335.636169 
	C550.140259,331.082489 554.697388,326.034668 559.467407,321.196747 
	C563.845154,316.756714 564.804565,316.849030 569.221497,321.190460 
	C571.598083,323.526459 573.946289,325.891479 576.294189,328.256439 
	C580.703735,332.698090 580.704102,333.248047 576.492188,338.067566 
	C575.853149,338.798798 575.304871,339.609406 574.769287,340.311615 
	C575.584839,342.706421 577.455261,343.954681 578.946777,345.472809 
	C585.592224,352.236816 585.657227,352.257233 578.734680,359.034119 
	C577.079834,360.654114 575.042603,361.883545 573.167297,363.303101 
	C575.745728,367.575806 578.673218,369.804840 581.156189,372.394165 
	C583.280640,374.609711 583.511230,376.664948 581.298706,378.878906 
	C578.591492,381.587860 575.937134,384.352325 573.164429,386.992493 
	C571.056763,388.999451 568.801392,388.642303 567.040833,386.582489 
	C564.770874,383.926697 562.767639,381.042877 560.473877,378.392242 
	C555.601624,381.504761 553.194153,384.749542 550.359375,387.482971 
	C547.806763,389.944244 545.444214,390.077148 543.065857,387.442383 
	C540.616516,384.729004 538.246704,381.943909 536.383667,379.810425 
	C534.698425,380.053925 534.285828,379.987427 534.070435,380.162964 
	C526.988647,385.933411 526.982544,385.945679 520.427429,379.321625 
	C509.611542,368.391876 509.579346,370.958527 520.369385,360.107819 
	C530.393127,350.027710 530.444763,350.065277 520.250549,339.874176 
	C508.701904,328.329163 497.152252,316.785065 485.563995,305.279907 
	C484.299805,304.024811 483.284271,302.370209 479.923492,301.649719 
	C475.907166,305.932709 471.430115,310.830353 466.814972,315.594208 
	C462.095062,320.466248 461.348389,320.411499 456.354645,315.567322 
	C454.202148,313.479279 452.072662,311.367462 449.938568,309.260559 
	C445.200989,304.583344 445.198608,303.678589 450.114868,298.455383 
M501.872253,263.715790 
	C500.731445,262.812286 500.044067,261.298401 499.597504,261.243225 
	C484.702606,276.031097 470.360504,290.270142 455.858826,304.667633 
	C457.067596,306.720520 459.116547,308.556000 461.447937,310.000610 
	C461.923615,309.834503 462.321747,309.814087 462.532593,309.604950 
	C475.999268,296.244659 489.425476,282.843445 502.928436,269.520050 
	C505.188690,267.289825 504.137878,265.779541 501.872253,263.715790 
M545.657410,345.157715 
	C537.468201,353.352539 529.278931,361.547363 521.180908,369.650909 
	C527.052307,377.199310 527.087585,377.177582 533.232910,371.029144 
	C544.537720,359.718536 555.766418,348.327911 567.268860,337.221344 
	C570.545105,334.057861 571.121460,331.758667 567.240356,329.008789 
	C566.317444,328.354858 565.481873,327.577820 564.012024,326.368713 
	C557.987488,332.540771 552.073120,338.599945 545.657410,345.157715 
M512.700562,322.799103 
	C518.943481,329.030487 525.178467,335.269867 531.432129,341.490417 
	C535.456848,345.493774 535.846436,345.433167 539.031494,340.420013 
	C538.661133,339.934723 538.316956,339.359863 537.857727,338.899872 
	C523.160461,324.177704 508.399902,309.518219 493.781036,294.718719 
	C490.001984,290.893005 488.655823,293.655884 486.640015,296.837952 
	C495.250244,305.412506 503.727020,313.854218 512.700562,322.799103 
M478.991669,269.499390 
	C481.037964,267.144257 483.781647,265.394135 485.405212,262.098785 
	C483.351593,260.137207 481.924561,257.462555 479.763123,256.764313 
	C469.894165,266.481659 460.477356,275.753845 451.039734,285.046509 
	C456.175079,291.958374 456.447205,291.986816 462.254852,286.180634 
	C467.659027,280.777771 473.071381,275.383148 478.991669,269.499390 
M543.787109,370.237030 
	C540.937256,372.476746 539.728821,374.390442 542.987915,377.790192 
	C546.425537,381.376160 548.172791,379.400818 550.536011,376.982178 
	C555.532288,371.868835 560.697266,366.920044 565.677368,361.791382 
	C568.864502,358.509094 572.570618,355.665009 574.970703,351.729187 
	C569.179932,345.160583 569.145996,345.126007 563.399292,350.767670 
	C556.992065,357.057678 550.654846,363.419037 543.787109,370.237030 
M572.092041,373.108307 
	C570.203979,371.112610 567.903809,368.629059 565.821167,372.267609 
	C563.310852,376.653442 568.397217,377.187744 570.506592,380.281769 
	C571.679626,377.650024 575.996277,377.118774 572.092041,373.108307 
M460.759796,262.285095 
	C459.626556,260.897858 458.751190,259.211884 456.696869,258.753632 
	C455.084686,259.855682 452.927277,260.767181 453.686035,263.213348 
	C454.163605,264.752991 455.519775,266.299011 457.209320,266.433258 
	C459.448578,266.611145 460.803619,265.164368 460.759796,262.285095 
z"/>
<path fill="#000000" opacity="1.000000" stroke="none" 
	d="
M477.698853,197.285172 
	C475.132812,199.353058 473.186035,198.433472 471.205414,196.828522 
	C467.606293,193.912140 463.923981,191.098465 459.717590,187.804291 
	C460.186371,192.222946 462.228119,195.421936 463.286621,198.916641 
	C463.800598,200.613647 464.969482,202.530914 462.361633,203.513458 
	C459.983612,204.409393 459.571930,202.340698 458.990906,200.886902 
	C456.834076,195.490311 454.756042,190.061890 452.688568,184.630127 
	C452.174988,183.280792 451.279358,181.842697 453.008209,180.625885 
	C454.698547,179.436157 456.344452,179.298904 458.029724,180.648880 
	C462.257294,184.035355 466.501221,187.401443 471.669373,191.516891 
	C469.670959,186.247147 468.095276,182.104797 466.530304,177.958405 
	C465.981537,176.504547 466.181335,175.337479 467.846375,174.801727 
	C469.135132,174.387024 470.310211,174.700989 470.744812,175.972855 
	C473.138550,182.978165 477.097931,189.450729 477.698853,197.285172 
z"/>
<path fill="#000000" opacity="1.000000" stroke="none" 
	d="
M469.920197,450.553467 
	C470.121521,451.528931 470.231995,452.180664 470.429382,453.345123 
	C473.014984,449.699493 473.458160,445.561584 475.297974,442.063049 
	C476.030060,440.670898 476.257141,438.529602 478.636475,439.314423 
	C481.229980,440.169891 480.403778,442.036041 479.726074,443.800598 
	C477.702362,449.070129 475.717682,454.354828 473.663208,459.612274 
	C473.080200,461.104126 472.708679,463.033661 470.402374,462.625183 
	C468.408783,462.272156 467.164551,461.049408 466.824524,458.991486 
	C465.968781,453.812012 465.104889,448.633881 464.028412,442.156250 
	C462.086090,447.122314 460.652191,450.926819 459.103088,454.683807 
	C458.448334,456.271759 457.516876,457.807648 455.372467,456.812256 
	C453.399750,455.896515 454.195892,454.328674 454.713379,452.959839 
	C456.826721,447.369629 458.967377,441.789429 461.155762,436.228271 
	C461.617737,435.054321 461.899139,433.482941 463.713593,433.674866 
	C465.481720,433.861847 466.941589,434.605530 467.310699,436.547394 
	C468.176666,441.103180 468.992950,445.668396 469.920197,450.553467 
z"/>
<path fill="#000000" opacity="1.000000" stroke="none" 
	d="
M369.876831,329.313354 
	C365.948547,325.865997 364.556946,322.033997 366.711151,317.473969 
	C368.605621,313.463623 371.937897,311.395355 376.366760,311.828674 
	C380.796448,312.262054 383.596222,314.972290 384.814850,319.221222 
	C385.903748,323.017792 384.516113,326.241760 381.720428,328.622192 
	C378.242065,331.583893 374.266296,332.118134 369.876831,329.313354 
z"/>
<path fill="#000000" opacity="1.000000" stroke="none" 
	d="
M654.806396,330.146484 
	C648.497070,331.904510 643.724976,329.826874 641.829590,324.812866 
	C639.987183,319.939423 641.968445,315.038177 646.712036,312.734436 
	C651.037598,310.633698 656.337036,312.196777 658.877441,316.322784 
	C661.799316,321.068268 660.458679,326.011780 654.806396,330.146484 
z"/>
<path fill="#000000" opacity="1.000000" stroke="none" 
	d="
M586.216614,420.891663 
	C591.893188,421.680511 595.521057,424.645020 594.848083,428.937683 
	C594.219910,432.943939 596.201721,433.848846 598.961670,434.963104 
	C600.454651,435.565887 602.201660,435.893890 603.331665,437.989227 
	C598.427246,443.261658 594.479675,436.055634 589.829468,436.932892 
	C588.619995,439.325378 590.938171,440.712494 591.760925,442.486725 
	C592.468262,444.011993 592.830566,445.312103 591.107422,446.340210 
	C589.551941,447.268250 588.572571,446.345001 587.793274,445.181671 
	C584.275391,439.929932 580.830933,434.628906 577.289856,429.393005 
	C575.938782,427.395294 576.543091,426.125061 578.345825,424.839874 
	C580.668518,423.183990 583.012878,421.644348 586.216614,420.891663 
M589.773071,428.604950 
	C589.261475,426.638000 588.140625,425.290283 585.966064,425.536713 
	C584.662109,425.684448 583.001099,426.272644 582.892273,427.627289 
	C582.692749,430.109314 584.432434,431.727783 586.159241,433.111572 
	C588.393921,432.549408 589.496521,431.286835 589.773071,428.604950 
z"/>
<path fill="#000000" opacity="1.000000" stroke="none" 
	d="
M389.138794,236.852158 
	C392.894196,237.171219 395.939178,238.479507 397.013519,241.765045 
	C398.073517,245.006866 399.628021,245.958145 402.866547,245.192764 
	C404.525452,244.800705 406.496582,244.408218 408.236877,246.169632 
	C406.417969,253.259430 399.319824,248.072662 395.875183,251.330841 
	C396.201996,254.039169 398.887848,254.158401 400.411560,255.483871 
	C401.609924,256.526306 402.088409,257.490906 401.123108,258.883026 
	C400.307312,260.059540 399.258972,260.200684 398.092346,259.502930 
	C392.376617,256.084564 386.670227,252.650589 380.965942,249.213150 
	C379.610657,248.396469 379.186249,247.221771 379.969055,245.821075 
	C382.075531,242.051773 383.882050,237.961990 389.138794,236.852158 
M391.140259,249.143921 
	C393.118591,247.046021 394.406769,244.831314 391.540344,242.525391 
	C389.351105,240.764252 387.278442,241.616913 386.249969,243.804108 
	C384.241577,248.075165 388.721741,247.678772 391.140259,249.143921 
z"/>
<path fill="#000000" opacity="1.000000" stroke="none" 
	d="
M409.687775,386.883972 
	C411.113739,395.230865 408.455444,398.319366 400.307404,397.872772 
	C398.332428,397.764496 397.716461,398.619324 396.918671,399.966492 
	C395.761505,401.920532 395.252899,404.305969 392.891144,406.042969 
	C387.457184,400.836548 395.744324,397.027252 394.298828,392.249237 
	C391.837616,391.842804 390.337250,393.722046 388.486420,394.544159 
	C387.079346,395.169189 385.896118,395.292755 385.049103,393.874146 
	C384.207825,392.465088 384.763672,391.310364 386.076294,390.520966 
	C391.614410,387.190430 397.171906,383.892151 402.712006,380.564911 
	C404.538361,379.468018 405.848572,380.045471 406.830231,381.754578 
	C407.737122,383.333557 408.612488,384.930603 409.687775,386.883972 
M400.098511,387.721985 
	C397.493896,389.223236 398.418427,390.840790 399.977570,392.427094 
	C401.373322,393.847076 402.924774,393.723053 404.378601,392.576080 
	C406.243256,391.105011 406.231232,389.165466 405.174011,387.298920 
	C403.725037,384.740662 402.154236,386.718231 400.098511,387.721985 
z"/>
<path fill="#000000" opacity="1.000000" stroke="none" 
	d="
M580.185547,211.493561 
	C582.294922,203.938904 587.721558,198.607895 591.525208,192.290451 
	C591.814148,191.810577 592.563171,191.419205 593.146667,191.339066 
	C595.251892,191.049927 601.874573,196.487579 602.815002,199.267258 
	C604.139404,203.182022 602.711304,206.980743 599.325378,208.070160 
	C594.238159,209.706970 593.901489,212.900024 594.160034,217.045151 
	C594.208618,217.825012 593.864624,218.629349 593.550110,220.160828 
	C586.542419,217.537781 591.902222,210.578400 588.546997,207.181229 
	C586.197998,207.279526 585.833435,209.425674 584.767883,210.749481 
	C583.513245,212.308304 582.371887,213.657852 580.185547,211.493561 
M597.595886,203.334961 
	C599.426147,200.702759 598.054993,198.887314 595.797058,197.791489 
	C593.097656,196.481384 592.666748,199.347031 591.542847,200.695953 
	C590.791077,201.598236 590.540161,202.825089 591.743530,203.726852 
	C593.491638,205.036911 595.301086,205.279297 597.595886,203.334961 
z"/>
<path fill="#000000" opacity="1.000000" stroke="none" 
	d="
M552.867432,458.049438 
	C551.009705,452.635925 549.265564,447.605072 547.574158,442.556549 
	C547.114014,441.182953 546.265808,439.622864 548.391907,438.786041 
	C550.612610,437.912018 551.388855,439.435089 552.020935,441.068939 
	C552.732910,442.909241 553.372925,444.777405 553.980225,446.456512 
	C556.249390,447.369537 557.801697,445.983673 559.519531,445.569611 
	C562.381836,444.879669 563.350342,443.189087 562.048157,440.389587 
	C561.700073,439.641296 561.550781,438.802643 561.280579,438.015656 
	C560.700867,436.327667 560.326172,434.618103 562.547058,433.910797 
	C564.554626,433.271454 565.127136,434.860046 565.629028,436.315063 
	C567.636414,442.134735 569.616394,447.963867 571.624939,453.783142 
	C572.172668,455.370239 572.291138,456.756378 570.283142,457.355194 
	C568.235352,457.965912 567.660889,456.476166 567.110962,455.053314 
	C566.341675,453.062805 565.641113,451.045685 565.038086,449.388824 
	C563.146973,448.488617 562.012939,449.479401 560.758728,449.753967 
	C556.794983,450.621552 555.529236,452.666534 557.308960,456.561951 
	C558.065979,458.218933 559.513245,460.622864 556.859009,461.763153 
	C554.005554,462.989044 553.903137,460.019562 552.867432,458.049438 
z"/>
<path fill="#000000" opacity="1.000000" stroke="none" 
	d="
M551.852173,198.766541 
	C548.573425,198.291580 548.834412,196.449860 549.589172,194.334549 
	C551.539490,188.868622 553.436646,183.383698 555.388550,177.918335 
	C555.940613,176.372559 556.399658,174.424088 558.720398,175.273285 
	C560.899475,176.070679 560.499817,177.893921 559.755920,179.443893 
	C557.701904,183.723877 558.162170,186.629929 563.441040,187.743637 
	C565.775146,188.236069 567.309509,188.194214 567.867126,185.506821 
	C568.066223,184.547272 568.530823,183.629990 568.958435,182.733582 
	C569.648010,181.288300 570.068909,179.271240 572.364685,180.053986 
	C574.606201,180.818237 574.010010,182.554520 573.433472,184.189285 
	C571.502808,189.663513 569.593689,195.145370 567.653137,200.616074 
	C567.093567,202.193588 566.562134,204.050919 564.270874,203.189987 
	C562.000793,202.337036 562.756409,200.476410 563.363159,198.987534 
	C564.915283,195.178711 565.497864,192.153763 560.110962,190.899979 
	C557.203857,190.223404 555.803467,190.637100 554.903748,193.508209 
	C554.329285,195.341385 554.074585,197.469650 551.852173,198.766541 
z"/>
<path fill="#000000" opacity="1.000000" stroke="none" 
	d="
M410.914734,420.650787 
	C408.210815,421.532501 405.644257,423.660645 403.776184,419.110352 
	C410.531799,414.811707 417.762482,411.252014 425.225311,408.348694 
	C427.729370,407.374481 430.526642,410.133759 429.477661,412.726135 
	C426.522827,420.028870 422.788269,427.016144 419.411652,434.022705 
	C416.502441,433.304626 415.256683,431.950562 416.254974,429.886810 
	C418.947723,424.319946 414.886475,422.629578 410.914734,420.650787 
M423.211884,415.723145 
	C423.150421,415.182037 424.520416,413.710327 422.940857,414.271851 
	C420.724640,415.059753 418.226959,415.896484 416.735077,418.118134 
	C417.466248,419.748169 418.198120,421.183563 420.489868,421.043457 
	C421.297577,419.469452 422.126953,417.853241 423.211884,415.723145 
z"/>
<path fill="#000000" opacity="1.000000" stroke="none" 
	d="
M410.497498,225.424255 
	C408.819702,221.940903 407.263885,218.813034 405.801575,215.642075 
	C405.111572,214.145920 405.344849,212.767685 406.640350,211.577499 
	C407.833344,210.481445 409.045563,209.780960 410.663635,210.586929 
	C417.473480,213.979095 424.281403,217.375046 431.197083,220.822952 
	C430.318634,224.171478 428.585999,224.936340 426.279388,223.601532 
	C423.641541,222.075043 422.038635,223.107224 420.302704,225.044174 
	C418.602692,226.941132 416.654114,228.529968 418.421661,231.461472 
	C419.743286,233.653473 419.050385,235.242279 416.342407,236.053787 
	C413.379791,233.241287 412.699402,229.108734 410.497498,225.424255 
M415.935760,223.042236 
	C417.013153,222.297104 418.131622,221.582321 418.180695,219.827362 
	C416.370575,218.134766 414.134186,217.123108 411.511475,216.596024 
	C412.778564,218.914856 412.685028,221.866684 415.935760,223.042236 
z"/>
<path fill="#000000" opacity="1.000000" stroke="none" 
	d="
M648.316345,367.894409 
	C649.985779,365.403168 649.178711,360.136047 653.035767,361.471893 
	C656.491943,362.668915 653.287415,366.411957 652.510376,368.799988 
	C650.221985,375.832916 650.078308,375.767853 643.182800,373.255981 
	C638.815125,371.665009 634.448547,370.064789 630.038513,368.597809 
	C627.425659,367.728699 626.687683,366.227234 627.695557,363.678345 
	C628.670898,361.211456 629.461121,358.671631 630.422729,356.198853 
	C630.915771,354.931305 631.615723,353.649658 633.344788,354.348297 
	C634.986267,355.011597 634.717773,356.358398 634.384338,357.726196 
	C633.881592,359.788940 632.605530,361.666199 632.817505,363.940430 
	C636.023682,366.359253 638.232971,365.884552 639.463013,361.914795 
	C639.951477,360.338470 640.542786,358.359680 642.758118,359.118683 
	C645.172058,359.945648 643.722717,361.805023 643.427307,363.321228 
	C643.132080,364.836823 641.515503,366.512451 643.383301,367.855194 
	C644.752075,368.839264 646.418213,370.268768 648.316345,367.894409 
z"/>
<path fill="#000000" opacity="1.000000" stroke="none" 
	d="
M645.620361,280.350494 
	C645.222839,279.388855 644.943604,278.782349 644.719238,278.156128 
	C643.940308,275.982697 642.736023,274.689606 640.218750,275.791412 
	C637.932739,276.792053 638.354004,278.440979 638.783081,280.382904 
	C639.229004,282.401489 642.013916,285.341858 638.804382,286.387024 
	C635.426636,287.486969 635.970398,283.247589 634.836060,281.356750 
	C634.168213,280.243622 634.068848,278.805664 633.527344,277.597351 
	C632.330017,274.925385 632.883728,273.245178 635.824829,272.263916 
	C641.348999,270.420837 646.834595,268.452606 652.281372,266.391357 
	C654.733215,265.463470 656.052429,266.234039 656.838989,268.566833 
	C657.742676,271.246765 658.717834,273.902679 659.670227,276.566101 
	C660.212341,278.081940 659.837646,279.269867 658.246033,279.703583 
	C656.808472,280.095276 656.176453,279.021240 655.727661,277.870026 
	C654.947388,275.868469 654.172058,273.864929 653.335510,271.709900 
	C648.857788,271.833679 646.933228,273.294464 648.966675,277.803894 
	C649.523560,279.039032 650.414734,280.733154 648.633118,281.815033 
	C647.393616,282.567719 646.429504,281.827057 645.620361,280.350494 
z"/>
<path fill="#000000" opacity="1.000000" stroke="none" 
	d="
M638.242676,246.057007 
	C641.617249,245.609665 645.258545,242.820801 647.408691,248.628632 
	C639.404175,250.561386 631.939575,252.575729 624.373962,254.083466 
	C621.459167,254.664337 619.295532,251.133621 621.045471,248.784424 
	C625.582642,242.693604 630.438904,236.840500 635.191162,230.863159 
	C639.072693,232.619461 638.291687,234.714081 636.526001,236.900040 
	C633.634827,240.479462 630.696716,244.021011 627.378967,248.065414 
	C631.489075,248.502655 634.595337,246.876846 638.242676,246.057007 
z"/>
<path fill="#000000" opacity="1.000000" stroke="none" 
	d="
M622.762756,386.135620 
	C621.849182,384.917633 621.111023,384.015106 620.480530,383.042755 
	C619.601501,381.687073 620.001770,380.475983 621.184143,379.549500 
	C622.459900,378.549866 623.415710,379.463104 624.136841,380.364319 
	C628.491577,385.806793 632.939148,391.185547 637.041748,396.814392 
	C638.845398,399.288971 636.767212,402.718719 633.806946,402.097351 
	C626.241577,400.509369 618.781677,398.419312 611.226501,396.516693 
	C612.883118,392.030151 613.047302,392.000977 619.982056,393.917114 
	C623.436768,394.871735 626.904114,395.780701 631.635010,397.051178 
	C628.173645,392.796478 625.579895,389.608215 622.762756,386.135620 
z"/>
<path fill="#000000" opacity="1.000000" stroke="none" 
	d="
M494.580200,467.692200 
	C492.658844,467.160126 490.556793,467.779266 489.989227,465.627106 
	C489.445465,463.565155 491.218414,462.791840 492.499207,461.762604 
	C494.828857,459.890564 497.237976,458.090027 499.373444,456.012482 
	C501.062592,454.369202 502.493103,452.238098 501.186798,449.771301 
	C500.054443,447.632935 497.801971,448.098236 495.806183,448.213104 
	C494.855286,448.267853 493.898621,448.222534 492.842316,448.222534 
	C492.172485,445.014404 493.921661,444.025726 496.284302,443.772186 
	C500.113342,443.361267 504.137482,443.720917 505.686188,447.717194 
	C508.506165,454.993713 503.024231,458.940125 497.998260,463.332916 
	C500.154724,463.899597 501.856995,464.350464 503.561279,464.793518 
	C504.690247,465.087006 505.253754,465.802734 505.108948,466.968750 
	C504.951813,468.233948 504.032104,468.564240 502.948151,468.481781 
	C500.296265,468.280121 497.648834,468.019867 494.580200,467.692200 
z"/>
<path fill="#000000" opacity="1.000000" stroke="none" 
	d="
M499.505920,189.050583 
	C501.223846,190.082260 502.829468,189.257065 504.455261,189.193680 
	C505.755890,189.142975 506.803406,189.583633 506.928070,191.029358 
	C507.056610,192.519653 506.006897,193.038574 504.748901,193.192200 
	C501.625092,193.573608 498.502594,193.991013 495.367340,194.240601 
	C494.130432,194.339096 492.589844,194.688629 491.917419,193.053589 
	C491.235443,191.395294 492.207245,190.264603 493.230499,189.088028 
	C494.968689,187.089539 496.695007,185.064468 498.232361,182.912048 
	C499.840057,180.661102 500.941467,177.925949 499.150055,175.518219 
	C497.278259,173.002426 494.668060,174.415344 492.350311,175.368118 
	C491.921600,175.544373 491.409454,175.517670 490.939270,175.584137 
	C489.201385,173.932739 489.835541,172.502914 491.360077,171.431137 
	C494.453979,169.256058 497.922943,168.855515 501.224396,170.659180 
	C504.547424,172.474640 505.256165,175.637970 504.572571,179.243088 
	C503.862762,182.986221 501.444244,185.766571 499.505920,189.050583 
z"/>
<path fill="#000000" opacity="1.000000" stroke="none" 
	d="
M399.274750,366.336975 
	C399.462067,367.912872 399.455933,369.211151 397.916504,369.397003 
	C394.761322,369.777985 395.645630,366.149536 393.514648,364.943512 
	C388.531128,365.628296 383.738800,368.059418 378.636169,369.382782 
	C376.942596,369.821991 374.899078,371.077301 374.030121,368.454926 
	C373.170807,365.861908 375.549561,365.509033 377.165436,364.917908 
	C380.124481,363.835571 383.139496,362.902557 386.146576,361.956177 
	C389.346924,360.948914 392.892853,360.320923 391.647278,355.488037 
	C391.370026,354.412231 392.003784,353.525238 393.125671,353.253723 
	C394.652161,352.884216 395.186798,354.006226 395.575256,355.135895 
	C396.815826,358.743500 398.010040,362.367035 399.274750,366.336975 
z"/>
<path fill="#000000" opacity="1.000000" stroke="none" 
	d="
M391.166718,281.225433 
	C386.249725,282.134216 382.431763,279.314514 378.157654,278.311737 
	C376.089111,277.826447 374.067596,277.140594 372.504578,276.685303 
	C369.865387,277.636963 370.486603,282.438049 367.302155,280.779114 
	C364.157318,279.140869 367.173615,276.428955 367.611786,274.263062 
	C368.101349,271.842987 369.040283,269.504639 369.894104,267.171112 
	C370.358398,265.902191 371.062042,264.641693 372.780701,265.179718 
	C374.208862,265.626801 374.409943,266.871613 373.947632,268.018127 
	C372.504730,271.596344 374.989349,272.289764 377.465607,273.090393 
	C381.250763,274.314209 385.044830,275.515930 388.793579,276.844269 
	C390.621246,277.491913 392.948212,278.028320 391.166718,281.225433 
z"/>
<path fill="#000000" opacity="1.000000" stroke="none" 
	d="
M519.005859,446.504211 
	C518.882507,445.245239 519.101318,444.226746 519.971191,444.104004 
	C524.396240,443.479462 528.840149,442.981628 533.284790,442.508850 
	C534.386963,442.391663 535.210571,442.944061 535.383545,444.141937 
	C535.554199,445.323639 535.027405,446.170532 533.848755,446.236603 
	C529.896362,446.458099 530.042358,449.156250 530.292114,451.937653 
	C530.662354,456.061340 531.053101,460.183258 531.437622,464.305664 
	C531.581543,465.848358 531.726562,467.517700 529.635376,467.731903 
	C527.372314,467.963715 526.977478,466.236572 526.771545,464.492828 
	C526.441223,461.695496 525.877258,458.899628 525.848145,456.098633 
	C525.798401,451.310211 525.767883,446.748810 519.005859,446.504211 
z"/>
<path fill="#000000" opacity="1.000000" stroke="none" 
	d="
M530.310974,189.986694 
	C530.120789,192.112457 529.985840,194.005188 527.625183,193.732132 
	C525.655945,193.504364 525.603882,191.756958 525.714783,190.253815 
	C526.043091,185.805222 526.340149,181.347198 526.908630,176.926208 
	C527.235535,174.383667 526.889038,172.685562 523.971497,172.388260 
	C522.712708,172.259995 521.691467,171.728104 521.875427,170.196869 
	C522.070374,168.573883 523.375916,168.576614 524.512146,168.669693 
	C527.971008,168.953018 531.421814,169.336746 534.873596,169.702103 
	C536.341370,169.857468 538.125244,169.798920 538.076416,171.925034 
	C538.026184,174.111221 536.324646,173.899643 534.798157,173.823135 
	C534.160889,173.791183 533.518066,173.873032 532.659851,173.913376 
	C530.599426,178.994034 531.626343,184.465576 530.310974,189.986694 
z"/>
<path fill="#000000" opacity="1.000000" stroke="none" 
	d="
M613.685913,423.292175 
	C609.480164,419.033447 605.505493,415.040619 601.572693,411.007019 
	C600.379822,409.783630 599.214111,408.450104 601.074524,406.826172 
	C602.655701,405.445862 603.851196,406.478943 604.918335,407.563751 
	C609.100952,411.815704 613.256104,416.095093 617.387085,420.397217 
	C618.513977,421.570831 620.076355,422.864746 618.446777,424.602112 
	C616.517761,426.658691 615.260803,424.687805 613.685913,423.292175 
z"/>
<path fill="#000000" opacity="1.000000" stroke="none" 
	d="
M443.128662,429.153503 
	C444.011292,427.921600 444.662903,426.966125 445.368683,426.052521 
	C446.238861,424.926178 447.270020,424.913055 448.396332,425.693085 
	C449.566528,426.503448 449.756866,427.605835 449.043945,428.707794 
	C445.366302,434.392334 441.651184,440.053131 437.890381,445.682983 
	C437.043304,446.951019 435.798553,447.339294 434.510345,446.238922 
	C433.035828,444.979401 433.574127,443.584503 434.445648,442.259888 
	C437.260162,437.982330 440.094757,433.717957 443.128662,429.153503 
z"/>
<path fill="#000000" opacity="1.000000" stroke="none" 
	d="
M443.938293,206.215912 
	C444.731140,207.521164 445.394623,208.481491 445.886353,209.522919 
	C446.475983,210.771851 446.003357,211.772079 444.847992,212.449265 
	C443.297058,213.358322 442.355255,212.442688 441.576080,211.264282 
	C438.016296,205.880569 434.473907,200.485275 430.934509,195.088089 
	C430.126587,193.856079 429.863983,192.645554 431.283051,191.631378 
	C432.927002,190.456436 434.040131,191.245468 434.971893,192.654282 
	C437.893188,197.071167 440.812714,201.489273 443.938293,206.215912 
z"/>
<path fill="#000000" opacity="1.000000" stroke="none" 
	d="
M606.222778,227.173798 
	C610.322388,223.017761 614.151733,219.079742 618.049561,215.210754 
	C619.292664,213.976868 620.609009,212.096832 622.593018,214.105957 
	C624.350769,215.885986 622.717041,217.107574 621.580078,218.267242 
	C617.501953,222.426956 613.394165,226.557770 609.281860,230.683762 
	C608.098511,231.870987 606.848755,233.332993 605.101074,231.613251 
	C603.339783,229.880142 604.864075,228.649750 606.222778,227.173798 
z"/>
</svg>