<svg xmlns="http://www.w3.org/2000/svg" xmlns:xlink="http://www.w3.org/1999/xlink" width="500" zoomAndPan="magnify" viewBox="0 0 375 374.999991" height="500" preserveAspectRatio="xMidYMid meet" version="1.0"><defs><g/><clipPath id="f1b29e20a8"><path d="M 144 106.121094 L 232 106.121094 L 232 204 L 144 204 Z M 144 106.121094 " clip-rule="nonzero"/></clipPath><clipPath id="b57578ea20"><path d="M 169 210 L 207 210 L 207 212.570312 L 169 212.570312 Z M 169 210 " clip-rule="nonzero"/></clipPath><clipPath id="f195e0992b"><path d="M 118.308594 201 L 257.058594 201 L 257.058594 205 L 118.308594 205 Z M 118.308594 201 " clip-rule="nonzero"/></clipPath></defs><g clip-path="url(#f1b29e20a8)"><path fill="#1a1a1a" d="M 197.832031 150.621094 C 197.832031 150.621094 199.546875 152.988281 203.027344 153.046875 C 203.027344 153.046875 202.90625 154.105469 203.136719 154.433594 C 203.367188 154.757812 203.878906 155.355469 203.785156 155.730469 C 203.691406 156.105469 203.777344 156.519531 203.847656 156.683594 C 203.914062 156.84375 203.429688 157.144531 203.492188 157.683594 C 203.558594 158.222656 203.265625 158.738281 202.992188 158.933594 C 202.722656 159.125 202.179688 159.480469 202.097656 160.230469 C 202.019531 160.984375 202.136719 161.773438 201.699219 162.398438 C 201.257812 163.019531 200.730469 163.589844 200.726562 164.089844 C 200.71875 164.59375 200.199219 164.53125 199.496094 164.976562 C 198.789062 165.414062 193.785156 169.714844 191.351562 172.234375 C 188.917969 174.753906 184.996094 178.332031 184.167969 178.753906 C 183.335938 179.175781 180.378906 180.214844 180.378906 180.214844 C 180.378906 180.214844 183.757812 176.8125 185.828125 174.933594 C 187.894531 173.054688 193.019531 167.660156 194.085938 165.484375 C 195.152344 163.308594 196.839844 157.121094 196.847656 156.421875 C 196.859375 155.722656 197.902344 152.199219 197.832031 150.621094 M 162.707031 110.957031 C 162.707031 110.957031 162.976562 110.816406 163.648438 111.015625 C 164.320312 111.210938 164.894531 111.070312 165.453125 110.808594 C 166.015625 110.546875 166.164062 109.851562 166.738281 109.945312 C 167.3125 110.042969 172.171875 112.125 177.734375 115.167969 C 183.300781 118.210938 184.503906 118.171875 185.75 119.191406 C 186.992188 120.210938 189.164062 121.761719 191.792969 122.597656 C 194.421875 123.4375 196.167969 124.515625 197.050781 125.890625 C 197.929688 127.261719 199.734375 129.597656 199.984375 129.710938 C 199.984375 129.710938 199.503906 129.59375 199.265625 129.84375 C 199.027344 130.09375 198.792969 130.269531 198.457031 130.070312 C 198.117188 129.867188 197.457031 129.480469 196.855469 128.632812 C 196.253906 127.78125 194.980469 126.3125 194.375 125.875 C 193.769531 125.4375 193.050781 124.066406 191.867188 123.835938 C 190.6875 123.609375 190.222656 123.351562 188.953125 122.835938 C 187.6875 122.316406 186.960938 121.519531 185.453125 121.503906 C 183.945312 121.484375 181.4375 122.386719 179.441406 125.738281 C 177.445312 129.085938 179.757812 134.066406 182.253906 135.421875 C 184.753906 136.78125 186.851562 136.910156 188.304688 136.785156 C 189.761719 136.660156 190.832031 135.722656 190.832031 135.722656 C 190.832031 135.722656 194.21875 136.261719 194.894531 136.664062 C 194.894531 136.664062 194.378906 139.476562 192.984375 140.429688 C 191.59375 141.378906 189.457031 142.808594 189.558594 146.667969 C 189.65625 150.527344 190.894531 153.609375 190.578125 155.898438 C 190.265625 158.191406 190.011719 161.457031 189.535156 162.382812 C 189.058594 163.308594 187.042969 165.351562 185.960938 167.238281 C 184.878906 169.128906 182.585938 172.734375 180.964844 174.761719 C 179.34375 176.789062 177.429688 179.167969 176.867188 179.558594 C 176.308594 179.945312 174.03125 181.28125 173.523438 181.6875 C 173.015625 182.097656 169.5625 184.207031 169.253906 184.472656 C 168.945312 184.738281 169.140625 185.171875 169.140625 185.171875 L 171.15625 184.441406 C 171.15625 184.441406 167.113281 186.511719 166.355469 186.792969 C 165.597656 187.070312 162.832031 188.867188 162.828125 189.207031 C 162.824219 189.546875 163.273438 191.023438 163.867188 192.25 C 163.867188 192.25 162.863281 190.695312 162.621094 189.832031 C 162.621094 189.832031 157.566406 192.535156 156.355469 193.257812 C 155.144531 193.980469 151.816406 195.84375 150.894531 196.746094 C 149.96875 197.652344 148.675781 199.070312 147.953125 199.492188 C 147.230469 199.914062 144.171875 202.121094 144.347656 202.394531 C 144.523438 202.664062 144.878906 202.8125 144.878906 202.8125 C 144.878906 202.8125 144.824219 203.171875 145.144531 203.28125 C 145.144531 203.28125 145.695312 203.792969 146.289062 203.601562 C 146.289062 203.601562 146.929688 204.21875 147.921875 203.746094 C 147.921875 203.746094 148.78125 203.988281 149.894531 203.785156 C 151.011719 203.585938 150.796875 203.257812 151.265625 203.15625 C 151.734375 203.054688 152.511719 202.667969 152.640625 202.238281 C 152.773438 201.808594 152.925781 201.078125 153.71875 200.601562 C 154.515625 200.125 155.34375 199.957031 155.917969 198.386719 C 155.917969 198.386719 156.992188 197.085938 159.28125 196.074219 C 161.574219 195.058594 165.101562 194.1875 165.101562 194.1875 C 165.101562 194.1875 165.886719 194.859375 166.027344 194.804688 C 166.171875 194.753906 168.269531 193.359375 170.160156 193.023438 C 172.050781 192.6875 175.398438 191.6875 177.511719 190.742188 C 179.621094 189.796875 181.160156 188.738281 183.066406 188.4375 C 184.972656 188.136719 186.988281 187.75 190.5625 185.976562 C 194.136719 184.207031 196.957031 182.285156 202.167969 180.410156 C 207.378906 178.53125 208.230469 177.789062 209.097656 177.347656 C 209.964844 176.910156 211.546875 176.570312 212.527344 177.011719 C 213.511719 177.453125 215.039062 178.78125 215.660156 181.066406 C 216.277344 183.351562 218.425781 188.671875 218.621094 190.179688 C 218.820312 191.691406 219.558594 199.160156 220.726562 200.574219 C 221.894531 201.988281 224 203.070312 225.578125 203.25 C 227.15625 203.429688 229.636719 201.574219 230.523438 199.199219 C 231.414062 196.824219 230.941406 194.433594 230.503906 193.277344 C 230.070312 192.125 229.902344 191.066406 229.785156 190.21875 C 229.671875 189.375 230.597656 177.546875 228.484375 171.027344 C 228.484375 171.027344 229.035156 170.117188 228.914062 169.425781 C 228.800781 168.734375 227.96875 168.167969 227.773438 167.519531 C 227.574219 166.871094 227.363281 165.695312 227.363281 165.695312 C 227.363281 165.695312 226.988281 156.289062 222.441406 146.046875 C 217.890625 135.800781 214.214844 131.09375 211.582031 128.769531 C 208.953125 126.441406 207.050781 123.296875 204.519531 121.902344 C 201.988281 120.511719 191.378906 115.902344 188.804688 115.011719 C 186.230469 114.121094 185.257812 112.78125 182.113281 111.597656 C 178.96875 110.410156 173.40625 108.765625 171.867188 108.15625 C 170.332031 107.546875 168.3125 106.753906 167.738281 106.710938 C 167.164062 106.667969 160.328125 106.550781 159.039062 106.429688 C 157.746094 106.304688 156.542969 106.3125 155.933594 106.394531 C 155.320312 106.476562 153.332031 106.078125 153.1875 106.144531 C 153.042969 106.214844 152.605469 106.804688 152.800781 106.949219 C 152.996094 107.09375 154.554688 107.363281 155.484375 107.75 C 156.414062 108.140625 157.753906 108.65625 159.152344 108.816406 C 160.550781 108.976562 161.78125 109.4375 161.925781 109.566406 C 162.066406 109.695312 160.929688 110.199219 160.925781 110.578125 C 160.921875 110.953125 160.761719 112.421875 162.707031 110.957031 Z M 162.707031 110.957031 " fill-opacity="1" fill-rule="evenodd"/></g><path fill="#1a1a1a" d="M 163.835938 205.960938 L 211.53125 205.960938 C 220.675781 205.960938 228.148438 206.53125 228.148438 207.226562 C 228.148438 207.921875 220.675781 208.492188 211.53125 208.492188 L 163.835938 208.492188 C 154.691406 208.492188 147.21875 207.921875 147.21875 207.226562 C 147.21875 206.53125 154.691406 205.960938 163.835938 205.960938 " fill-opacity="1" fill-rule="evenodd"/><g clip-path="url(#b57578ea20)"><path fill="#1a1a1a" d="M 185.878906 210.035156 L 189.492188 210.035156 C 198.636719 210.035156 206.113281 210.605469 206.113281 211.300781 C 206.113281 211.996094 198.636719 212.566406 189.492188 212.566406 L 185.878906 212.566406 C 176.734375 212.566406 169.257812 211.996094 169.257812 211.300781 C 169.257812 210.605469 176.734375 210.035156 185.878906 210.035156 " fill-opacity="1" fill-rule="evenodd"/></g><g clip-path="url(#f195e0992b)"><path fill="#1a1a1a" d="M 134.929688 201.886719 L 240.4375 201.886719 C 249.582031 201.886719 257.058594 202.453125 257.058594 203.152344 C 257.058594 203.847656 249.582031 204.417969 240.4375 204.417969 L 134.929688 204.417969 C 125.785156 204.417969 118.308594 203.847656 118.308594 203.152344 C 118.308594 202.453125 125.785156 201.886719 134.929688 201.886719 " fill-opacity="1" fill-rule="evenodd"/></g><g fill="#1a1a1a" fill-opacity="1"><g transform="translate(35.98213, 249.543104)"><g><path d="M 11.5 -12.4375 L 22.546875 0 L 16.515625 0 L 8.40625 -9.34375 L 6.4375 -7.328125 L 6.4375 0 L 1.515625 0 L 1.515625 -22.90625 L 6.4375 -22.90625 L 6.4375 -13.640625 L 15.640625 -22.90625 L 21.90625 -22.90625 Z M 11.5 -12.4375 "/></g></g></g><g fill="#1a1a1a" fill-opacity="1"><g transform="translate(59.955235, 249.543104)"><g><path d="M 18 -16.09375 C 18 -15.363281 17.894531 -14.664062 17.6875 -14 C 17.488281 -13.34375 17.203125 -12.738281 16.828125 -12.1875 C 16.460938 -11.644531 16.019531 -11.160156 15.5 -10.734375 C 14.988281 -10.316406 14.429688 -9.976562 13.828125 -9.71875 L 21.421875 0 L 15.703125 0 L 8.625 -9.234375 L 6.4375 -9.234375 L 6.4375 0 L 1.515625 0 L 1.515625 -22.90625 L 11.40625 -22.90625 C 12.3125 -22.90625 13.164062 -22.726562 13.96875 -22.375 C 14.78125 -22.019531 15.484375 -21.535156 16.078125 -20.921875 C 16.671875 -20.304688 17.140625 -19.582031 17.484375 -18.75 C 17.828125 -17.925781 18 -17.039062 18 -16.09375 Z M 10.796875 -13.703125 C 11.421875 -13.703125 11.957031 -13.929688 12.40625 -14.390625 C 12.863281 -14.859375 13.09375 -15.425781 13.09375 -16.09375 C 13.09375 -16.738281 12.863281 -17.289062 12.40625 -17.75 C 11.957031 -18.21875 11.421875 -18.453125 10.796875 -18.453125 L 6.4375 -18.453125 L 6.4375 -13.703125 Z M 10.796875 -13.703125 "/></g></g></g><g fill="#1a1a1a" fill-opacity="1"><g transform="translate(83.120628, 249.543104)"><g><path d="M 9.859375 -22.90625 L 9.859375 -18.78125 L 8.140625 -18.78125 L 8.140625 -4.109375 L 9.859375 -4.109375 L 9.859375 0 L 1.515625 0 L 1.515625 -4.109375 L 3.234375 -4.109375 L 3.234375 -18.78125 L 1.515625 -18.78125 L 1.515625 -22.90625 Z M 9.859375 -22.90625 "/></g></g></g><g fill="#1a1a1a" fill-opacity="1"><g transform="translate(95.430316, 249.543104)"><g><path d="M 16.09375 -11.796875 C 17 -11.253906 17.6875 -10.5625 18.15625 -9.71875 C 18.632812 -8.882812 18.875 -7.914062 18.875 -6.8125 C 18.875 -5.78125 18.625 -4.816406 18.125 -3.921875 C 17.632812 -3.023438 16.9375 -2.234375 16.03125 -1.546875 C 15.207031 -0.921875 14.273438 -0.441406 13.234375 -0.109375 C 12.191406 0.222656 11.085938 0.398438 9.921875 0.421875 C 8.753906 0.421875 7.644531 0.257812 6.59375 -0.0625 C 5.539062 -0.382812 4.601562 -0.867188 3.78125 -1.515625 C 2.550781 -2.441406 1.710938 -3.5625 1.265625 -4.875 L 5.78125 -6.984375 C 5.78125 -6.765625 5.851562 -6.492188 6 -6.171875 C 6.15625 -5.847656 6.394531 -5.535156 6.71875 -5.234375 C 7.039062 -4.929688 7.457031 -4.671875 7.96875 -4.453125 C 8.488281 -4.242188 9.128906 -4.140625 9.890625 -4.140625 C 10.492188 -4.140625 11.023438 -4.210938 11.484375 -4.359375 C 11.953125 -4.515625 12.34375 -4.703125 12.65625 -4.921875 C 12.96875 -5.148438 13.203125 -5.410156 13.359375 -5.703125 C 13.523438 -5.992188 13.609375 -6.289062 13.609375 -6.59375 C 13.609375 -6.9375 13.492188 -7.257812 13.265625 -7.5625 C 13.035156 -7.863281 12.6875 -8.097656 12.21875 -8.265625 C 11.351562 -8.566406 10.441406 -8.820312 9.484375 -9.03125 C 8.523438 -9.238281 7.59375 -9.5 6.6875 -9.8125 C 5.78125 -10.125 4.9375 -10.535156 4.15625 -11.046875 C 3.382812 -11.566406 2.773438 -12.289062 2.328125 -13.21875 C 1.921875 -14.03125 1.71875 -14.898438 1.71875 -15.828125 C 1.71875 -16.867188 1.957031 -17.875 2.4375 -18.84375 C 2.925781 -19.8125 3.585938 -20.628906 4.421875 -21.296875 C 5.222656 -21.921875 6.117188 -22.398438 7.109375 -22.734375 C 8.097656 -23.066406 9.144531 -23.234375 10.25 -23.234375 C 11.34375 -23.234375 12.390625 -23.070312 13.390625 -22.75 C 14.390625 -22.425781 15.289062 -21.953125 16.09375 -21.328125 C 16.863281 -20.742188 17.476562 -20.066406 17.9375 -19.296875 L 14.25 -16.765625 C 13.800781 -17.390625 13.234375 -17.890625 12.546875 -18.265625 C 11.867188 -18.648438 11.113281 -18.84375 10.28125 -18.84375 C 9.113281 -18.84375 8.210938 -18.582031 7.578125 -18.0625 C 6.941406 -17.539062 6.625 -16.863281 6.625 -16.03125 C 6.625 -15.644531 6.800781 -15.300781 7.15625 -15 C 7.507812 -14.695312 7.972656 -14.425781 8.546875 -14.1875 C 9.117188 -13.945312 9.757812 -13.734375 10.46875 -13.546875 C 11.175781 -13.367188 11.878906 -13.1875 12.578125 -13 C 13.285156 -12.820312 13.953125 -12.632812 14.578125 -12.4375 C 15.203125 -12.25 15.707031 -12.035156 16.09375 -11.796875 Z M 16.09375 -11.796875 "/></g></g></g><g fill="#1a1a1a" fill-opacity="1"><g transform="translate(116.301797, 249.543104)"><g><path d="M 16.90625 -22.90625 L 21.8125 -22.90625 L 21.8125 0 L 16.90625 0 L 16.90625 -9.859375 L 6.390625 -9.859375 L 6.390625 0 L 1.515625 0 L 1.515625 -22.90625 L 6.390625 -22.90625 L 6.390625 -14.3125 L 16.90625 -14.3125 Z M 16.90625 -22.90625 "/></g></g></g><g fill="#1a1a1a" fill-opacity="1"><g transform="translate(140.597992, 249.543104)"><g><path d="M 15.609375 -22.90625 L 25.171875 0 L 19.875 0 L 17.796875 -4.90625 L 8.078125 -4.90625 L 6.046875 0 L 0.703125 0 L 10.28125 -22.90625 Z M 15.96875 -9.375 L 12.953125 -16.578125 L 9.953125 -9.375 Z M 15.96875 -9.375 "/></g></g></g><g fill="#1a1a1a" fill-opacity="1"><g transform="translate(167.446573, 249.543104)"><g><path d="M 6.4375 -4.421875 L 15.828125 -4.421875 L 15.828125 0 L 1.515625 0 L 1.515625 -22.90625 L 6.4375 -22.90625 Z M 6.4375 -4.421875 "/></g></g></g><g fill="#1a1a1a" fill-opacity="1"><g transform="translate(184.570252, 249.543104)"><g><path d="M 9.859375 -22.90625 L 9.859375 -18.78125 L 8.140625 -18.78125 L 8.140625 -4.109375 L 9.859375 -4.109375 L 9.859375 0 L 1.515625 0 L 1.515625 -4.109375 L 3.234375 -4.109375 L 3.234375 -18.78125 L 1.515625 -18.78125 L 1.515625 -22.90625 Z M 9.859375 -22.90625 "/></g></g></g><g fill="#1a1a1a" fill-opacity="1"><g transform="translate(196.87994, 249.543104)"><g/></g></g><g fill="#1a1a1a" fill-opacity="1"><g transform="translate(206.734172, 249.543104)"><g><path d="M 1.515625 -22.90625 L 15.828125 -22.90625 L 15.828125 -18.453125 L 6.4375 -18.453125 L 6.4375 -14.3125 L 14.703125 -14.3125 L 14.703125 -9.859375 L 6.4375 -9.859375 L 6.4375 0 L 1.515625 0 Z M 1.515625 -22.90625 "/></g></g></g><g fill="#1a1a1a" fill-opacity="1"><g transform="translate(223.954771, 249.543104)"><g><path d="M 9.859375 -22.90625 L 9.859375 -18.78125 L 8.140625 -18.78125 L 8.140625 -4.109375 L 9.859375 -4.109375 L 9.859375 0 L 1.515625 0 L 1.515625 -4.109375 L 3.234375 -4.109375 L 3.234375 -18.78125 L 1.515625 -18.78125 L 1.515625 -22.90625 Z M 9.859375 -22.90625 "/></g></g></g><g fill="#1a1a1a" fill-opacity="1"><g transform="translate(236.264458, 249.543104)"><g><path d="M 0.75 -22.90625 L 17.3125 -22.90625 L 17.3125 -18.453125 L 11.46875 -18.453125 L 11.46875 0 L 6.59375 0 L 6.59375 -18.453125 L 0.75 -18.453125 Z M 0.75 -22.90625 "/></g></g></g><g fill="#1a1a1a" fill-opacity="1"><g transform="translate(255.294356, 249.543104)"><g><path d="M 17.1875 -22.90625 L 22.0625 -22.90625 L 22.0625 0 L 17.421875 0 L 6.390625 -14.953125 L 6.390625 0 L 1.515625 0 L 1.515625 -22.90625 L 6.109375 -22.90625 L 17.1875 -7.859375 Z M 17.1875 -22.90625 "/></g></g></g><g fill="#1a1a1a" fill-opacity="1"><g transform="translate(279.849004, 249.543104)"><g><path d="M 1.546875 -22.90625 L 15.859375 -22.90625 L 15.859375 -18.453125 L 6.46875 -18.453125 L 6.46875 -14.3125 L 14.734375 -14.3125 L 14.734375 -9.859375 L 6.46875 -9.859375 L 6.46875 -4.421875 L 15.859375 -4.421875 L 15.859375 0 L 1.546875 0 Z M 1.546875 -22.90625 "/></g></g></g><g fill="#1a1a1a" fill-opacity="1"><g transform="translate(298.232723, 249.543104)"><g><path d="M 16.09375 -11.796875 C 17 -11.253906 17.6875 -10.5625 18.15625 -9.71875 C 18.632812 -8.882812 18.875 -7.914062 18.875 -6.8125 C 18.875 -5.78125 18.625 -4.816406 18.125 -3.921875 C 17.632812 -3.023438 16.9375 -2.234375 16.03125 -1.546875 C 15.207031 -0.921875 14.273438 -0.441406 13.234375 -0.109375 C 12.191406 0.222656 11.085938 0.398438 9.921875 0.421875 C 8.753906 0.421875 7.644531 0.257812 6.59375 -0.0625 C 5.539062 -0.382812 4.601562 -0.867188 3.78125 -1.515625 C 2.550781 -2.441406 1.710938 -3.5625 1.265625 -4.875 L 5.78125 -6.984375 C 5.78125 -6.765625 5.851562 -6.492188 6 -6.171875 C 6.15625 -5.847656 6.394531 -5.535156 6.71875 -5.234375 C 7.039062 -4.929688 7.457031 -4.671875 7.96875 -4.453125 C 8.488281 -4.242188 9.128906 -4.140625 9.890625 -4.140625 C 10.492188 -4.140625 11.023438 -4.210938 11.484375 -4.359375 C 11.953125 -4.515625 12.34375 -4.703125 12.65625 -4.921875 C 12.96875 -5.148438 13.203125 -5.410156 13.359375 -5.703125 C 13.523438 -5.992188 13.609375 -6.289062 13.609375 -6.59375 C 13.609375 -6.9375 13.492188 -7.257812 13.265625 -7.5625 C 13.035156 -7.863281 12.6875 -8.097656 12.21875 -8.265625 C 11.351562 -8.566406 10.441406 -8.820312 9.484375 -9.03125 C 8.523438 -9.238281 7.59375 -9.5 6.6875 -9.8125 C 5.78125 -10.125 4.9375 -10.535156 4.15625 -11.046875 C 3.382812 -11.566406 2.773438 -12.289062 2.328125 -13.21875 C 1.921875 -14.03125 1.71875 -14.898438 1.71875 -15.828125 C 1.71875 -16.867188 1.957031 -17.875 2.4375 -18.84375 C 2.925781 -19.8125 3.585938 -20.628906 4.421875 -21.296875 C 5.222656 -21.921875 6.117188 -22.398438 7.109375 -22.734375 C 8.097656 -23.066406 9.144531 -23.234375 10.25 -23.234375 C 11.34375 -23.234375 12.390625 -23.070312 13.390625 -22.75 C 14.390625 -22.425781 15.289062 -21.953125 16.09375 -21.328125 C 16.863281 -20.742188 17.476562 -20.066406 17.9375 -19.296875 L 14.25 -16.765625 C 13.800781 -17.390625 13.234375 -17.890625 12.546875 -18.265625 C 11.867188 -18.648438 11.113281 -18.84375 10.28125 -18.84375 C 9.113281 -18.84375 8.210938 -18.582031 7.578125 -18.0625 C 6.941406 -17.539062 6.625 -16.863281 6.625 -16.03125 C 6.625 -15.644531 6.800781 -15.300781 7.15625 -15 C 7.507812 -14.695312 7.972656 -14.425781 8.546875 -14.1875 C 9.117188 -13.945312 9.757812 -13.734375 10.46875 -13.546875 C 11.175781 -13.367188 11.878906 -13.1875 12.578125 -13 C 13.285156 -12.820312 13.953125 -12.632812 14.578125 -12.4375 C 15.203125 -12.25 15.707031 -12.035156 16.09375 -11.796875 Z M 16.09375 -11.796875 "/></g></g></g><g fill="#1a1a1a" fill-opacity="1"><g transform="translate(319.104204, 249.543104)"><g><path d="M 16.09375 -11.796875 C 17 -11.253906 17.6875 -10.5625 18.15625 -9.71875 C 18.632812 -8.882812 18.875 -7.914062 18.875 -6.8125 C 18.875 -5.78125 18.625 -4.816406 18.125 -3.921875 C 17.632812 -3.023438 16.9375 -2.234375 16.03125 -1.546875 C 15.207031 -0.921875 14.273438 -0.441406 13.234375 -0.109375 C 12.191406 0.222656 11.085938 0.398438 9.921875 0.421875 C 8.753906 0.421875 7.644531 0.257812 6.59375 -0.0625 C 5.539062 -0.382812 4.601562 -0.867188 3.78125 -1.515625 C 2.550781 -2.441406 1.710938 -3.5625 1.265625 -4.875 L 5.78125 -6.984375 C 5.78125 -6.765625 5.851562 -6.492188 6 -6.171875 C 6.15625 -5.847656 6.394531 -5.535156 6.71875 -5.234375 C 7.039062 -4.929688 7.457031 -4.671875 7.96875 -4.453125 C 8.488281 -4.242188 9.128906 -4.140625 9.890625 -4.140625 C 10.492188 -4.140625 11.023438 -4.210938 11.484375 -4.359375 C 11.953125 -4.515625 12.34375 -4.703125 12.65625 -4.921875 C 12.96875 -5.148438 13.203125 -5.410156 13.359375 -5.703125 C 13.523438 -5.992188 13.609375 -6.289062 13.609375 -6.59375 C 13.609375 -6.9375 13.492188 -7.257812 13.265625 -7.5625 C 13.035156 -7.863281 12.6875 -8.097656 12.21875 -8.265625 C 11.351562 -8.566406 10.441406 -8.820312 9.484375 -9.03125 C 8.523438 -9.238281 7.59375 -9.5 6.6875 -9.8125 C 5.78125 -10.125 4.9375 -10.535156 4.15625 -11.046875 C 3.382812 -11.566406 2.773438 -12.289062 2.328125 -13.21875 C 1.921875 -14.03125 1.71875 -14.898438 1.71875 -15.828125 C 1.71875 -16.867188 1.957031 -17.875 2.4375 -18.84375 C 2.925781 -19.8125 3.585938 -20.628906 4.421875 -21.296875 C 5.222656 -21.921875 6.117188 -22.398438 7.109375 -22.734375 C 8.097656 -23.066406 9.144531 -23.234375 10.25 -23.234375 C 11.34375 -23.234375 12.390625 -23.070312 13.390625 -22.75 C 14.390625 -22.425781 15.289062 -21.953125 16.09375 -21.328125 C 16.863281 -20.742188 17.476562 -20.066406 17.9375 -19.296875 L 14.25 -16.765625 C 13.800781 -17.390625 13.234375 -17.890625 12.546875 -18.265625 C 11.867188 -18.648438 11.113281 -18.84375 10.28125 -18.84375 C 9.113281 -18.84375 8.210938 -18.582031 7.578125 -18.0625 C 6.941406 -17.539062 6.625 -16.863281 6.625 -16.03125 C 6.625 -15.644531 6.800781 -15.300781 7.15625 -15 C 7.507812 -14.695312 7.972656 -14.425781 8.546875 -14.1875 C 9.117188 -13.945312 9.757812 -13.734375 10.46875 -13.546875 C 11.175781 -13.367188 11.878906 -13.1875 12.578125 -13 C 13.285156 -12.820312 13.953125 -12.632812 14.578125 -12.4375 C 15.203125 -12.25 15.707031 -12.035156 16.09375 -11.796875 Z M 16.09375 -11.796875 "/></g></g></g><g fill="#1a1a1a" fill-opacity="1"><g transform="translate(84.963509, 267.011893)"><g><path d="M 2.34375 -2.53125 C 1.695312 -2.71875 1.226562 -2.945312 0.9375 -3.21875 C 0.644531 -3.488281 0.5 -3.820312 0.5 -4.21875 C 0.5 -4.664062 0.675781 -5.035156 1.03125 -5.328125 C 1.382812 -5.617188 1.847656 -5.765625 2.421875 -5.765625 C 2.816406 -5.765625 3.164062 -5.6875 3.46875 -5.53125 C 3.78125 -5.382812 4.019531 -5.175781 4.1875 -4.90625 C 4.351562 -4.644531 4.4375 -4.359375 4.4375 -4.046875 L 3.6875 -4.046875 C 3.6875 -4.390625 3.578125 -4.660156 3.359375 -4.859375 C 3.140625 -5.054688 2.828125 -5.15625 2.421875 -5.15625 C 2.054688 -5.15625 1.769531 -5.070312 1.5625 -4.90625 C 1.351562 -4.738281 1.25 -4.515625 1.25 -4.234375 C 1.25 -3.992188 1.347656 -3.796875 1.546875 -3.640625 C 1.742188 -3.484375 2.078125 -3.335938 2.546875 -3.203125 C 3.023438 -3.066406 3.394531 -2.914062 3.65625 -2.75 C 3.925781 -2.59375 4.125 -2.40625 4.25 -2.1875 C 4.382812 -1.976562 4.453125 -1.734375 4.453125 -1.453125 C 4.453125 -0.984375 4.269531 -0.609375 3.90625 -0.328125 C 3.550781 -0.0546875 3.070312 0.078125 2.46875 0.078125 C 2.070312 0.078125 1.703125 0.00390625 1.359375 -0.140625 C 1.023438 -0.296875 0.765625 -0.503906 0.578125 -0.765625 C 0.398438 -1.023438 0.3125 -1.320312 0.3125 -1.65625 L 1.0625 -1.65625 C 1.0625 -1.3125 1.1875 -1.035156 1.4375 -0.828125 C 1.695312 -0.628906 2.039062 -0.53125 2.46875 -0.53125 C 2.863281 -0.53125 3.164062 -0.609375 3.375 -0.765625 C 3.582031 -0.929688 3.6875 -1.15625 3.6875 -1.4375 C 3.6875 -1.71875 3.585938 -1.929688 3.390625 -2.078125 C 3.203125 -2.234375 2.851562 -2.382812 2.34375 -2.53125 Z M 2.34375 -2.53125 "/></g></g></g><g fill="#1a1a1a" fill-opacity="1"><g transform="translate(96.109631, 267.011893)"><g><path d="M 1.40625 -2.234375 L 1.40625 0 L 0.65625 0 L 0.65625 -5.6875 L 2.765625 -5.6875 C 3.378906 -5.6875 3.863281 -5.523438 4.21875 -5.203125 C 4.570312 -4.890625 4.75 -4.472656 4.75 -3.953125 C 4.75 -3.398438 4.578125 -2.972656 4.234375 -2.671875 C 3.890625 -2.378906 3.394531 -2.234375 2.75 -2.234375 Z M 1.40625 -2.84375 L 2.765625 -2.84375 C 3.160156 -2.84375 3.460938 -2.9375 3.671875 -3.125 C 3.890625 -3.3125 4 -3.582031 4 -3.9375 C 4 -4.28125 3.890625 -4.550781 3.671875 -4.75 C 3.460938 -4.957031 3.171875 -5.066406 2.796875 -5.078125 L 1.40625 -5.078125 Z M 1.40625 -2.84375 "/></g></g></g><g fill="#1a1a1a" fill-opacity="1"><g transform="translate(107.556534, 267.011893)"><g><path d="M 5.03125 -2.65625 C 5.03125 -2.101562 4.9375 -1.617188 4.75 -1.203125 C 4.5625 -0.785156 4.296875 -0.46875 3.953125 -0.25 C 3.609375 -0.03125 3.207031 0.078125 2.75 0.078125 C 2.300781 0.078125 1.90625 -0.03125 1.5625 -0.25 C 1.21875 -0.46875 0.945312 -0.78125 0.75 -1.1875 C 0.5625 -1.601562 0.46875 -2.078125 0.46875 -2.609375 L 0.46875 -3.015625 C 0.46875 -3.566406 0.5625 -4.050781 0.75 -4.46875 C 0.9375 -4.882812 1.203125 -5.203125 1.546875 -5.421875 C 1.898438 -5.648438 2.300781 -5.765625 2.75 -5.765625 C 3.207031 -5.765625 3.609375 -5.65625 3.953125 -5.4375 C 4.296875 -5.21875 4.5625 -4.898438 4.75 -4.484375 C 4.9375 -4.066406 5.03125 -3.578125 5.03125 -3.015625 Z M 4.296875 -3.03125 C 4.296875 -3.707031 4.160156 -4.222656 3.890625 -4.578125 C 3.617188 -4.941406 3.238281 -5.125 2.75 -5.125 C 2.269531 -5.125 1.894531 -4.941406 1.625 -4.578125 C 1.351562 -4.222656 1.210938 -3.722656 1.203125 -3.078125 L 1.203125 -2.65625 C 1.203125 -2.007812 1.335938 -1.5 1.609375 -1.125 C 1.890625 -0.75 2.269531 -0.5625 2.75 -0.5625 C 3.238281 -0.5625 3.613281 -0.738281 3.875 -1.09375 C 4.144531 -1.445312 4.285156 -1.953125 4.296875 -2.609375 Z M 4.296875 -3.03125 "/></g></g></g><g fill="#1a1a1a" fill-opacity="1"><g transform="translate(119.456563, 267.011893)"><g><path d="M 2.75 -2.296875 L 1.40625 -2.296875 L 1.40625 0 L 0.65625 0 L 0.65625 -5.6875 L 2.546875 -5.6875 C 3.179688 -5.6875 3.671875 -5.539062 4.015625 -5.25 C 4.359375 -4.957031 4.53125 -4.535156 4.53125 -3.984375 C 4.53125 -3.628906 4.4375 -3.316406 4.25 -3.046875 C 4.0625 -2.785156 3.796875 -2.59375 3.453125 -2.46875 L 4.78125 -0.046875 L 4.78125 0 L 3.984375 0 Z M 1.40625 -2.921875 L 2.5625 -2.921875 C 2.9375 -2.921875 3.234375 -3.015625 3.453125 -3.203125 C 3.671875 -3.398438 3.78125 -3.660156 3.78125 -3.984375 C 3.78125 -4.328125 3.675781 -4.59375 3.46875 -4.78125 C 3.257812 -4.96875 2.957031 -5.066406 2.5625 -5.078125 L 1.40625 -5.078125 Z M 1.40625 -2.921875 "/></g></g></g><g fill="#1a1a1a" fill-opacity="1"><g transform="translate(130.782373, 267.011893)"><g><path d="M 4.59375 -5.078125 L 2.765625 -5.078125 L 2.765625 0 L 2.015625 0 L 2.015625 -5.078125 L 0.1875 -5.078125 L 0.1875 -5.6875 L 4.59375 -5.6875 Z M 4.59375 -5.078125 "/></g></g></g><g fill="#1a1a1a" fill-opacity="1"><g transform="translate(141.955838, 267.011893)"><g><path d="M 2.34375 -2.53125 C 1.695312 -2.71875 1.226562 -2.945312 0.9375 -3.21875 C 0.644531 -3.488281 0.5 -3.820312 0.5 -4.21875 C 0.5 -4.664062 0.675781 -5.035156 1.03125 -5.328125 C 1.382812 -5.617188 1.847656 -5.765625 2.421875 -5.765625 C 2.816406 -5.765625 3.164062 -5.6875 3.46875 -5.53125 C 3.78125 -5.382812 4.019531 -5.175781 4.1875 -4.90625 C 4.351562 -4.644531 4.4375 -4.359375 4.4375 -4.046875 L 3.6875 -4.046875 C 3.6875 -4.390625 3.578125 -4.660156 3.359375 -4.859375 C 3.140625 -5.054688 2.828125 -5.15625 2.421875 -5.15625 C 2.054688 -5.15625 1.769531 -5.070312 1.5625 -4.90625 C 1.351562 -4.738281 1.25 -4.515625 1.25 -4.234375 C 1.25 -3.992188 1.347656 -3.796875 1.546875 -3.640625 C 1.742188 -3.484375 2.078125 -3.335938 2.546875 -3.203125 C 3.023438 -3.066406 3.394531 -2.914062 3.65625 -2.75 C 3.925781 -2.59375 4.125 -2.40625 4.25 -2.1875 C 4.382812 -1.976562 4.453125 -1.734375 4.453125 -1.453125 C 4.453125 -0.984375 4.269531 -0.609375 3.90625 -0.328125 C 3.550781 -0.0546875 3.070312 0.078125 2.46875 0.078125 C 2.070312 0.078125 1.703125 0.00390625 1.359375 -0.140625 C 1.023438 -0.296875 0.765625 -0.503906 0.578125 -0.765625 C 0.398438 -1.023438 0.3125 -1.320312 0.3125 -1.65625 L 1.0625 -1.65625 C 1.0625 -1.3125 1.1875 -1.035156 1.4375 -0.828125 C 1.695312 -0.628906 2.039062 -0.53125 2.46875 -0.53125 C 2.863281 -0.53125 3.164062 -0.609375 3.375 -0.765625 C 3.582031 -0.929688 3.6875 -1.15625 3.6875 -1.4375 C 3.6875 -1.71875 3.585938 -1.929688 3.390625 -2.078125 C 3.203125 -2.234375 2.851562 -2.382812 2.34375 -2.53125 Z M 2.34375 -2.53125 "/></g></g></g><g fill="#1a1a1a" fill-opacity="1"><g transform="translate(153.101959, 267.011893)"><g/></g></g><g fill="#1a1a1a" fill-opacity="1"><g transform="translate(161.482447, 267.011893)"><g><path d="M 3.796875 -1.484375 L 1.421875 -1.484375 L 0.890625 0 L 0.109375 0 L 2.28125 -5.6875 L 2.9375 -5.6875 L 5.109375 0 L 4.34375 0 Z M 1.640625 -2.109375 L 3.578125 -2.109375 L 2.609375 -4.765625 Z M 1.640625 -2.109375 "/></g></g></g><g fill="#1a1a1a" fill-opacity="1"><g transform="translate(173.101225, 267.011893)"><g><path d="M 5.03125 0 L 4.28125 0 L 1.421875 -4.390625 L 1.421875 0 L 0.65625 0 L 0.65625 -5.6875 L 1.421875 -5.6875 L 4.28125 -1.28125 L 4.28125 -5.6875 L 5.03125 -5.6875 Z M 5.03125 0 "/></g></g></g><g fill="#1a1a1a" fill-opacity="1"><g transform="translate(185.20438, 267.011893)"><g><path d="M 0.65625 0 L 0.65625 -5.6875 L 2.265625 -5.6875 C 2.765625 -5.6875 3.203125 -5.578125 3.578125 -5.359375 C 3.960938 -5.140625 4.253906 -4.828125 4.453125 -4.421875 C 4.660156 -4.023438 4.769531 -3.5625 4.78125 -3.03125 L 4.78125 -2.671875 C 4.78125 -2.140625 4.675781 -1.671875 4.46875 -1.265625 C 4.257812 -0.859375 3.960938 -0.546875 3.578125 -0.328125 C 3.191406 -0.117188 2.742188 -0.0078125 2.234375 0 Z M 1.40625 -5.078125 L 1.40625 -0.609375 L 2.203125 -0.609375 C 2.773438 -0.609375 3.222656 -0.785156 3.546875 -1.140625 C 3.867188 -1.503906 4.03125 -2.019531 4.03125 -2.6875 L 4.03125 -3.015625 C 4.03125 -3.660156 3.878906 -4.160156 3.578125 -4.515625 C 3.273438 -4.878906 2.84375 -5.066406 2.28125 -5.078125 Z M 1.40625 -5.078125 "/></g></g></g><g fill="#1a1a1a" fill-opacity="1"><g transform="translate(196.850503, 267.011893)"><g/></g></g><g fill="#1a1a1a" fill-opacity="1"><g transform="translate(205.230991, 267.011893)"><g><path d="M 1.890625 -1.796875 L 2 -1.046875 L 2.15625 -1.71875 L 3.28125 -5.6875 L 3.921875 -5.6875 L 5.015625 -1.71875 L 5.171875 -1.03125 L 5.296875 -1.796875 L 6.171875 -5.6875 L 6.921875 -5.6875 L 5.546875 0 L 4.859375 0 L 3.6875 -4.140625 L 3.609375 -4.578125 L 3.515625 -4.140625 L 2.296875 0 L 1.609375 0 L 0.234375 -5.6875 L 0.984375 -5.6875 Z M 1.890625 -1.796875 "/></g></g></g><g fill="#1a1a1a" fill-opacity="1"><g transform="translate(218.728681, 267.011893)"><g><path d="M 3.875 -2.625 L 1.40625 -2.625 L 1.40625 -0.609375 L 4.28125 -0.609375 L 4.28125 0 L 0.65625 0 L 0.65625 -5.6875 L 4.234375 -5.6875 L 4.234375 -5.078125 L 1.40625 -5.078125 L 1.40625 -3.25 L 3.875 -3.25 Z M 3.875 -2.625 "/></g></g></g><g fill="#1a1a1a" fill-opacity="1"><g transform="translate(229.675583, 267.011893)"><g><path d="M 1.421875 -0.609375 L 4.109375 -0.609375 L 4.109375 0 L 0.65625 0 L 0.65625 -5.6875 L 1.421875 -5.6875 Z M 1.421875 -0.609375 "/></g></g></g><g fill="#1a1a1a" fill-opacity="1"><g transform="translate(240.380296, 267.011893)"><g><path d="M 1.421875 -0.609375 L 4.109375 -0.609375 L 4.109375 0 L 0.65625 0 L 0.65625 -5.6875 L 1.421875 -5.6875 Z M 1.421875 -0.609375 "/></g></g></g><g fill="#1a1a1a" fill-opacity="1"><g transform="translate(251.08501, 267.011893)"><g><path d="M 5.03125 0 L 4.28125 0 L 1.421875 -4.390625 L 1.421875 0 L 0.65625 0 L 0.65625 -5.6875 L 1.421875 -5.6875 L 4.28125 -1.28125 L 4.28125 -5.6875 L 5.03125 -5.6875 Z M 5.03125 0 "/></g></g></g><g fill="#1a1a1a" fill-opacity="1"><g transform="translate(263.188165, 267.011893)"><g><path d="M 3.875 -2.625 L 1.40625 -2.625 L 1.40625 -0.609375 L 4.28125 -0.609375 L 4.28125 0 L 0.65625 0 L 0.65625 -5.6875 L 4.234375 -5.6875 L 4.234375 -5.078125 L 1.40625 -5.078125 L 1.40625 -3.25 L 3.875 -3.25 Z M 3.875 -2.625 "/></g></g></g><g fill="#1a1a1a" fill-opacity="1"><g transform="translate(274.135057, 267.011893)"><g><path d="M 2.34375 -2.53125 C 1.695312 -2.71875 1.226562 -2.945312 0.9375 -3.21875 C 0.644531 -3.488281 0.5 -3.820312 0.5 -4.21875 C 0.5 -4.664062 0.675781 -5.035156 1.03125 -5.328125 C 1.382812 -5.617188 1.847656 -5.765625 2.421875 -5.765625 C 2.816406 -5.765625 3.164062 -5.6875 3.46875 -5.53125 C 3.78125 -5.382812 4.019531 -5.175781 4.1875 -4.90625 C 4.351562 -4.644531 4.4375 -4.359375 4.4375 -4.046875 L 3.6875 -4.046875 C 3.6875 -4.390625 3.578125 -4.660156 3.359375 -4.859375 C 3.140625 -5.054688 2.828125 -5.15625 2.421875 -5.15625 C 2.054688 -5.15625 1.769531 -5.070312 1.5625 -4.90625 C 1.351562 -4.738281 1.25 -4.515625 1.25 -4.234375 C 1.25 -3.992188 1.347656 -3.796875 1.546875 -3.640625 C 1.742188 -3.484375 2.078125 -3.335938 2.546875 -3.203125 C 3.023438 -3.066406 3.394531 -2.914062 3.65625 -2.75 C 3.925781 -2.59375 4.125 -2.40625 4.25 -2.1875 C 4.382812 -1.976562 4.453125 -1.734375 4.453125 -1.453125 C 4.453125 -0.984375 4.269531 -0.609375 3.90625 -0.328125 C 3.550781 -0.0546875 3.070312 0.078125 2.46875 0.078125 C 2.070312 0.078125 1.703125 0.00390625 1.359375 -0.140625 C 1.023438 -0.296875 0.765625 -0.503906 0.578125 -0.765625 C 0.398438 -1.023438 0.3125 -1.320312 0.3125 -1.65625 L 1.0625 -1.65625 C 1.0625 -1.3125 1.1875 -1.035156 1.4375 -0.828125 C 1.695312 -0.628906 2.039062 -0.53125 2.46875 -0.53125 C 2.863281 -0.53125 3.164062 -0.609375 3.375 -0.765625 C 3.582031 -0.929688 3.6875 -1.15625 3.6875 -1.4375 C 3.6875 -1.71875 3.585938 -1.929688 3.390625 -2.078125 C 3.203125 -2.234375 2.851562 -2.382812 2.34375 -2.53125 Z M 2.34375 -2.53125 "/></g></g></g><g fill="#1a1a1a" fill-opacity="1"><g transform="translate(285.281188, 267.011893)"><g><path d="M 2.34375 -2.53125 C 1.695312 -2.71875 1.226562 -2.945312 0.9375 -3.21875 C 0.644531 -3.488281 0.5 -3.820312 0.5 -4.21875 C 0.5 -4.664062 0.675781 -5.035156 1.03125 -5.328125 C 1.382812 -5.617188 1.847656 -5.765625 2.421875 -5.765625 C 2.816406 -5.765625 3.164062 -5.6875 3.46875 -5.53125 C 3.78125 -5.382812 4.019531 -5.175781 4.1875 -4.90625 C 4.351562 -4.644531 4.4375 -4.359375 4.4375 -4.046875 L 3.6875 -4.046875 C 3.6875 -4.390625 3.578125 -4.660156 3.359375 -4.859375 C 3.140625 -5.054688 2.828125 -5.15625 2.421875 -5.15625 C 2.054688 -5.15625 1.769531 -5.070312 1.5625 -4.90625 C 1.351562 -4.738281 1.25 -4.515625 1.25 -4.234375 C 1.25 -3.992188 1.347656 -3.796875 1.546875 -3.640625 C 1.742188 -3.484375 2.078125 -3.335938 2.546875 -3.203125 C 3.023438 -3.066406 3.394531 -2.914062 3.65625 -2.75 C 3.925781 -2.59375 4.125 -2.40625 4.25 -2.1875 C 4.382812 -1.976562 4.453125 -1.734375 4.453125 -1.453125 C 4.453125 -0.984375 4.269531 -0.609375 3.90625 -0.328125 C 3.550781 -0.0546875 3.070312 0.078125 2.46875 0.078125 C 2.070312 0.078125 1.703125 0.00390625 1.359375 -0.140625 C 1.023438 -0.296875 0.765625 -0.503906 0.578125 -0.765625 C 0.398438 -1.023438 0.3125 -1.320312 0.3125 -1.65625 L 1.0625 -1.65625 C 1.0625 -1.3125 1.1875 -1.035156 1.4375 -0.828125 C 1.695312 -0.628906 2.039062 -0.53125 2.46875 -0.53125 C 2.863281 -0.53125 3.164062 -0.609375 3.375 -0.765625 C 3.582031 -0.929688 3.6875 -1.15625 3.6875 -1.4375 C 3.6875 -1.71875 3.585938 -1.929688 3.390625 -2.078125 C 3.203125 -2.234375 2.851562 -2.382812 2.34375 -2.53125 Z M 2.34375 -2.53125 "/></g></g></g></svg>