<svg xmlns="http://www.w3.org/2000/svg" xmlns:xlink="http://www.w3.org/1999/xlink" width="500" zoomAndPan="magnify" viewBox="0 0 375 374.999991" height="500" preserveAspectRatio="xMidYMid meet" version="1.0"><defs><clipPath id="406239c483"><path d="M 70 30.21875 L 305 30.21875 L 305 295 L 70 295 Z M 70 30.21875 " clip-rule="nonzero"/></clipPath><clipPath id="81cf33a3c7"><path d="M 137 311 L 238 311 L 238 318.097656 L 137 318.097656 Z M 137 311 " clip-rule="nonzero"/></clipPath></defs><rect x="-37.5" width="450" fill="#ffffff" y="-37.499999" height="449.999989" fill-opacity="1"/><rect x="-37.5" width="450" fill="#000000" y="-37.499999" height="449.999989" fill-opacity="1"/><g clip-path="url(#406239c483)"><path fill="#ffffff" d="M 214.925781 150.550781 C 214.925781 150.550781 219.554688 156.960938 228.964844 157.117188 C 228.964844 157.117188 228.640625 159.976562 229.261719 160.859375 C 229.882812 161.738281 231.269531 163.355469 231.015625 164.367188 C 230.761719 165.386719 230.992188 166.503906 231.179688 166.941406 C 231.367188 167.382812 230.050781 168.191406 230.226562 169.648438 C 230.40625 171.105469 229.613281 172.503906 228.875 173.03125 C 228.144531 173.554688 226.675781 174.507812 226.457031 176.542969 C 226.242188 178.578125 226.554688 180.714844 225.375 182.398438 C 224.1875 184.082031 222.765625 185.621094 222.75 186.976562 C 222.730469 188.335938 221.328125 188.171875 219.421875 189.367188 C 217.515625 190.554688 203.992188 202.1875 197.410156 209 C 190.832031 215.808594 180.238281 225.484375 177.996094 226.625 C 175.746094 227.765625 167.761719 230.578125 167.761719 230.578125 C 167.761719 230.578125 176.890625 221.371094 182.480469 216.292969 C 188.070312 211.21875 201.917969 196.628906 204.800781 190.746094 C 207.683594 184.859375 212.246094 168.128906 212.265625 166.238281 C 212.292969 164.34375 215.117188 154.820312 214.925781 150.550781 M 119.992188 43.300781 C 119.992188 43.300781 120.726562 42.921875 122.535156 43.453125 C 124.351562 43.980469 125.90625 43.609375 127.417969 42.902344 C 128.933594 42.191406 129.339844 40.304688 130.890625 40.566406 C 132.441406 40.824219 145.570312 46.460938 160.609375 54.691406 C 175.652344 62.917969 178.902344 62.8125 182.265625 65.566406 C 185.628906 68.320312 191.5 72.515625 198.605469 74.78125 C 205.707031 77.042969 210.429688 79.964844 212.808594 83.675781 C 215.191406 87.390625 220.070312 93.707031 220.746094 94.003906 C 220.746094 94.003906 219.441406 93.699219 218.796875 94.375 C 218.160156 95.046875 217.527344 95.519531 216.609375 94.976562 C 215.691406 94.433594 213.910156 93.390625 212.289062 91.09375 C 210.664062 88.796875 207.21875 84.824219 205.582031 83.644531 C 203.949219 82.457031 202 78.75 198.808594 78.128906 C 195.613281 77.507812 194.359375 76.816406 190.929688 75.417969 C 187.503906 74.019531 185.539062 71.859375 181.464844 71.816406 C 177.390625 71.765625 170.617188 74.207031 165.226562 83.269531 C 159.832031 92.324219 166.078125 105.789062 172.828125 109.457031 C 179.578125 113.125 185.25 113.480469 189.179688 113.140625 C 193.117188 112.796875 196.007812 110.261719 196.007812 110.261719 C 196.007812 110.261719 205.160156 111.726562 206.992188 112.8125 C 206.992188 112.8125 205.59375 120.414062 201.824219 122.988281 C 198.0625 125.566406 192.292969 129.425781 192.558594 139.859375 C 192.824219 150.296875 196.171875 158.628906 195.324219 164.828125 C 194.476562 171.027344 193.789062 179.851562 192.5 182.355469 C 191.210938 184.863281 185.761719 190.378906 182.839844 195.492188 C 179.914062 200.597656 173.714844 210.351562 169.335938 215.828125 C 164.953125 221.308594 159.78125 227.75 158.265625 228.796875 C 156.75 229.847656 150.597656 233.464844 149.226562 234.5625 C 147.855469 235.664062 138.523438 241.375 137.691406 242.09375 C 136.855469 242.8125 137.378906 243.980469 137.378906 243.980469 L 142.832031 242.011719 C 142.832031 242.011719 131.898438 247.605469 129.855469 248.359375 C 127.808594 249.109375 120.328125 253.972656 120.316406 254.894531 C 120.304688 255.816406 121.523438 259.808594 123.132812 263.125 C 123.132812 263.125 120.414062 258.921875 119.765625 256.582031 C 119.765625 256.582031 106.097656 263.894531 102.820312 265.847656 C 99.550781 267.796875 90.5625 272.835938 88.0625 275.28125 C 85.558594 277.726562 82.070312 281.566406 80.117188 282.707031 C 78.160156 283.847656 69.894531 289.816406 70.371094 290.550781 C 70.847656 291.285156 71.8125 291.683594 71.8125 291.683594 C 71.8125 291.683594 71.65625 292.652344 72.527344 292.953125 C 72.527344 292.953125 74.015625 294.328125 75.617188 293.8125 C 75.617188 293.8125 77.347656 295.480469 80.03125 294.203125 C 80.03125 294.203125 82.351562 294.863281 85.363281 294.316406 C 88.378906 293.769531 87.808594 292.886719 89.070312 292.613281 C 90.339844 292.335938 92.433594 291.292969 92.789062 290.132812 C 93.140625 288.972656 93.550781 286.988281 95.703125 285.703125 C 97.851562 284.417969 100.085938 283.960938 101.644531 279.710938 C 101.644531 279.710938 104.542969 276.199219 110.738281 273.460938 C 116.929688 270.71875 126.464844 268.355469 126.464844 268.355469 C 126.464844 268.355469 128.582031 270.171875 128.96875 270.03125 C 129.363281 269.890625 135.03125 266.125 140.136719 265.214844 C 145.242188 264.300781 154.296875 261.597656 160 259.039062 C 165.707031 256.488281 169.863281 253.628906 175.015625 252.8125 C 180.167969 252 185.613281 250.949219 195.273438 246.160156 C 204.9375 241.375 212.5625 236.175781 226.644531 231.101562 C 240.722656 226.023438 243.027344 224.011719 245.371094 222.828125 C 247.710938 221.644531 251.992188 220.722656 254.648438 221.914062 C 257.300781 223.113281 261.429688 226.703125 263.105469 232.882812 C 264.777344 239.0625 270.578125 253.441406 271.113281 257.523438 C 271.648438 261.605469 273.644531 281.808594 276.804688 285.628906 C 279.960938 289.449219 285.652344 292.378906 289.914062 292.867188 C 294.179688 293.351562 300.882812 288.335938 303.285156 281.910156 C 305.6875 275.488281 304.40625 269.019531 303.226562 265.902344 C 302.054688 262.785156 301.601562 259.917969 301.289062 257.632812 C 300.972656 255.347656 303.484375 223.359375 297.769531 205.730469 C 297.769531 205.730469 299.253906 203.277344 298.9375 201.402344 C 298.621094 199.53125 296.378906 198 295.84375 196.246094 C 295.304688 194.496094 294.738281 191.3125 294.738281 191.3125 C 294.738281 191.3125 293.722656 165.878906 281.433594 138.179688 C 269.140625 110.480469 259.199219 97.753906 252.09375 91.460938 C 244.984375 85.167969 239.84375 76.664062 233.003906 72.902344 C 226.15625 69.132812 197.484375 56.671875 190.527344 54.257812 C 183.570312 51.851562 180.945312 48.230469 172.441406 45.027344 C 163.941406 41.820312 148.90625 37.375 144.753906 35.726562 C 140.597656 34.082031 135.144531 31.929688 133.589844 31.816406 C 132.042969 31.699219 113.5625 31.386719 110.074219 31.054688 C 106.582031 30.722656 103.332031 30.734375 101.683594 30.957031 C 100.03125 31.183594 94.65625 30.101562 94.265625 30.289062 C 93.875 30.480469 92.691406 32.066406 93.222656 32.460938 C 93.75 32.855469 97.964844 33.582031 100.472656 34.628906 C 102.984375 35.679688 106.605469 37.078125 110.386719 37.511719 C 114.167969 37.945312 117.496094 39.191406 117.882812 39.539062 C 118.265625 39.882812 115.191406 41.253906 115.179688 42.273438 C 115.167969 43.292969 114.734375 47.265625 119.992188 43.300781 Z M 119.992188 43.300781 " fill-opacity="1" fill-rule="evenodd"/></g><path fill="#ffffff" d="M 123.046875 300.195312 L 251.953125 300.195312 C 276.667969 300.195312 296.863281 301.734375 296.863281 303.617188 C 296.863281 305.5 276.667969 307.039062 251.953125 307.039062 L 123.046875 307.039062 C 98.332031 307.039062 78.136719 305.5 78.136719 303.617188 C 78.136719 301.734375 98.332031 300.195312 123.046875 300.195312 " fill-opacity="1" fill-rule="evenodd"/><g clip-path="url(#81cf33a3c7)"><path fill="#ffffff" d="M 182.621094 311.210938 L 192.382812 311.210938 C 217.09375 311.210938 237.300781 312.753906 237.300781 314.632812 C 237.300781 316.519531 217.097656 318.058594 192.382812 318.058594 L 182.621094 318.058594 C 157.90625 318.058594 137.699219 316.519531 137.699219 314.632812 C 137.699219 312.753906 157.90625 311.210938 182.621094 311.210938 " fill-opacity="1" fill-rule="evenodd"/></g><path fill="#ffffff" d="M 44.921875 289.175781 L 330.078125 289.175781 C 354.792969 289.175781 375 290.714844 375 292.597656 C 375 294.480469 354.796875 296.023438 330.078125 296.023438 L 44.921875 296.023438 C 20.207031 296.023438 0 294.480469 0 292.597656 C 0 290.714844 20.207031 289.175781 44.921875 289.175781 " fill-opacity="1" fill-rule="evenodd"/></svg>