<svg xmlns="http://www.w3.org/2000/svg" xmlns:xlink="http://www.w3.org/1999/xlink" width="500" zoomAndPan="magnify" viewBox="0 0 375 374.999991" height="500" preserveAspectRatio="xMidYMid meet" version="1.0"><defs><g/><clipPath id="a2c5d62f61"><path d="M 177 110.339844 L 190 110.339844 L 190 173 L 177 173 Z M 177 110.339844 " clip-rule="nonzero"/></clipPath><clipPath id="2c4c30d700"><path d="M 186 110.339844 L 198 110.339844 L 198 173 L 186 173 Z M 186 110.339844 " clip-rule="nonzero"/></clipPath><clipPath id="2c3f6ccb87"><path d="M 229 197 L 253.949219 197 L 253.949219 213.839844 L 229 213.839844 Z M 229 197 " clip-rule="nonzero"/></clipPath><clipPath id="bfa8a81f77"><path d="M 121.199219 197 L 146 197 L 146 213.839844 L 121.199219 213.839844 Z M 121.199219 197 " clip-rule="nonzero"/></clipPath></defs><path fill="#375726" d="M 160.039062 184.214844 C 157.289062 182.746094 155.101562 180.46875 153.753906 177.652344 C 152.242188 174.5 152.078125 170.800781 153.078125 167.472656 C 153.613281 165.683594 150.820312 164.921875 150.285156 166.703125 C 147.964844 174.429688 151.464844 182.910156 158.578125 186.714844 C 160.21875 187.59375 161.683594 185.097656 160.039062 184.214844 " fill-opacity="1" fill-rule="nonzero"/><path fill="#375726" d="M 146.636719 184.734375 C 148.144531 188.386719 150.867188 191.4375 154.457031 193.148438 C 155.164062 193.484375 156.019531 193.34375 156.4375 192.628906 C 156.808594 192 156.628906 190.988281 155.917969 190.652344 C 153.050781 189.28125 150.648438 186.925781 149.429688 183.964844 C 149.128906 183.242188 148.46875 182.726562 147.648438 182.953125 C 146.964844 183.140625 146.335938 184.003906 146.636719 184.734375 " fill-opacity="1" fill-rule="nonzero"/><path fill="#375726" d="M 158.5625 173.933594 C 160.425781 173.933594 160.429688 171.039062 158.5625 171.039062 C 156.703125 171.039062 156.699219 173.933594 158.5625 173.933594 " fill-opacity="1" fill-rule="nonzero"/><path fill="#375726" d="M 160.890625 162.046875 C 162.753906 162.046875 162.753906 159.152344 160.890625 159.152344 C 159.027344 159.152344 159.023438 162.046875 160.890625 162.046875 " fill-opacity="1" fill-rule="nonzero"/><path fill="#375726" d="M 153.960938 199.164062 C 156.742188 193.542969 159.75 188.046875 162.796875 182.5625 C 164.238281 179.964844 165.710938 177.363281 166.851562 174.617188 C 168.382812 170.925781 168.613281 167.050781 168.578125 163.101562 C 168.539062 159.117188 168.410156 155.125 168.457031 151.140625 C 168.46875 149.898438 168.535156 148.660156 168.664062 147.425781 C 168.699219 147.070312 168.601562 147.75 168.664062 147.425781 C 168.679688 147.339844 168.691406 147.257812 168.707031 147.171875 C 168.730469 147.03125 168.757812 146.886719 168.785156 146.746094 C 168.828125 146.554688 168.878906 146.359375 168.933594 146.167969 C 169.257812 145.019531 169.695312 143.933594 170.289062 142.894531 C 170.925781 141.769531 171.453125 141.0625 172.214844 140.183594 C 173.265625 138.964844 174.242188 137.714844 175.054688 136.320312 C 178.238281 130.855469 179.640625 124.402344 180.59375 118.222656 C 180.714844 117.449219 180.398438 116.664062 179.585938 116.441406 C 178.898438 116.253906 177.925781 116.675781 177.804688 117.453125 C 177.28125 120.824219 176.609375 124.183594 175.632812 127.457031 C 175.257812 128.703125 174.839844 129.933594 174.359375 131.140625 C 174.304688 131.277344 174.25 131.414062 174.195312 131.546875 C 174.015625 131.984375 174.304688 131.300781 174.121094 131.726562 C 174.011719 131.976562 173.902344 132.226562 173.789062 132.476562 C 173.574219 132.9375 173.351562 133.394531 173.117188 133.84375 C 172.707031 134.621094 172.265625 135.382812 171.773438 136.109375 C 171.578125 136.398438 171.371094 136.679688 171.164062 136.960938 C 170.976562 137.222656 171.375 136.703125 171.175781 136.949219 C 171.121094 137.015625 171.066406 137.085938 171.011719 137.152344 C 170.890625 137.304688 170.765625 137.453125 170.636719 137.597656 C 168.941406 139.558594 167.503906 141.585938 166.585938 144.035156 C 166.039062 145.492188 165.78125 146.960938 165.664062 148.515625 C 165.394531 152.105469 165.597656 155.742188 165.640625 159.339844 C 165.683594 163.167969 166.007812 167.164062 165.058594 170.910156 C 164.261719 174.050781 162.605469 176.90625 161.058594 179.722656 C 157.785156 185.679688 154.476562 191.605469 151.460938 197.703125 C 151.113281 198.402344 151.273438 199.269531 151.980469 199.683594 C 152.617188 200.058594 153.609375 199.867188 153.960938 199.164062 " fill-opacity="1" fill-rule="nonzero"/><g clip-path="url(#a2c5d62f61)"><path fill="#375726" d="M 180.617188 117.882812 C 180.875 117.121094 181.128906 116.425781 181.492188 115.726562 C 181.84375 115.050781 182.234375 114.441406 182.699219 114.066406 C 182.828125 113.964844 183.167969 113.789062 183.246094 113.769531 C 183.492188 113.699219 183.71875 113.671875 183.964844 113.710938 C 184.375 113.78125 184.414062 113.820312 184.679688 113.976562 C 184.90625 114.109375 184.796875 114.046875 184.734375 114 C 184.792969 114.046875 184.847656 114.097656 184.898438 114.144531 C 184.964844 114.214844 185.035156 114.28125 185.097656 114.355469 C 185.257812 114.53125 185.003906 114.210938 185.144531 114.40625 C 185.96875 115.527344 186.136719 117.003906 186.191406 118.410156 C 186.277344 120.683594 186.214844 122.96875 186.222656 125.242188 C 186.25 134.949219 186.277344 144.65625 186.304688 154.363281 C 186.320312 159.859375 186.335938 165.359375 186.347656 170.855469 C 186.355469 172.71875 189.25 172.722656 189.242188 170.855469 C 189.214844 160.375 189.183594 149.898438 189.15625 139.417969 C 189.140625 134.21875 189.125 129.023438 189.113281 123.824219 C 189.105469 121.589844 189.25 119.300781 188.980469 117.078125 C 188.765625 115.300781 188.292969 113.378906 186.945312 112.097656 C 185.398438 110.632812 182.902344 110.347656 181.152344 111.632812 C 179.371094 112.9375 178.511719 115.089844 177.824219 117.113281 C 177.574219 117.851562 178.113281 118.695312 178.835938 118.894531 C 179.628906 119.109375 180.363281 118.625 180.617188 117.882812 " fill-opacity="1" fill-rule="nonzero"/></g><path fill="#375726" d="M 177.375 201.386719 C 177.660156 196.839844 178.941406 192.367188 181.121094 188.359375 C 183.097656 184.722656 185.683594 181.421875 187.40625 177.640625 C 188.414062 175.4375 189.097656 173.152344 189.234375 170.71875 C 189.277344 169.9375 188.539062 169.273438 187.785156 169.273438 C 186.964844 169.273438 186.382812 169.9375 186.339844 170.71875 C 186.113281 174.726562 183.957031 178.261719 181.871094 181.566406 C 179.476562 185.355469 177.195312 189.105469 175.886719 193.433594 C 175.105469 196.015625 174.648438 198.695312 174.480469 201.386719 C 174.429688 202.167969 175.179688 202.835938 175.925781 202.835938 C 176.75 202.835938 177.324219 202.171875 177.375 201.386719 " fill-opacity="1" fill-rule="nonzero"/><path fill="#375726" d="M 187.65625 150.578125 C 189.519531 150.578125 189.519531 147.683594 187.65625 147.683594 C 185.792969 147.683594 185.789062 150.578125 187.65625 150.578125 " fill-opacity="1" fill-rule="nonzero"/><path fill="#375726" d="M 180.453125 160.203125 C 181.320312 155.53125 182.21875 150.859375 183.179688 146.199219 C 183.308594 145.566406 183.441406 144.929688 183.578125 144.292969 C 183.636719 144.03125 183.6875 143.769531 183.761719 143.511719 C 183.867188 143.164062 183.96875 142.855469 184.296875 142.542969 C 184.5625 142.289062 184.9375 142.097656 185.300781 142.042969 C 185.3125 142.039062 185.730469 142.019531 185.667969 142.027344 C 185.707031 142.023438 185.804688 142.113281 185.835938 142.121094 C 185.613281 142.070312 185.710938 141.972656 185.835938 142.144531 C 185.894531 142.226562 185.925781 142.328125 185.792969 142.085938 C 185.828125 142.148438 185.875 142.203125 185.902344 142.265625 C 186.050781 142.589844 185.835938 142.058594 185.917969 142.277344 C 185.949219 142.355469 185.972656 142.433594 186 142.507812 C 186.121094 142.902344 186.207031 143.414062 186.230469 143.636719 C 186.542969 146.519531 186.519531 149.476562 186.238281 152.363281 C 186.164062 153.140625 186.957031 153.808594 187.6875 153.808594 C 188.53125 153.808594 189.058594 153.144531 189.132812 152.363281 C 189.414062 149.480469 189.441406 146.515625 189.125 143.636719 C 189.011719 142.609375 188.867188 141.515625 188.292969 140.625 C 187.597656 139.546875 186.378906 139.03125 185.109375 139.167969 C 183.589844 139.332031 182.179688 140.207031 181.449219 141.570312 C 181.042969 142.324219 180.871094 143.132812 180.695312 143.960938 C 180.308594 145.785156 179.941406 147.613281 179.578125 149.441406 C 178.917969 152.769531 178.28125 156.101562 177.660156 159.4375 C 177.519531 160.203125 177.875 160.996094 178.671875 161.214844 C 179.375 161.410156 180.308594 160.976562 180.453125 160.203125 " fill-opacity="1" fill-rule="nonzero"/><path fill="#375726" d="M 194.839844 117.835938 C 195.457031 123.503906 196.425781 129.253906 198.785156 134.484375 C 199.492188 136.046875 200.355469 137.511719 201.414062 138.863281 C 202.347656 140.054688 203.523438 141.023438 204.46875 142.210938 C 205.507812 143.519531 206.464844 145.34375 206.800781 147.140625 C 206.8125 147.214844 206.890625 147.6875 206.851562 147.441406 C 206.8125 147.175781 206.859375 147.5 206.863281 147.535156 C 206.875 147.640625 206.886719 147.746094 206.898438 147.851562 C 206.949219 148.394531 206.980469 148.9375 207 149.480469 C 207.058594 151.082031 207.03125 152.6875 207.011719 154.292969 C 206.96875 158.035156 206.835938 161.789062 206.914062 165.53125 C 206.953125 167.433594 207.105469 169.351562 207.523438 171.210938 C 207.921875 172.964844 208.597656 174.648438 209.363281 176.273438 C 211.179688 180.132812 213.339844 183.851562 215.351562 187.613281 C 217.410156 191.460938 219.46875 195.3125 221.527344 199.164062 C 222.40625 200.808594 224.902344 199.347656 224.027344 197.703125 C 220.402344 190.929688 216.757812 184.167969 213.160156 177.378906 C 211.488281 174.222656 210.15625 171.074219 209.894531 167.472656 C 209.632812 163.855469 209.835938 160.1875 209.878906 156.5625 C 209.914062 153.601562 210.09375 150.589844 209.769531 147.636719 C 209.570312 145.8125 209.023438 144.148438 208.132812 142.527344 C 207.117188 140.691406 205.6875 139.300781 204.28125 137.789062 C 204.09375 137.585938 203.910156 137.375 203.734375 137.160156 C 203.679688 137.09375 203.625 137.023438 203.570312 136.957031 C 203.363281 136.710938 203.765625 137.226562 203.574219 136.964844 C 203.464844 136.8125 203.351562 136.664062 203.242188 136.507812 C 202.800781 135.878906 202.398438 135.222656 202.035156 134.542969 C 201.789062 134.082031 201.554688 133.613281 201.339844 133.136719 C 201.292969 133.042969 201.25 132.945312 201.207031 132.847656 C 201.183594 132.792969 201.003906 132.375 201.117188 132.644531 C 201.011719 132.390625 200.910156 132.136719 200.808594 131.878906 C 200.339844 130.667969 199.945312 129.429688 199.601562 128.175781 C 198.675781 124.792969 198.113281 121.320312 197.734375 117.835938 C 197.648438 117.058594 197.128906 116.390625 196.285156 116.390625 C 195.570312 116.390625 194.753906 117.054688 194.839844 117.835938 " fill-opacity="1" fill-rule="nonzero"/><g clip-path="url(#2c4c30d700)"><path fill="#375726" d="M 189.136719 170.855469 C 189.164062 161.191406 189.191406 151.527344 189.21875 141.863281 C 189.230469 137.054688 189.246094 132.242188 189.257812 127.433594 C 189.265625 125.027344 189.273438 122.621094 189.277344 120.21875 C 189.285156 118.488281 189.265625 117.027344 189.796875 115.4375 C 189.882812 115.195312 190.039062 114.871094 190.253906 114.527344 C 190.402344 114.296875 190.289062 114.433594 190.484375 114.246094 C 190.539062 114.199219 190.585938 114.144531 190.640625 114.097656 C 190.8125 113.9375 190.628906 114.089844 190.746094 114.015625 C 191.253906 113.691406 191.859375 113.585938 192.445312 113.8125 C 192.292969 113.753906 192.707031 113.960938 192.777344 114.003906 C 192.914062 114.097656 192.910156 114.097656 193.085938 114.273438 C 193.386719 114.570312 193.53125 114.777344 193.773438 115.171875 C 194.253906 115.96875 194.582031 116.8125 194.878906 117.6875 C 195.132812 118.425781 195.875 118.914062 196.660156 118.699219 C 197.378906 118.5 197.921875 117.660156 197.671875 116.917969 C 197.070312 115.15625 196.3125 113.1875 194.839844 111.960938 C 193.308594 110.6875 191.164062 110.40625 189.410156 111.4375 C 185.894531 113.507812 186.390625 118.707031 186.378906 122.148438 C 186.347656 132.542969 186.320312 142.9375 186.289062 153.332031 C 186.273438 159.171875 186.257812 165.015625 186.242188 170.855469 C 186.238281 172.71875 189.132812 172.722656 189.136719 170.855469 " fill-opacity="1" fill-rule="nonzero"/></g><path fill="#375726" d="M 186.25 170.71875 C 186.492188 174.984375 188.457031 178.761719 190.671875 182.320312 C 192.96875 186.007812 195.339844 189.578125 196.667969 193.753906 C 197.457031 196.234375 197.949219 198.792969 198.113281 201.386719 C 198.160156 202.167969 198.742188 202.835938 199.558594 202.835938 C 200.304688 202.835938 201.054688 202.171875 201.007812 201.386719 C 200.703125 196.609375 199.453125 191.945312 197.273438 187.675781 C 195.378906 183.960938 192.773438 180.65625 190.925781 176.914062 C 189.96875 174.976562 189.265625 172.886719 189.144531 170.71875 C 189.101562 169.9375 188.511719 169.273438 187.699219 169.273438 C 186.949219 169.273438 186.207031 169.933594 186.25 170.71875 " fill-opacity="1" fill-rule="nonzero"/><path fill="#375726" d="M 187.832031 150.578125 C 189.691406 150.578125 189.695312 147.683594 187.832031 147.683594 C 185.96875 147.683594 185.964844 150.578125 187.832031 150.578125 " fill-opacity="1" fill-rule="nonzero"/><path fill="#375726" d="M 189.246094 152.363281 C 188.992188 149.730469 188.996094 147.078125 189.183594 144.4375 C 189.21875 143.957031 189.257812 143.554688 189.3125 143.238281 C 189.351562 143.035156 189.394531 142.832031 189.449219 142.632812 C 189.472656 142.550781 189.5 142.472656 189.523438 142.390625 C 189.542969 142.335938 189.566406 142.28125 189.585938 142.222656 C 189.523438 142.378906 189.511719 142.40625 189.558594 142.316406 C 189.601562 142.238281 189.648438 142.164062 189.691406 142.085938 C 189.675781 142.113281 189.496094 142.351562 189.648438 142.144531 C 189.6875 142.09375 189.746094 142.054688 189.789062 142.011719 C 189.46875 142.324219 189.679688 142.0625 189.734375 142.070312 C 189.964844 142.121094 190.320312 142.042969 190.652344 142.1875 C 191.488281 142.554688 191.667969 143.214844 191.839844 143.988281 C 191.964844 144.546875 192.078125 145.105469 192.195312 145.664062 C 192.574219 147.484375 192.9375 149.300781 193.296875 151.125 C 193.894531 154.148438 194.46875 157.175781 195.035156 160.203125 C 195.175781 160.972656 196.105469 161.410156 196.8125 161.214844 C 197.621094 160.996094 197.96875 160.207031 197.824219 159.4375 C 196.894531 154.433594 195.9375 149.4375 194.894531 144.457031 C 194.757812 143.800781 194.652344 143.117188 194.429688 142.484375 C 193.929688 141.046875 192.9375 139.96875 191.507812 139.425781 C 190.242188 138.941406 188.679688 139.046875 187.671875 140.03125 C 186.976562 140.707031 186.652344 141.675781 186.496094 142.613281 C 185.976562 145.792969 186.042969 149.167969 186.351562 152.363281 C 186.425781 153.140625 186.960938 153.808594 187.796875 153.808594 C 188.523438 153.808594 189.320312 153.144531 189.246094 152.363281 " fill-opacity="1" fill-rule="nonzero"/><path fill="#375726" d="M 198.789062 204.046875 C 207.203125 205.414062 215.964844 203.792969 223.332031 199.484375 C 230.648438 195.207031 236.132812 188.351562 238.996094 180.398438 C 240.582031 175.992188 241.3125 171.253906 241.09375 166.574219 C 241.058594 165.792969 240.457031 165.128906 239.648438 165.128906 C 238.894531 165.128906 238.164062 165.789062 238.203125 166.574219 C 238.5625 174.328125 236.15625 182.019531 231.578125 188.277344 C 226.976562 194.5625 220.09375 198.90625 212.550781 200.71875 C 208.316406 201.738281 203.859375 201.957031 199.554688 201.257812 C 198.785156 201.132812 198 201.457031 197.777344 202.265625 C 197.585938 202.957031 198.011719 203.921875 198.789062 204.046875 " fill-opacity="1" fill-rule="nonzero"/><path fill="#375726" d="M 237.546875 177.792969 C 232.574219 172.566406 233.742188 164.621094 236 158.464844 C 236.765625 156.378906 237.671875 154.351562 238.578125 152.324219 C 237.917969 152.496094 237.257812 152.667969 236.597656 152.84375 C 240.292969 155.484375 243.941406 158.765625 245.683594 163.070312 C 247.3125 167.09375 247.273438 171.984375 244.058594 175.222656 C 242.519531 176.773438 240.503906 177.703125 238.355469 177.644531 C 236.492188 177.589844 236.496094 180.484375 238.355469 180.539062 C 243.433594 180.679688 247.878906 176.730469 249.179688 171.972656 C 250.691406 166.453125 248.484375 160.738281 244.964844 156.492188 C 242.988281 154.109375 240.570312 152.136719 238.058594 150.34375 C 237.472656 149.921875 236.378906 150.195312 236.078125 150.863281 C 232.820312 158.140625 229.34375 166.355469 232.191406 174.363281 C 232.914062 176.402344 234.003906 178.265625 235.5 179.839844 C 236.789062 181.191406 238.832031 179.144531 237.546875 177.792969 " fill-opacity="1" fill-rule="nonzero"/><path fill="#375726" d="M 222.917969 198.320312 C 230.304688 191.585938 229.246094 180.339844 226.636719 171.679688 C 225.027344 166.347656 222.902344 161.136719 221.988281 155.617188 C 221.203125 150.859375 221.675781 146.011719 223.296875 141.476562 C 225.082031 136.484375 228.273438 132.058594 232.429688 128.773438 C 233.042969 128.285156 232.933594 127.234375 232.429688 126.726562 C 231.824219 126.121094 230.996094 126.238281 230.382812 126.726562 C 222.722656 132.785156 218.230469 142.726562 218.75 152.480469 C 219.320312 163.105469 225.640625 172.542969 225.726562 183.195312 C 225.761719 188.011719 224.535156 192.929688 220.871094 196.273438 C 219.492188 197.53125 221.542969 199.574219 222.917969 198.320312 " fill-opacity="1" fill-rule="nonzero"/><path fill="#375726" d="M 222.046875 145.09375 C 220.773438 140.546875 221.160156 135.539062 223.179688 131.261719 C 225.203125 126.96875 228.703125 123.640625 233.007812 121.675781 C 235.328125 120.617188 237.882812 120.042969 240.425781 119.960938 C 239.941406 119.476562 239.460938 118.996094 238.976562 118.511719 C 239.507812 123.257812 238.714844 128.121094 236.566406 132.398438 C 234.546875 136.417969 231.433594 139.808594 227.601562 142.171875 C 225.46875 143.492188 223.171875 144.464844 220.738281 145.085938 C 218.9375 145.550781 219.703125 148.339844 221.511719 147.878906 C 231.371094 145.351562 239.210938 137.316406 241.386719 127.355469 C 242.019531 124.457031 242.203125 121.464844 241.871094 118.511719 C 241.785156 117.753906 241.277344 117.039062 240.425781 117.066406 C 235.097656 117.238281 229.96875 119.308594 225.960938 122.816406 C 221.855469 126.410156 219.316406 131.480469 218.613281 136.863281 C 218.222656 139.871094 218.4375 142.941406 219.253906 145.863281 C 219.757812 147.652344 222.550781 146.890625 222.046875 145.09375 " fill-opacity="1" fill-rule="nonzero"/><path fill="#375726" d="M 218.820312 201.578125 C 226.671875 200.210938 234.921875 202.179688 241.417969 206.761719 C 242.054688 207.214844 243.027344 206.875 243.394531 206.242188 C 243.820312 205.519531 243.515625 204.714844 242.875 204.261719 C 235.722656 199.214844 226.652344 197.292969 218.050781 198.789062 C 217.277344 198.921875 216.847656 199.867188 217.039062 200.570312 C 217.261719 201.382812 218.046875 201.714844 218.820312 201.578125 " fill-opacity="1" fill-rule="nonzero"/><g clip-path="url(#2c3f6ccb87)"><path fill="#375726" d="M 233.535156 202.074219 C 237.0625 200.191406 241.523438 200.203125 245.003906 202.203125 C 248.242188 204.066406 250.382812 207.390625 250.914062 211.070312 C 251.132812 210.523438 251.355469 209.980469 251.578125 209.433594 C 247.726562 211.230469 242.984375 211.191406 239.191406 209.257812 C 235.765625 207.507812 233.109375 204.417969 231.949219 200.738281 C 231.390625 198.96875 228.597656 199.726562 229.15625 201.511719 C 231.472656 208.84375 238.503906 213.941406 246.230469 213.617188 C 248.605469 213.515625 250.890625 212.9375 253.039062 211.933594 C 253.667969 211.640625 253.792969 210.898438 253.703125 210.300781 C 253.210938 206.882812 251.390625 203.625 248.777344 201.367188 C 245.925781 198.902344 242.203125 197.605469 238.425781 197.808594 C 236.195312 197.929688 234.042969 198.523438 232.074219 199.574219 C 230.429688 200.453125 231.890625 202.953125 233.535156 202.074219 " fill-opacity="1" fill-rule="nonzero"/></g><path fill="#375726" d="M 133.890625 166.574219 C 133.503906 174.878906 136.125 183.320312 141.089844 189.984375 C 146.179688 196.808594 153.574219 201.617188 161.867188 203.558594 C 166.574219 204.660156 171.429688 204.824219 176.199219 204.046875 C 176.972656 203.921875 177.402344 202.960938 177.210938 202.265625 C 176.984375 201.445312 176.203125 201.128906 175.429688 201.257812 C 167.765625 202.5 159.699219 200.859375 153.023438 196.933594 C 146.359375 193.011719 141.289062 186.71875 138.710938 179.4375 C 137.25 175.304688 136.582031 170.957031 136.785156 166.574219 C 136.820312 165.792969 136.09375 165.128906 135.335938 165.128906 C 134.523438 165.128906 133.925781 165.789062 133.890625 166.574219 " fill-opacity="1" fill-rule="nonzero"/><path fill="#375726" d="M 136.628906 177.644531 C 132.695312 177.753906 129.371094 174.550781 128.492188 170.785156 C 127.429688 166.238281 129.472656 161.523438 132.417969 158.128906 C 134.167969 156.113281 136.222656 154.390625 138.386719 152.84375 C 137.726562 152.667969 137.066406 152.496094 136.40625 152.324219 C 139.320312 158.824219 142.5 166.136719 140.101562 173.3125 C 139.542969 174.980469 138.652344 176.519531 137.4375 177.792969 C 136.15625 179.144531 138.199219 181.191406 139.484375 179.839844 C 142.113281 177.078125 143.421875 173.453125 143.761719 169.699219 C 144.128906 165.652344 143.195312 161.589844 141.816406 157.804688 C 140.957031 155.445312 139.933594 153.152344 138.90625 150.863281 C 138.605469 150.191406 137.511719 149.925781 136.925781 150.34375 C 132.453125 153.542969 128.304688 157.433594 126.355469 162.707031 C 124.511719 167.703125 125.097656 173.660156 129.082031 177.464844 C 131.105469 179.398438 133.804688 180.617188 136.628906 180.539062 C 138.488281 180.484375 138.496094 177.589844 136.628906 177.644531 " fill-opacity="1" fill-rule="nonzero"/><path fill="#375726" d="M 142.558594 128.773438 C 150.054688 134.703125 154.179688 144.289062 153.238281 153.8125 C 152.695312 159.316406 150.621094 164.550781 148.945312 169.773438 C 147.429688 174.496094 146.21875 179.34375 146.378906 184.34375 C 146.546875 189.507812 148.15625 194.753906 152.066406 198.320312 C 153.441406 199.574219 155.496094 197.53125 154.113281 196.273438 C 150.90625 193.347656 149.523438 189.148438 149.296875 184.914062 C 149.039062 179.996094 150.210938 175.308594 151.699219 170.65625 C 153.414062 165.296875 155.410156 160.015625 156.070312 154.390625 C 156.640625 149.527344 155.96875 144.519531 154.199219 139.957031 C 152.203125 134.808594 148.949219 130.160156 144.605469 126.726562 C 143.992188 126.242188 143.15625 126.128906 142.558594 126.726562 C 142.054688 127.226562 141.941406 128.285156 142.558594 128.773438 " fill-opacity="1" fill-rule="nonzero"/><path fill="#375726" d="M 154.246094 145.085938 C 149.980469 143.992188 146.058594 141.773438 142.9375 138.660156 C 139.628906 135.355469 137.382812 131.152344 136.390625 126.585938 C 135.8125 123.933594 135.707031 121.207031 136.007812 118.511719 C 135.527344 118.996094 135.042969 119.476562 134.5625 119.960938 C 139.125 120.109375 143.628906 121.902344 147.054688 124.929688 C 150.59375 128.054688 152.871094 132.386719 153.503906 137.066406 C 153.867188 139.75 153.667969 142.488281 152.941406 145.09375 C 152.4375 146.890625 155.230469 147.65625 155.730469 145.863281 C 157.210938 140.566406 156.664062 134.863281 154.347656 129.894531 C 152.121094 125.113281 148.0625 121.234375 143.253906 119.09375 C 140.5 117.871094 137.578125 117.164062 134.5625 117.066406 C 133.714844 117.039062 133.199219 117.753906 133.113281 118.511719 C 131.949219 128.886719 137.066406 139.203125 145.921875 144.671875 C 148.253906 146.113281 150.820312 147.199219 153.476562 147.878906 C 155.28125 148.339844 156.050781 145.550781 154.246094 145.085938 " fill-opacity="1" fill-rule="nonzero"/><path fill="#375726" d="M 133.570312 206.761719 C 140.066406 202.179688 148.3125 200.210938 156.167969 201.578125 C 156.9375 201.714844 157.726562 201.375 157.945312 200.570312 C 158.140625 199.871094 157.710938 198.921875 156.9375 198.789062 C 148.335938 197.292969 139.261719 199.214844 132.109375 204.261719 C 131.472656 204.714844 131.171875 205.527344 131.589844 206.242188 C 131.960938 206.875 132.929688 207.214844 133.570312 206.761719 " fill-opacity="1" fill-rule="nonzero"/><g clip-path="url(#bfa8a81f77)"><path fill="#375726" d="M 143.035156 200.738281 C 141.878906 204.417969 139.222656 207.507812 135.792969 209.257812 C 132 211.191406 127.257812 211.230469 123.410156 209.433594 C 123.628906 209.980469 123.851562 210.523438 124.074219 211.070312 C 124.605469 207.390625 126.742188 204.066406 129.984375 202.203125 C 133.464844 200.203125 137.925781 200.191406 141.453125 202.074219 C 143.09375 202.949219 144.558594 200.453125 142.914062 199.574219 C 139.5 197.753906 135.433594 197.292969 131.707031 198.363281 C 128.214844 199.359375 125.230469 201.707031 123.320312 204.78125 C 122.277344 206.449219 121.566406 208.351562 121.28125 210.300781 C 121.195312 210.890625 121.328125 211.644531 121.949219 211.933594 C 125.667969 213.667969 129.886719 214.105469 133.871094 213.058594 C 137.433594 212.125 140.632812 209.964844 142.894531 207.070312 C 144.199219 205.394531 145.1875 203.535156 145.828125 201.511719 C 146.390625 199.730469 143.597656 198.96875 143.035156 200.738281 " fill-opacity="1" fill-rule="nonzero"/></g><path fill="#375726" d="M 175.148438 204.097656 C 185.742188 204.261719 196.335938 204.421875 206.933594 204.582031 C 208.796875 204.613281 208.796875 201.71875 206.933594 201.6875 C 196.335938 201.527344 185.742188 201.367188 175.148438 201.203125 C 173.285156 201.175781 173.285156 204.070312 175.148438 204.097656 " fill-opacity="1" fill-rule="nonzero"/><path fill="#375726" d="M 147.191406 156.621094 C 149.054688 156.621094 149.058594 153.726562 147.191406 153.726562 C 145.332031 153.726562 145.328125 156.621094 147.191406 156.621094 " fill-opacity="1" fill-rule="nonzero"/><path fill="#375726" d="M 131.171875 191.25 C 133.03125 191.25 133.035156 188.355469 131.171875 188.355469 C 129.308594 188.355469 129.304688 191.25 131.171875 191.25 " fill-opacity="1" fill-rule="nonzero"/><path fill="#375726" d="M 242.808594 191.25 C 244.671875 191.25 244.675781 188.355469 242.808594 188.355469 C 240.949219 188.355469 240.945312 191.25 242.808594 191.25 " fill-opacity="1" fill-rule="nonzero"/><path fill="#375726" d="M 229.785156 152.589844 C 229.785156 152.414062 229.785156 152.242188 229.785156 152.070312 C 229.785156 151.699219 229.625 151.308594 229.363281 151.046875 C 229.230469 150.90625 229.074219 150.808594 228.894531 150.75 C 228.722656 150.65625 228.539062 150.617188 228.339844 150.625 C 227.964844 150.640625 227.574219 150.761719 227.316406 151.046875 C 227.054688 151.332031 226.890625 151.679688 226.890625 152.070312 C 226.890625 152.242188 226.890625 152.414062 226.890625 152.589844 C 226.890625 152.957031 227.050781 153.347656 227.316406 153.609375 C 227.445312 153.753906 227.601562 153.851562 227.78125 153.910156 C 227.953125 154 228.140625 154.042969 228.339844 154.035156 C 228.710938 154.019531 229.101562 153.894531 229.363281 153.609375 C 229.621094 153.328125 229.785156 152.980469 229.785156 152.589844 " fill-opacity="1" fill-rule="nonzero"/><path fill="#375726" d="M 177.625 199.027344 C 183.78125 195.566406 191.664062 195.8125 197.625 199.585938 C 199.207031 200.582031 200.660156 198.078125 199.089844 197.085938 C 192.261719 192.765625 183.191406 192.578125 176.164062 196.53125 C 174.539062 197.441406 175.996094 199.945312 177.625 199.027344 " fill-opacity="1" fill-rule="nonzero"/><path fill="#375726" d="M 179.191406 191.5625 C 184.121094 188.332031 190.703125 188.09375 195.828125 191.039062 C 197.445312 191.972656 198.902344 189.472656 197.289062 188.542969 C 191.3125 185.101562 183.507812 185.277344 177.730469 189.0625 C 176.175781 190.078125 177.625 192.585938 179.191406 191.5625 " fill-opacity="1" fill-rule="nonzero"/><path fill="#375726" d="M 221.964844 167.578125 C 222.28125 173.402344 219.371094 179.210938 214.425781 182.34375 C 212.855469 183.335938 214.304688 185.84375 215.886719 184.839844 C 221.660156 181.1875 225.230469 174.421875 224.859375 167.578125 C 224.816406 166.796875 224.226562 166.128906 223.414062 166.128906 C 222.664062 166.128906 221.921875 166.792969 221.964844 167.578125 " fill-opacity="1" fill-rule="nonzero"/><path fill="#375726" d="M 225.96875 180.128906 C 224.855469 183.886719 222.117188 186.933594 218.566406 188.5625 C 217.855469 188.886719 217.683594 189.914062 218.050781 190.542969 C 218.476562 191.273438 219.316406 191.386719 220.027344 191.0625 C 224.238281 189.132812 227.449219 185.324219 228.761719 180.898438 C 229.292969 179.109375 226.5 178.347656 225.96875 180.128906 " fill-opacity="1" fill-rule="nonzero"/><path fill="#375726" d="M 216.449219 172.898438 C 218.3125 172.898438 218.316406 170.003906 216.449219 170.003906 C 214.589844 170.003906 214.585938 172.898438 216.449219 172.898438 " fill-opacity="1" fill-rule="nonzero"/><path fill="#375726" d="M 215.570312 160.082031 C 215.570312 159.996094 215.570312 159.910156 215.570312 159.824219 C 215.578125 159.625 215.539062 159.4375 215.449219 159.265625 C 215.390625 159.085938 215.289062 158.929688 215.148438 158.800781 C 215.015625 158.660156 214.863281 158.558594 214.683594 158.5 C 214.511719 158.410156 214.324219 158.371094 214.125 158.375 C 213.996094 158.394531 213.867188 158.410156 213.742188 158.429688 C 213.496094 158.496094 213.28125 158.621094 213.101562 158.800781 C 213.027344 158.898438 212.949219 158.996094 212.875 159.09375 C 212.746094 159.320312 212.679688 159.5625 212.675781 159.824219 C 212.675781 159.910156 212.675781 159.996094 212.675781 160.082031 C 212.671875 160.28125 212.710938 160.46875 212.800781 160.640625 C 212.859375 160.820312 212.960938 160.972656 213.101562 161.105469 C 213.234375 161.246094 213.386719 161.347656 213.566406 161.40625 C 213.738281 161.496094 213.925781 161.535156 214.125 161.53125 C 214.253906 161.511719 214.382812 161.496094 214.507812 161.476562 C 214.753906 161.410156 214.96875 161.285156 215.148438 161.105469 C 215.222656 161.007812 215.300781 160.910156 215.375 160.8125 C 215.503906 160.585938 215.570312 160.34375 215.570312 160.082031 " fill-opacity="1" fill-rule="nonzero"/><g fill="#375726" fill-opacity="1"><g transform="translate(100.817809, 241.437656)"><g><path d="M 18.46875 -18.984375 L 18.46875 -18.46875 C 17.894531 -18.34375 17.28125 -18.09375 16.625 -17.71875 C 15.976562 -17.34375 15.300781 -16.738281 14.59375 -15.90625 L 9.546875 -9.890625 L 11.09375 -12.125 L 17.484375 -2.171875 C 17.734375 -1.765625 18 -1.429688 18.28125 -1.171875 C 18.570312 -0.921875 18.945312 -0.707031 19.40625 -0.53125 L 19.40625 0 C 18.78125 -0.03125 18.082031 -0.0507812 17.3125 -0.0625 C 16.550781 -0.0703125 15.859375 -0.078125 15.234375 -0.078125 C 14.859375 -0.078125 14.398438 -0.0703125 13.859375 -0.0625 C 13.328125 -0.0507812 12.648438 -0.03125 11.828125 0 L 11.828125 -0.53125 C 12.554688 -0.570312 12.992188 -0.675781 13.140625 -0.84375 C 13.296875 -1.007812 13.234375 -1.3125 12.953125 -1.75 L 9.0625 -8.046875 C 8.8125 -8.453125 8.585938 -8.757812 8.390625 -8.96875 C 8.191406 -9.175781 7.992188 -9.316406 7.796875 -9.390625 C 7.597656 -9.472656 7.34375 -9.523438 7.03125 -9.546875 L 7.03125 -10.109375 C 7.8125 -10.128906 8.507812 -10.34375 9.125 -10.75 C 9.75 -11.164062 10.425781 -11.789062 11.15625 -12.625 L 12.734375 -14.53125 C 13.410156 -15.332031 13.804688 -16.023438 13.921875 -16.609375 C 14.046875 -17.191406 13.929688 -17.644531 13.578125 -17.96875 C 13.234375 -18.289062 12.703125 -18.457031 11.984375 -18.46875 L 11.984375 -18.984375 C 12.429688 -18.960938 12.851562 -18.945312 13.25 -18.9375 C 13.65625 -18.925781 14.078125 -18.914062 14.515625 -18.90625 C 14.953125 -18.90625 15.429688 -18.90625 15.953125 -18.90625 C 16.472656 -18.90625 16.941406 -18.910156 17.359375 -18.921875 C 17.773438 -18.941406 18.144531 -18.960938 18.46875 -18.984375 Z M 9.203125 -18.984375 L 9.203125 -18.453125 C 8.628906 -18.429688 8.191406 -18.363281 7.890625 -18.25 C 7.597656 -18.132812 7.40625 -17.921875 7.3125 -17.609375 C 7.226562 -17.296875 7.1875 -16.804688 7.1875 -16.140625 L 7.1875 -2.84375 C 7.1875 -2.195312 7.234375 -1.710938 7.328125 -1.390625 C 7.429688 -1.066406 7.625 -0.851562 7.90625 -0.75 C 8.195312 -0.644531 8.628906 -0.570312 9.203125 -0.53125 L 9.203125 0 C 8.710938 -0.03125 8.101562 -0.0507812 7.375 -0.0625 C 6.644531 -0.0703125 5.898438 -0.078125 5.140625 -0.078125 C 4.285156 -0.078125 3.476562 -0.0703125 2.71875 -0.0625 C 1.957031 -0.0507812 1.351562 -0.03125 0.90625 0 L 0.90625 -0.53125 C 1.476562 -0.570312 1.90625 -0.644531 2.1875 -0.75 C 2.476562 -0.851562 2.671875 -1.066406 2.765625 -1.390625 C 2.867188 -1.710938 2.921875 -2.195312 2.921875 -2.84375 L 2.921875 -16.140625 C 2.921875 -16.804688 2.867188 -17.296875 2.765625 -17.609375 C 2.671875 -17.921875 2.476562 -18.132812 2.1875 -18.25 C 1.894531 -18.363281 1.46875 -18.429688 0.90625 -18.453125 L 0.90625 -18.984375 C 1.351562 -18.960938 1.957031 -18.941406 2.71875 -18.921875 C 3.476562 -18.910156 4.285156 -18.90625 5.140625 -18.90625 C 5.898438 -18.90625 6.644531 -18.910156 7.375 -18.921875 C 8.101562 -18.941406 8.710938 -18.960938 9.203125 -18.984375 Z M 9.203125 -18.984375 "/></g></g></g><g fill="#375726" fill-opacity="1"><g transform="translate(119.988707, 241.437656)"><g/></g></g><g fill="#375726" fill-opacity="1"><g transform="translate(126.262825, 241.437656)"><g><path d="M 0.90625 -18.984375 C 1.351562 -18.960938 1.957031 -18.941406 2.71875 -18.921875 C 3.476562 -18.910156 4.234375 -18.90625 4.984375 -18.90625 C 5.847656 -18.90625 6.679688 -18.910156 7.484375 -18.921875 C 8.285156 -18.941406 8.859375 -18.953125 9.203125 -18.953125 C 10.859375 -18.953125 12.234375 -18.769531 13.328125 -18.40625 C 14.429688 -18.039062 15.253906 -17.507812 15.796875 -16.8125 C 16.347656 -16.113281 16.625 -15.273438 16.625 -14.296875 C 16.625 -13.679688 16.5 -13.066406 16.25 -12.453125 C 16 -11.835938 15.570312 -11.265625 14.96875 -10.734375 C 14.375 -10.210938 13.554688 -9.796875 12.515625 -9.484375 C 11.484375 -9.171875 10.179688 -9.015625 8.609375 -9.015625 L 6.03125 -9.015625 L 6.03125 -9.546875 L 8.34375 -9.546875 C 9.394531 -9.546875 10.191406 -9.742188 10.734375 -10.140625 C 11.285156 -10.546875 11.660156 -11.082031 11.859375 -11.75 C 12.066406 -12.425781 12.171875 -13.175781 12.171875 -14 C 12.171875 -15.40625 11.921875 -16.5 11.421875 -17.28125 C 10.921875 -18.0625 10.0625 -18.453125 8.84375 -18.453125 C 8.144531 -18.453125 7.691406 -18.296875 7.484375 -17.984375 C 7.285156 -17.679688 7.1875 -17.066406 7.1875 -16.140625 L 7.1875 -2.84375 C 7.1875 -2.195312 7.234375 -1.710938 7.328125 -1.390625 C 7.429688 -1.066406 7.625 -0.851562 7.90625 -0.75 C 8.195312 -0.644531 8.628906 -0.570312 9.203125 -0.53125 L 9.203125 0 C 8.710938 -0.03125 8.101562 -0.0507812 7.375 -0.0625 C 6.644531 -0.0703125 5.898438 -0.078125 5.140625 -0.078125 C 4.285156 -0.078125 3.476562 -0.0703125 2.71875 -0.0625 C 1.957031 -0.0507812 1.351562 -0.03125 0.90625 0 L 0.90625 -0.53125 C 1.476562 -0.570312 1.90625 -0.644531 2.1875 -0.75 C 2.476562 -0.851562 2.671875 -1.066406 2.765625 -1.390625 C 2.867188 -1.710938 2.921875 -2.195312 2.921875 -2.84375 L 2.921875 -16.140625 C 2.921875 -16.804688 2.867188 -17.296875 2.765625 -17.609375 C 2.671875 -17.921875 2.476562 -18.132812 2.1875 -18.25 C 1.894531 -18.363281 1.46875 -18.429688 0.90625 -18.453125 Z M 5.984375 -9.46875 C 6.742188 -9.445312 7.40625 -9.410156 7.96875 -9.359375 C 8.539062 -9.304688 9.039062 -9.253906 9.46875 -9.203125 C 9.894531 -9.160156 10.28125 -9.128906 10.625 -9.109375 C 12.25 -8.972656 13.445312 -8.625 14.21875 -8.0625 C 15 -7.507812 15.503906 -6.679688 15.734375 -5.578125 L 16.359375 -2.8125 C 16.515625 -2.101562 16.679688 -1.601562 16.859375 -1.3125 C 17.046875 -1.03125 17.304688 -0.890625 17.640625 -0.890625 C 17.867188 -0.898438 18.0625 -0.953125 18.21875 -1.046875 C 18.375 -1.148438 18.539062 -1.300781 18.71875 -1.5 L 19.09375 -1.1875 C 18.601562 -0.625 18.082031 -0.222656 17.53125 0.015625 C 16.976562 0.253906 16.3125 0.375 15.53125 0.375 C 14.5625 0.375 13.765625 0.171875 13.140625 -0.234375 C 12.515625 -0.648438 12.101562 -1.410156 11.90625 -2.515625 L 11.421875 -5.203125 C 11.296875 -5.953125 11.144531 -6.609375 10.96875 -7.171875 C 10.789062 -7.734375 10.546875 -8.179688 10.234375 -8.515625 C 9.921875 -8.847656 9.484375 -9.015625 8.921875 -9.015625 L 6.03125 -9.015625 Z M 5.984375 -9.46875 "/></g></g></g><g fill="#375726" fill-opacity="1"><g transform="translate(144.843848, 241.437656)"><g/></g></g><g fill="#375726" fill-opacity="1"><g transform="translate(151.117965, 241.437656)"><g><path d="M 9.203125 -18.984375 L 9.203125 -18.453125 C 8.628906 -18.429688 8.191406 -18.363281 7.890625 -18.25 C 7.597656 -18.132812 7.40625 -17.921875 7.3125 -17.609375 C 7.226562 -17.296875 7.1875 -16.804688 7.1875 -16.140625 L 7.1875 -2.84375 C 7.1875 -2.195312 7.234375 -1.710938 7.328125 -1.390625 C 7.429688 -1.066406 7.625 -0.851562 7.90625 -0.75 C 8.195312 -0.644531 8.628906 -0.570312 9.203125 -0.53125 L 9.203125 0 C 8.710938 -0.03125 8.101562 -0.0507812 7.375 -0.0625 C 6.644531 -0.0703125 5.898438 -0.078125 5.140625 -0.078125 C 4.265625 -0.078125 3.457031 -0.0703125 2.71875 -0.0625 C 1.976562 -0.0507812 1.375 -0.03125 0.90625 0 L 0.90625 -0.53125 C 1.476562 -0.570312 1.90625 -0.644531 2.1875 -0.75 C 2.476562 -0.851562 2.671875 -1.066406 2.765625 -1.390625 C 2.867188 -1.710938 2.921875 -2.195312 2.921875 -2.84375 L 2.921875 -16.140625 C 2.921875 -16.804688 2.867188 -17.296875 2.765625 -17.609375 C 2.671875 -17.921875 2.476562 -18.132812 2.1875 -18.25 C 1.894531 -18.363281 1.46875 -18.429688 0.90625 -18.453125 L 0.90625 -18.984375 C 1.375 -18.960938 1.976562 -18.941406 2.71875 -18.921875 C 3.457031 -18.910156 4.265625 -18.90625 5.140625 -18.90625 C 5.898438 -18.90625 6.644531 -18.910156 7.375 -18.921875 C 8.101562 -18.941406 8.710938 -18.960938 9.203125 -18.984375 Z M 9.203125 -18.984375 "/></g></g></g><g fill="#375726" fill-opacity="1"><g transform="translate(161.226268, 241.437656)"><g/></g></g><g fill="#375726" fill-opacity="1"><g transform="translate(167.500388, 241.437656)"><g><path d="M 7.609375 -19.328125 C 8.671875 -19.328125 9.484375 -19.210938 10.046875 -18.984375 C 10.617188 -18.765625 11.113281 -18.53125 11.53125 -18.28125 C 11.738281 -18.15625 11.910156 -18.0625 12.046875 -18 C 12.179688 -17.9375 12.3125 -17.90625 12.4375 -17.90625 C 12.613281 -17.90625 12.742188 -18.003906 12.828125 -18.203125 C 12.910156 -18.398438 12.976562 -18.695312 13.03125 -19.09375 L 13.640625 -19.09375 C 13.628906 -18.75 13.609375 -18.335938 13.578125 -17.859375 C 13.554688 -17.390625 13.539062 -16.769531 13.53125 -16 C 13.519531 -15.238281 13.515625 -14.234375 13.515625 -12.984375 L 12.890625 -12.984375 C 12.828125 -13.910156 12.613281 -14.8125 12.25 -15.6875 C 11.894531 -16.5625 11.390625 -17.28125 10.734375 -17.84375 C 10.085938 -18.40625 9.289062 -18.6875 8.34375 -18.6875 C 7.476562 -18.6875 6.769531 -18.441406 6.21875 -17.953125 C 5.664062 -17.472656 5.390625 -16.804688 5.390625 -15.953125 C 5.390625 -15.234375 5.566406 -14.617188 5.921875 -14.109375 C 6.285156 -13.609375 6.8125 -13.113281 7.5 -12.625 C 8.1875 -12.144531 9.019531 -11.566406 10 -10.890625 C 10.851562 -10.335938 11.617188 -9.78125 12.296875 -9.21875 C 12.984375 -8.664062 13.53125 -8.039062 13.9375 -7.34375 C 14.351562 -6.644531 14.5625 -5.816406 14.5625 -4.859375 C 14.5625 -3.671875 14.25 -2.691406 13.625 -1.921875 C 13.007812 -1.160156 12.203125 -0.585938 11.203125 -0.203125 C 10.203125 0.179688 9.101562 0.375 7.90625 0.375 C 6.800781 0.375 5.914062 0.265625 5.25 0.046875 C 4.59375 -0.160156 4.039062 -0.378906 3.59375 -0.609375 C 3.195312 -0.859375 2.894531 -0.984375 2.6875 -0.984375 C 2.5 -0.984375 2.363281 -0.882812 2.28125 -0.6875 C 2.207031 -0.5 2.144531 -0.207031 2.09375 0.1875 L 1.46875 0.1875 C 1.507812 -0.238281 1.535156 -0.738281 1.546875 -1.3125 C 1.554688 -1.882812 1.5625 -2.628906 1.5625 -3.546875 C 1.570312 -4.472656 1.578125 -5.640625 1.578125 -7.046875 L 2.203125 -7.046875 C 2.273438 -5.867188 2.472656 -4.765625 2.796875 -3.734375 C 3.128906 -2.710938 3.640625 -1.890625 4.328125 -1.265625 C 5.015625 -0.640625 5.929688 -0.328125 7.078125 -0.328125 C 7.703125 -0.328125 8.257812 -0.4375 8.75 -0.65625 C 9.238281 -0.875 9.632812 -1.207031 9.9375 -1.65625 C 10.25 -2.101562 10.40625 -2.660156 10.40625 -3.328125 C 10.40625 -4.078125 10.226562 -4.726562 9.875 -5.28125 C 9.53125 -5.832031 9.054688 -6.347656 8.453125 -6.828125 C 7.859375 -7.316406 7.164062 -7.8125 6.375 -8.3125 C 5.539062 -8.863281 4.753906 -9.414062 4.015625 -9.96875 C 3.285156 -10.53125 2.703125 -11.164062 2.265625 -11.875 C 1.828125 -12.59375 1.609375 -13.441406 1.609375 -14.421875 C 1.609375 -15.546875 1.890625 -16.46875 2.453125 -17.1875 C 3.015625 -17.914062 3.753906 -18.453125 4.671875 -18.796875 C 5.597656 -19.148438 6.578125 -19.328125 7.609375 -19.328125 Z M 7.609375 -19.328125 "/></g></g></g><g fill="#375726" fill-opacity="1"><g transform="translate(183.185671, 241.437656)"><g/></g></g><g fill="#375726" fill-opacity="1"><g transform="translate(189.459791, 241.437656)"><g><path d="M 12.28125 0 L 12.28125 -0.53125 C 12.851562 -0.570312 13.28125 -0.644531 13.5625 -0.75 C 13.851562 -0.851562 14.046875 -1.066406 14.140625 -1.390625 C 14.242188 -1.710938 14.296875 -2.195312 14.296875 -2.84375 L 14.296875 -16.140625 C 14.296875 -16.804688 14.242188 -17.296875 14.140625 -17.609375 C 14.046875 -17.921875 13.847656 -18.132812 13.546875 -18.25 C 13.253906 -18.363281 12.832031 -18.429688 12.28125 -18.453125 L 12.28125 -18.984375 C 12.757812 -18.960938 13.390625 -18.941406 14.171875 -18.921875 C 14.953125 -18.910156 15.722656 -18.90625 16.484375 -18.90625 C 17.304688 -18.90625 18.078125 -18.910156 18.796875 -18.921875 C 19.523438 -18.941406 20.113281 -18.960938 20.5625 -18.984375 L 20.5625 -18.453125 C 19.988281 -18.429688 19.554688 -18.363281 19.265625 -18.25 C 18.972656 -18.132812 18.78125 -17.921875 18.6875 -17.609375 C 18.59375 -17.296875 18.546875 -16.804688 18.546875 -16.140625 L 18.546875 -2.84375 C 18.546875 -2.195312 18.59375 -1.710938 18.6875 -1.390625 C 18.789062 -1.066406 18.984375 -0.851562 19.265625 -0.75 C 19.554688 -0.644531 19.988281 -0.570312 20.5625 -0.53125 L 20.5625 0 C 20.113281 -0.03125 19.523438 -0.0507812 18.796875 -0.0625 C 18.078125 -0.0703125 17.304688 -0.078125 16.484375 -0.078125 C 15.722656 -0.078125 14.953125 -0.0703125 14.171875 -0.0625 C 13.390625 -0.0507812 12.757812 -0.03125 12.28125 0 Z M 0.90625 0 L 0.90625 -0.53125 C 1.476562 -0.570312 1.90625 -0.644531 2.1875 -0.75 C 2.476562 -0.851562 2.671875 -1.066406 2.765625 -1.390625 C 2.867188 -1.710938 2.921875 -2.195312 2.921875 -2.84375 L 2.921875 -16.140625 C 2.921875 -16.804688 2.867188 -17.296875 2.765625 -17.609375 C 2.671875 -17.921875 2.476562 -18.132812 2.1875 -18.25 C 1.894531 -18.363281 1.46875 -18.429688 0.90625 -18.453125 L 0.90625 -18.984375 C 1.375 -18.960938 1.976562 -18.941406 2.71875 -18.921875 C 3.457031 -18.910156 4.265625 -18.90625 5.140625 -18.90625 C 5.898438 -18.90625 6.644531 -18.910156 7.375 -18.921875 C 8.101562 -18.941406 8.710938 -18.960938 9.203125 -18.984375 L 9.203125 -18.453125 C 8.628906 -18.429688 8.191406 -18.363281 7.890625 -18.25 C 7.597656 -18.132812 7.40625 -17.921875 7.3125 -17.609375 C 7.226562 -17.296875 7.1875 -16.804688 7.1875 -16.140625 L 7.1875 -2.84375 C 7.1875 -2.195312 7.234375 -1.710938 7.328125 -1.390625 C 7.429688 -1.066406 7.625 -0.851562 7.90625 -0.75 C 8.195312 -0.644531 8.628906 -0.570312 9.203125 -0.53125 L 9.203125 0 C 8.710938 -0.03125 8.101562 -0.0507812 7.375 -0.0625 C 6.644531 -0.0703125 5.898438 -0.078125 5.140625 -0.078125 C 4.265625 -0.078125 3.457031 -0.0703125 2.71875 -0.0625 C 1.976562 -0.0507812 1.375 -0.03125 0.90625 0 Z M 5.4375 -9.28125 L 5.4375 -9.8125 L 16.03125 -9.8125 L 16.03125 -9.28125 Z M 5.4375 -9.28125 "/></g></g></g><g fill="#375726" fill-opacity="1"><g transform="translate(210.936561, 241.437656)"><g/></g></g><g fill="#375726" fill-opacity="1"><g transform="translate(217.210681, 241.437656)"><g><path d="M 9.859375 -19.03125 L 16.375 -2.25 C 16.632812 -1.601562 16.921875 -1.160156 17.234375 -0.921875 C 17.546875 -0.679688 17.828125 -0.550781 18.078125 -0.53125 L 18.078125 0 C 17.535156 -0.03125 16.898438 -0.0507812 16.171875 -0.0625 C 15.453125 -0.0703125 14.726562 -0.078125 14 -0.078125 C 13.175781 -0.078125 12.394531 -0.0703125 11.65625 -0.0625 C 10.925781 -0.0507812 10.347656 -0.03125 9.921875 0 L 9.921875 -0.53125 C 10.828125 -0.570312 11.398438 -0.726562 11.640625 -1 C 11.890625 -1.28125 11.832031 -1.875 11.46875 -2.78125 L 6.921875 -15.25 L 7.40625 -15.953125 L 3.328125 -5.328125 C 2.929688 -4.347656 2.691406 -3.546875 2.609375 -2.921875 C 2.535156 -2.296875 2.582031 -1.8125 2.75 -1.46875 C 2.914062 -1.132812 3.191406 -0.898438 3.578125 -0.765625 C 3.960938 -0.628906 4.421875 -0.550781 4.953125 -0.53125 L 4.953125 0 C 4.367188 -0.03125 3.804688 -0.0507812 3.265625 -0.0625 C 2.734375 -0.0703125 2.191406 -0.078125 1.640625 -0.078125 C 1.242188 -0.078125 0.867188 -0.0703125 0.515625 -0.0625 C 0.171875 -0.0507812 -0.132812 -0.03125 -0.40625 0 L -0.40625 -0.53125 C -0.03125 -0.601562 0.351562 -0.84375 0.75 -1.25 C 1.144531 -1.664062 1.53125 -2.367188 1.90625 -3.359375 L 8.015625 -19.03125 C 8.304688 -19.019531 8.613281 -19.015625 8.9375 -19.015625 C 9.269531 -19.015625 9.578125 -19.019531 9.859375 -19.03125 Z M 11.75 -7.71875 L 11.75 -7.1875 L 3.75 -7.1875 L 4.015625 -7.71875 Z M 11.75 -7.71875 "/></g></g></g><g fill="#375726" fill-opacity="1"><g transform="translate(235.121393, 241.437656)"><g/></g></g><g fill="#375726" fill-opacity="1"><g transform="translate(241.395513, 241.437656)"><g><path d="M 9.359375 -18.984375 L 9.359375 -18.453125 C 8.753906 -18.429688 8.289062 -18.363281 7.96875 -18.25 C 7.65625 -18.132812 7.445312 -17.921875 7.34375 -17.609375 C 7.238281 -17.296875 7.1875 -16.804688 7.1875 -16.140625 L 7.1875 -2.515625 C 7.1875 -1.960938 7.222656 -1.550781 7.296875 -1.28125 C 7.378906 -1.019531 7.539062 -0.84375 7.78125 -0.75 C 8.03125 -0.65625 8.394531 -0.609375 8.875 -0.609375 L 10.1875 -0.609375 C 10.789062 -0.609375 11.359375 -0.75 11.890625 -1.03125 C 12.429688 -1.320312 12.914062 -1.734375 13.34375 -2.265625 C 13.78125 -2.796875 14.140625 -3.425781 14.421875 -4.15625 C 14.710938 -4.882812 14.925781 -5.695312 15.0625 -6.59375 L 15.6875 -6.59375 C 15.632812 -5.988281 15.609375 -5.203125 15.609375 -4.234375 C 15.609375 -3.828125 15.613281 -3.226562 15.625 -2.4375 C 15.644531 -1.65625 15.703125 -0.84375 15.796875 0 C 14.878906 -0.03125 13.847656 -0.0507812 12.703125 -0.0625 C 11.566406 -0.0703125 10.550781 -0.078125 9.65625 -0.078125 C 9.207031 -0.078125 8.632812 -0.078125 7.9375 -0.078125 C 7.238281 -0.078125 6.488281 -0.0703125 5.6875 -0.0625 C 4.882812 -0.0507812 4.070312 -0.0390625 3.25 -0.03125 C 2.425781 -0.03125 1.644531 -0.0195312 0.90625 0 L 0.90625 -0.53125 C 1.476562 -0.570312 1.90625 -0.644531 2.1875 -0.75 C 2.476562 -0.851562 2.671875 -1.066406 2.765625 -1.390625 C 2.867188 -1.710938 2.921875 -2.195312 2.921875 -2.84375 L 2.921875 -16.140625 C 2.921875 -16.804688 2.867188 -17.296875 2.765625 -17.609375 C 2.671875 -17.921875 2.476562 -18.132812 2.1875 -18.25 C 1.894531 -18.363281 1.46875 -18.429688 0.90625 -18.453125 L 0.90625 -18.984375 C 1.351562 -18.960938 1.957031 -18.941406 2.71875 -18.921875 C 3.476562 -18.910156 4.285156 -18.90625 5.140625 -18.90625 C 5.929688 -18.90625 6.707031 -18.910156 7.46875 -18.921875 C 8.226562 -18.941406 8.859375 -18.960938 9.359375 -18.984375 Z M 9.359375 -18.984375 "/></g></g></g><g fill="#375726" fill-opacity="1"><g transform="translate(257.804737, 241.437656)"><g/></g></g><g fill="#375726" fill-opacity="1"><g transform="translate(264.078857, 241.437656)"><g><path d="M 9.203125 -18.984375 L 9.203125 -18.453125 C 8.628906 -18.429688 8.191406 -18.363281 7.890625 -18.25 C 7.597656 -18.132812 7.40625 -17.921875 7.3125 -17.609375 C 7.226562 -17.296875 7.1875 -16.804688 7.1875 -16.140625 L 7.1875 -2.84375 C 7.1875 -2.195312 7.234375 -1.710938 7.328125 -1.390625 C 7.429688 -1.066406 7.625 -0.851562 7.90625 -0.75 C 8.195312 -0.644531 8.628906 -0.570312 9.203125 -0.53125 L 9.203125 0 C 8.710938 -0.03125 8.101562 -0.0507812 7.375 -0.0625 C 6.644531 -0.0703125 5.898438 -0.078125 5.140625 -0.078125 C 4.265625 -0.078125 3.457031 -0.0703125 2.71875 -0.0625 C 1.976562 -0.0507812 1.375 -0.03125 0.90625 0 L 0.90625 -0.53125 C 1.476562 -0.570312 1.90625 -0.644531 2.1875 -0.75 C 2.476562 -0.851562 2.671875 -1.066406 2.765625 -1.390625 C 2.867188 -1.710938 2.921875 -2.195312 2.921875 -2.84375 L 2.921875 -16.140625 C 2.921875 -16.804688 2.867188 -17.296875 2.765625 -17.609375 C 2.671875 -17.921875 2.476562 -18.132812 2.1875 -18.25 C 1.894531 -18.363281 1.46875 -18.429688 0.90625 -18.453125 L 0.90625 -18.984375 C 1.375 -18.960938 1.976562 -18.941406 2.71875 -18.921875 C 3.457031 -18.910156 4.265625 -18.90625 5.140625 -18.90625 C 5.898438 -18.90625 6.644531 -18.910156 7.375 -18.921875 C 8.101562 -18.941406 8.710938 -18.960938 9.203125 -18.984375 Z M 9.203125 -18.984375 "/></g></g></g><g fill="#375726" fill-opacity="1"><g transform="translate(133.046121, 261.267902)"><g><path d="M 9.75 -7.3125 L 11.390625 -7.3125 L 10.015625 0 L 7.1875 0 L 5.921875 -6.015625 L 4.671875 0 L 1.84375 0 L 0.46875 -7.3125 L 2.109375 -7.3125 L 3.296875 -0.984375 L 4.671875 -7.3125 L 7.1875 -7.3125 L 8.5625 -0.984375 Z M 9.75 -7.3125 "/></g></g></g><g fill="#375726" fill-opacity="1"><g transform="translate(144.895745, 261.267902)"><g><path d="M 2.3125 -1.328125 L 6.40625 -1.328125 L 6.40625 0 L 0.640625 0 L 0.640625 -7.3125 L 6.375 -7.3125 L 6.375 -6 L 2.3125 -6 L 2.3125 -4.359375 L 6.046875 -4.359375 L 6.046875 -3.109375 L 2.3125 -3.109375 Z M 2.3125 -1.328125 "/></g></g></g><g fill="#375726" fill-opacity="1"><g transform="translate(151.853821, 261.267902)"><g><path d="M 2.328125 -1.328125 L 5.734375 -1.328125 L 5.734375 0 L 0.640625 0 L 0.640625 -7.3125 L 2.328125 -7.3125 Z M 2.328125 -1.328125 "/></g></g></g><g fill="#375726" fill-opacity="1"><g transform="translate(157.800617, 261.267902)"><g><path d="M 2.328125 -1.328125 L 5.734375 -1.328125 L 5.734375 0 L 0.640625 0 L 0.640625 -7.3125 L 2.328125 -7.3125 Z M 2.328125 -1.328125 "/></g></g></g><g fill="#375726" fill-opacity="1"><g transform="translate(163.747413, 261.267902)"><g><path d="M 6.109375 -7.3125 L 7.71875 -7.3125 L 7.71875 0 L 4.953125 0 L 2.65625 -5 C 2.582031 -5.1875 2.507812 -5.375 2.4375 -5.5625 C 2.363281 -5.75 2.300781 -5.929688 2.25 -6.109375 L 2.25 0 L 0.640625 0 L 0.640625 -7.3125 L 3.40625 -7.3125 L 5.71875 -2.25 C 5.78125 -2.09375 5.847656 -1.921875 5.921875 -1.734375 C 5.992188 -1.554688 6.054688 -1.375 6.109375 -1.1875 Z M 6.109375 -7.3125 "/></g></g></g><g fill="#375726" fill-opacity="1"><g transform="translate(172.101508, 261.267902)"><g><path d="M 2.3125 -1.328125 L 6.40625 -1.328125 L 6.40625 0 L 0.640625 0 L 0.640625 -7.3125 L 6.375 -7.3125 L 6.375 -6 L 2.3125 -6 L 2.3125 -4.359375 L 6.046875 -4.359375 L 6.046875 -3.109375 L 2.3125 -3.109375 Z M 2.3125 -1.328125 "/></g></g></g><g fill="#375726" fill-opacity="1"><g transform="translate(179.059584, 261.267902)"><g><path d="M 0.421875 -2.40625 L 2.0625 -2.40625 C 2.082031 -2.019531 2.222656 -1.695312 2.484375 -1.4375 C 2.742188 -1.1875 3.160156 -1.0625 3.734375 -1.0625 C 4.296875 -1.0625 4.679688 -1.144531 4.890625 -1.3125 C 5.109375 -1.488281 5.21875 -1.726562 5.21875 -2.03125 C 5.21875 -2.550781 4.890625 -2.859375 4.234375 -2.953125 L 2.625 -3.15625 C 1.976562 -3.238281 1.476562 -3.453125 1.125 -3.796875 C 0.769531 -4.148438 0.59375 -4.628906 0.59375 -5.234375 C 0.59375 -5.890625 0.84375 -6.429688 1.34375 -6.859375 C 1.84375 -7.285156 2.609375 -7.5 3.640625 -7.5 C 4.367188 -7.5 4.960938 -7.390625 5.421875 -7.171875 C 5.878906 -6.960938 6.21875 -6.679688 6.4375 -6.328125 C 6.664062 -5.972656 6.789062 -5.578125 6.8125 -5.140625 L 5.1875 -5.140625 C 5.132812 -5.492188 4.984375 -5.769531 4.734375 -5.96875 C 4.484375 -6.164062 4.117188 -6.265625 3.640625 -6.265625 C 3.191406 -6.265625 2.851562 -6.179688 2.625 -6.015625 C 2.394531 -5.847656 2.28125 -5.617188 2.28125 -5.328125 C 2.28125 -5.117188 2.347656 -4.941406 2.484375 -4.796875 C 2.617188 -4.648438 2.835938 -4.554688 3.140625 -4.515625 L 4.65625 -4.328125 C 6.144531 -4.160156 6.890625 -3.445312 6.890625 -2.1875 C 6.890625 -1.707031 6.785156 -1.285156 6.578125 -0.921875 C 6.367188 -0.566406 6.03125 -0.289062 5.5625 -0.09375 C 5.09375 0.09375 4.476562 0.1875 3.71875 0.1875 C 3.113281 0.1875 2.601562 0.117188 2.1875 -0.015625 C 1.78125 -0.160156 1.445312 -0.359375 1.1875 -0.609375 C 0.9375 -0.859375 0.75 -1.132812 0.625 -1.4375 C 0.507812 -1.75 0.441406 -2.070312 0.421875 -2.40625 Z M 0.421875 -2.40625 "/></g></g></g><g fill="#375726" fill-opacity="1"><g transform="translate(186.402387, 261.267902)"><g><path d="M 0.421875 -2.40625 L 2.0625 -2.40625 C 2.082031 -2.019531 2.222656 -1.695312 2.484375 -1.4375 C 2.742188 -1.1875 3.160156 -1.0625 3.734375 -1.0625 C 4.296875 -1.0625 4.679688 -1.144531 4.890625 -1.3125 C 5.109375 -1.488281 5.21875 -1.726562 5.21875 -2.03125 C 5.21875 -2.550781 4.890625 -2.859375 4.234375 -2.953125 L 2.625 -3.15625 C 1.976562 -3.238281 1.476562 -3.453125 1.125 -3.796875 C 0.769531 -4.148438 0.59375 -4.628906 0.59375 -5.234375 C 0.59375 -5.890625 0.84375 -6.429688 1.34375 -6.859375 C 1.84375 -7.285156 2.609375 -7.5 3.640625 -7.5 C 4.367188 -7.5 4.960938 -7.390625 5.421875 -7.171875 C 5.878906 -6.960938 6.21875 -6.679688 6.4375 -6.328125 C 6.664062 -5.972656 6.789062 -5.578125 6.8125 -5.140625 L 5.1875 -5.140625 C 5.132812 -5.492188 4.984375 -5.769531 4.734375 -5.96875 C 4.484375 -6.164062 4.117188 -6.265625 3.640625 -6.265625 C 3.191406 -6.265625 2.851562 -6.179688 2.625 -6.015625 C 2.394531 -5.847656 2.28125 -5.617188 2.28125 -5.328125 C 2.28125 -5.117188 2.347656 -4.941406 2.484375 -4.796875 C 2.617188 -4.648438 2.835938 -4.554688 3.140625 -4.515625 L 4.65625 -4.328125 C 6.144531 -4.160156 6.890625 -3.445312 6.890625 -2.1875 C 6.890625 -1.707031 6.785156 -1.285156 6.578125 -0.921875 C 6.367188 -0.566406 6.03125 -0.289062 5.5625 -0.09375 C 5.09375 0.09375 4.476562 0.1875 3.71875 0.1875 C 3.113281 0.1875 2.601562 0.117188 2.1875 -0.015625 C 1.78125 -0.160156 1.445312 -0.359375 1.1875 -0.609375 C 0.9375 -0.859375 0.75 -1.132812 0.625 -1.4375 C 0.507812 -1.75 0.441406 -2.070312 0.421875 -2.40625 Z M 0.421875 -2.40625 "/></g></g></g><g fill="#375726" fill-opacity="1"><g transform="translate(193.745191, 261.267902)"><g/></g></g><g fill="#375726" fill-opacity="1"><g transform="translate(196.526219, 261.267902)"><g><path d="M 4.328125 0.1875 C 3.628906 0.1875 3.039062 0.0859375 2.5625 -0.109375 C 2.082031 -0.316406 1.6875 -0.597656 1.375 -0.953125 C 1.070312 -1.316406 0.847656 -1.726562 0.703125 -2.1875 C 0.566406 -2.644531 0.5 -3.132812 0.5 -3.65625 C 0.5 -4.15625 0.566406 -4.632812 0.703125 -5.09375 C 0.847656 -5.5625 1.070312 -5.972656 1.375 -6.328125 C 1.6875 -6.691406 2.082031 -6.976562 2.5625 -7.1875 C 3.050781 -7.394531 3.640625 -7.5 4.328125 -7.5 C 5.171875 -7.5 5.851562 -7.382812 6.375 -7.15625 C 6.90625 -6.925781 7.300781 -6.582031 7.5625 -6.125 C 7.832031 -5.664062 7.992188 -5.101562 8.046875 -4.4375 L 6.328125 -4.4375 C 6.273438 -4.988281 6.101562 -5.410156 5.8125 -5.703125 C 5.519531 -5.992188 5.035156 -6.140625 4.359375 -6.140625 C 3.617188 -6.140625 3.082031 -5.929688 2.75 -5.515625 C 2.414062 -5.097656 2.25 -4.476562 2.25 -3.65625 C 2.25 -2.84375 2.40625 -2.226562 2.71875 -1.8125 C 3.039062 -1.394531 3.566406 -1.1875 4.296875 -1.1875 C 5.003906 -1.1875 5.507812 -1.335938 5.8125 -1.640625 C 6.125 -1.941406 6.300781 -2.378906 6.34375 -2.953125 L 8.078125 -2.953125 C 8.023438 -2.253906 7.867188 -1.671875 7.609375 -1.203125 C 7.347656 -0.734375 6.953125 -0.382812 6.421875 -0.15625 C 5.890625 0.0703125 5.191406 0.1875 4.328125 0.1875 Z M 4.328125 0.1875 "/></g></g></g><g fill="#375726" fill-opacity="1"><g transform="translate(205.034203, 261.267902)"><g><path d="M 2.3125 -1.328125 L 6.40625 -1.328125 L 6.40625 0 L 0.640625 0 L 0.640625 -7.3125 L 6.375 -7.3125 L 6.375 -6 L 2.3125 -6 L 2.3125 -4.359375 L 6.046875 -4.359375 L 6.046875 -3.109375 L 2.3125 -3.109375 Z M 2.3125 -1.328125 "/></g></g></g><g fill="#375726" fill-opacity="1"><g transform="translate(211.992279, 261.267902)"><g><path d="M 6.109375 -7.3125 L 7.71875 -7.3125 L 7.71875 0 L 4.953125 0 L 2.65625 -5 C 2.582031 -5.1875 2.507812 -5.375 2.4375 -5.5625 C 2.363281 -5.75 2.300781 -5.929688 2.25 -6.109375 L 2.25 0 L 0.640625 0 L 0.640625 -7.3125 L 3.40625 -7.3125 L 5.71875 -2.25 C 5.78125 -2.09375 5.847656 -1.921875 5.921875 -1.734375 C 5.992188 -1.554688 6.054688 -1.375 6.109375 -1.1875 Z M 6.109375 -7.3125 "/></g></g></g><g fill="#375726" fill-opacity="1"><g transform="translate(220.346374, 261.267902)"><g><path d="M 6.859375 -7.3125 L 6.859375 -6 L 4.4375 -6 L 4.4375 0 L 2.765625 0 L 2.765625 -6 L 0.359375 -6 L 0.359375 -7.3125 Z M 6.859375 -7.3125 "/></g></g></g><g fill="#375726" fill-opacity="1"><g transform="translate(227.557273, 261.267902)"><g><path d="M 2.3125 -1.328125 L 6.40625 -1.328125 L 6.40625 0 L 0.640625 0 L 0.640625 -7.3125 L 6.375 -7.3125 L 6.375 -6 L 2.3125 -6 L 2.3125 -4.359375 L 6.046875 -4.359375 L 6.046875 -3.109375 L 2.3125 -3.109375 Z M 2.3125 -1.328125 "/></g></g></g><g fill="#375726" fill-opacity="1"><g transform="translate(234.515349, 261.267902)"><g><path d="M 6.71875 -1.78125 L 6.71875 -1.28125 C 6.71875 -0.988281 6.734375 -0.742188 6.765625 -0.546875 C 6.796875 -0.359375 6.828125 -0.175781 6.859375 0 L 5.1875 0 C 5.144531 -0.132812 5.109375 -0.300781 5.078125 -0.5 C 5.054688 -0.707031 5.046875 -0.960938 5.046875 -1.265625 L 5.046875 -1.65625 C 5.046875 -2.0625 4.929688 -2.359375 4.703125 -2.546875 C 4.484375 -2.734375 4.191406 -2.828125 3.828125 -2.828125 L 2.328125 -2.828125 L 2.328125 0 L 0.640625 0 L 0.640625 -7.3125 L 4.5 -7.3125 C 5.300781 -7.3125 5.90625 -7.125 6.3125 -6.75 C 6.71875 -6.382812 6.921875 -5.90625 6.921875 -5.3125 C 6.921875 -4.800781 6.769531 -4.378906 6.46875 -4.046875 C 6.175781 -3.710938 5.816406 -3.5 5.390625 -3.40625 C 5.640625 -3.34375 5.863281 -3.25 6.0625 -3.125 C 6.269531 -3.007812 6.429688 -2.84375 6.546875 -2.625 C 6.660156 -2.414062 6.71875 -2.132812 6.71875 -1.78125 Z M 4.125 -4.03125 C 4.507812 -4.03125 4.78125 -4.117188 4.9375 -4.296875 C 5.09375 -4.472656 5.171875 -4.734375 5.171875 -5.078125 C 5.171875 -5.378906 5.085938 -5.609375 4.921875 -5.765625 C 4.753906 -5.929688 4.488281 -6.015625 4.125 -6.015625 L 2.328125 -6.015625 L 2.328125 -4.03125 Z M 4.125 -4.03125 "/></g></g></g></svg>